<?xml version="1.0" encoding="us-ascii" standalone="no"?><svg xmlns="http://www.w3.org/2000/svg" xmlns:xlink="http://www.w3.org/1999/xlink" contentStyleType="text/css" height="3237.5px" preserveAspectRatio="none" style="width:5371px;height:3237px;background:#282A36;" version="1.1" viewBox="0 0 5371 3237" width="5371.875px" zoomAndPan="magnify"><defs/><g><rect fill="#282A36" height="3237.5" style="stroke:none;stroke-width:3.125;" width="5371.875" x="0" y="0"/><text fill="#F8F8F2" font-family="sans-serif" font-size="62.5" font-weight="bold" lengthAdjust="spacing" textLength="381.25" x="2522.6563" y="118.0054">Create Track</text><rect fill="#44475A" height="2551.3672" style="stroke:#44475A;stroke-width:1.5625;" width="350" x="1623.4375" y="647.5098"/><text fill="#282A36" font-family="sans-serif" font-size="37.5" font-weight="bold" lengthAdjust="spacing" textLength="228.125" x="1684.375" y="692.688">DogApp.Web</text><rect fill="#44475A" height="2551.3672" style="stroke:#44475A;stroke-width:1.5625;" width="325" x="2476.5625" y="647.5098"/><text fill="#282A36" font-family="sans-serif" font-size="37.5" font-weight="bold" lengthAdjust="spacing" textLength="206.25" x="2535.9375" y="692.688">DogApp.API</text><rect fill="#44475A" height="2551.3672" style="stroke:#44475A;stroke-width:1.5625;" width="496.875" x="2995.3125" y="647.5098"/><text fill="#282A36" font-family="sans-serif" font-size="37.5" font-weight="bold" lengthAdjust="spacing" textLength="303.125" x="3092.1875" y="692.688">DogApp.Serivces</text><rect fill="#44475A" height="2551.3672" style="stroke:#44475A;stroke-width:1.5625;" width="556.25" x="3685.9375" y="647.5098"/><text fill="#282A36" font-family="sans-serif" font-size="37.5" font-weight="bold" lengthAdjust="spacing" textLength="371.875" x="3778.125" y="692.688">DogApp.Repositories</text><rect fill="#44475A" height="2551.3672" style="stroke:#44475A;stroke-width:1.5625;" width="478.125" x="4435.9375" y="647.5098"/><text fill="#282A36" font-family="sans-serif" font-size="37.5" font-weight="bold" lengthAdjust="spacing" textLength="228.125" x="4560.9375" y="692.688">DogApp.Data</text><rect fill="#44475A" height="2551.3672" style="stroke:#44475A;stroke-width:1.5625;" width="225" x="5107.8125" y="647.5098"/><text fill="#282A36" font-family="sans-serif" font-size="37.5" font-weight="bold" lengthAdjust="spacing" textLength="168.75" x="5135.9375" y="692.688">Database</text><rect fill="#F8F8F2" height="2156.7383" style="stroke:#F8F8F2;stroke-width:3.125;" width="31.25" x="1782.8125" y="1032.7637"/><rect fill="#F8F8F2" height="799.8047" style="stroke:#F8F8F2;stroke-width:3.125;" width="31.25" x="2623.4375" y="1136.1816"/><rect fill="#F8F8F2" height="376.1719" style="stroke:#F8F8F2;stroke-width:3.125;" width="31.25" x="2623.4375" y="2659.9121"/><rect fill="#F8F8F2" height="103.418" style="stroke:#F8F8F2;stroke-width:3.125;" width="31.25" x="3228.125" y="1935.9863"/><rect fill="#F8F8F2" height="103.418" style="stroke:#F8F8F2;stroke-width:3.125;" width="31.25" x="3228.125" y="2556.4941"/><rect fill="#F8F8F2" height="103.418" style="stroke:#F8F8F2;stroke-width:3.125;" width="31.25" x="3948.4375" y="2039.4043"/><rect fill="#F8F8F2" height="103.418" style="stroke:#F8F8F2;stroke-width:3.125;" width="31.25" x="3948.4375" y="2453.0762"/><rect fill="#F8F8F2" height="103.418" style="stroke:#F8F8F2;stroke-width:3.125;" width="31.25" x="4659.375" y="2142.8223"/><rect fill="#F8F8F2" height="103.418" style="stroke:#F8F8F2;stroke-width:3.125;" width="31.25" x="4659.375" y="2349.6582"/><rect fill="#F8F8F2" height="103.418" style="stroke:#F8F8F2;stroke-width:3.125;" width="31.25" x="5204.6875" y="2246.2402"/><rect fill="none" height="182.1289" style="stroke:#FF5555;stroke-width:3.125;" width="1215.625" x="1604.6875" y="1183.0566"/><rect fill="none" height="182.1289" style="stroke:#FF5555;stroke-width:3.125;" width="1215.625" x="1604.6875" y="1408.9355"/><rect fill="none" height="1385.6445" style="stroke:#FF5555;stroke-width:3.125;" width="5320.3125" x="31.25" y="1778.8574"/><line style="stroke:#F8F8F2;stroke-width:1.5625;stroke-dasharray:5.0,5.0;" x1="118.75" x2="118.75" y1="923.0957" y2="3217.627"/><line style="stroke:#F8F8F2;stroke-width:1.5625;stroke-dasharray:5.0,5.0;" x1="1798.4375" x2="1798.4375" y1="923.0957" y2="3217.627"/><line style="stroke:#F8F8F2;stroke-width:1.5625;stroke-dasharray:5.0,5.0;" x1="2639.0625" x2="2639.0625" y1="923.0957" y2="3217.627"/><line style="stroke:#F8F8F2;stroke-width:1.5625;stroke-dasharray:5.0,5.0;" x1="3242.1875" x2="3242.1875" y1="923.0957" y2="3217.627"/><line style="stroke:#F8F8F2;stroke-width:1.5625;stroke-dasharray:5.0,5.0;" x1="3964.0625" x2="3964.0625" y1="923.0957" y2="3217.627"/><line style="stroke:#F8F8F2;stroke-width:1.5625;stroke-dasharray:5.0,5.0;" x1="4673.4375" x2="4673.4375" y1="923.0957" y2="3217.627"/><line style="stroke:#F8F8F2;stroke-width:1.5625;stroke-dasharray:5.0,5.0;" x1="5220.3125" x2="5220.3125" y1="923.0957" y2="3217.627"/><text fill="#FFB86C" font-family="sans-serif" font-size="37.5" lengthAdjust="spacing" textLength="84.375" x="68.75" y="908.606">User</text><ellipse cx="120.3125" cy="694.6777" fill="#FFB86C" rx="25" ry="25" style="stroke:#FFB86C;stroke-width:9.375;"/><path d="M120.3125,719.6777 L120.3125,804.0527 M79.6875,744.6777 L160.9375,744.6777 M120.3125,804.0527 L79.6875,850.9277 M120.3125,804.0527 L160.9375,850.9277 " fill="none" style="stroke:#FFB86C;stroke-width:9.375;"/><rect fill="#FFB86C" height="103.418" style="stroke:#FFB86C;stroke-width:1.5625;" width="137.5" x="1729.6875" y="816.5527"/><text fill="#000000" font-family="sans-serif" font-size="37.5" lengthAdjust="spacing" textLength="81.25" x="1757.8125" y="883.606">View</text><rect fill="#FFB86C" height="103.418" style="stroke:#FFB86C;stroke-width:1.5625;" width="112.5" x="2582.8125" y="816.5527"/><text fill="#000000" font-family="sans-serif" font-size="37.5" lengthAdjust="spacing" textLength="56.25" x="2610.9375" y="883.606">API</text><rect fill="#FFB86C" height="103.418" style="stroke:#FFB86C;stroke-width:1.5625;" width="284.375" x="3101.5625" y="816.5527"/><text fill="#000000" font-family="sans-serif" font-size="37.5" lengthAdjust="spacing" textLength="228.125" x="3129.6875" y="883.606">Track Service</text><rect fill="#FFB86C" height="103.418" style="stroke:#FFB86C;stroke-width:1.5625;" width="343.75" x="3792.1875" y="816.5527"/><text fill="#000000" font-family="sans-serif" font-size="37.5" lengthAdjust="spacing" textLength="287.5" x="3820.3125" y="883.606">Track Repository</text><rect fill="#FFB86C" height="103.418" style="stroke:#FFB86C;stroke-width:1.5625;" width="265.625" x="4542.1875" y="816.5527"/><text fill="#000000" font-family="sans-serif" font-size="37.5" lengthAdjust="spacing" textLength="209.375" x="4570.3125" y="883.606">DataContext</text><text fill="#000000" font-family="sans-serif" font-size="37.5" lengthAdjust="spacing" textLength="168.75" x="5126.5625" y="908.606">Database</text><path d="M5164.0625,750.9277 C5164.0625,719.6777 5220.3125,719.6777 5220.3125,719.6777 C5220.3125,719.6777 5276.5625,719.6777 5276.5625,750.9277 L5276.5625,832.1777 C5276.5625,863.4277 5220.3125,863.4277 5220.3125,863.4277 C5220.3125,863.4277 5164.0625,863.4277 5164.0625,832.1777 L5164.0625,750.9277 " fill="#FFB86C" style="stroke:#282A36;stroke-width:4.6875;"/><path d="M5164.0625,750.9277 C5164.0625,782.1777 5220.3125,782.1777 5220.3125,782.1777 C5220.3125,782.1777 5276.5625,782.1777 5276.5625,750.9277 " fill="none" style="stroke:#282A36;stroke-width:4.6875;"/><rect fill="#F8F8F2" height="2156.7383" style="stroke:#F8F8F2;stroke-width:3.125;" width="31.25" x="1782.8125" y="1032.7637"/><rect fill="#F8F8F2" height="799.8047" style="stroke:#F8F8F2;stroke-width:3.125;" width="31.25" x="2623.4375" y="1136.1816"/><rect fill="#F8F8F2" height="376.1719" style="stroke:#F8F8F2;stroke-width:3.125;" width="31.25" x="2623.4375" y="2659.9121"/><rect fill="#F8F8F2" height="103.418" style="stroke:#F8F8F2;stroke-width:3.125;" width="31.25" x="3228.125" y="1935.9863"/><rect fill="#F8F8F2" height="103.418" style="stroke:#F8F8F2;stroke-width:3.125;" width="31.25" x="3228.125" y="2556.4941"/><rect fill="#F8F8F2" height="103.418" style="stroke:#F8F8F2;stroke-width:3.125;" width="31.25" x="3948.4375" y="2039.4043"/><rect fill="#F8F8F2" height="103.418" style="stroke:#F8F8F2;stroke-width:3.125;" width="31.25" x="3948.4375" y="2453.0762"/><rect fill="#F8F8F2" height="103.418" style="stroke:#F8F8F2;stroke-width:3.125;" width="31.25" x="4659.375" y="2142.8223"/><rect fill="#F8F8F2" height="103.418" style="stroke:#F8F8F2;stroke-width:3.125;" width="31.25" x="4659.375" y="2349.6582"/><rect fill="#F8F8F2" height="103.418" style="stroke:#F8F8F2;stroke-width:3.125;" width="31.25" x="5204.6875" y="2246.2402"/><polygon fill="#FFB86C" points="1745.3125,1020.2637,1776.5625,1032.7637,1745.3125,1045.2637" style="stroke:#FFB86C;stroke-width:3.125;"/><line style="stroke:#FFB86C;stroke-width:9.375;" x1="120.3125" x2="1764.0625" y1="1032.7637" y2="1032.7637"/><text fill="#FF79C6" font-family="sans-serif" font-size="37.5" lengthAdjust="spacing" textLength="221.875" x="148.4375" y="1012.0239">CreateTrack(</text><text fill="#F8F8F2" font-family="sans-serif" font-size="37.5" lengthAdjust="spacing" textLength="1356.25" x="370.3125" y="1012.0239">Id int; Height : int; Width : int; Collection&lt;TrackItem&gt;TrackItems; Category : string</text><text fill="#FF79C6" font-family="sans-serif" font-size="37.5" lengthAdjust="spacing" textLength="12.5" x="1726.5625" y="1012.0239">)</text><polygon fill="#FFB86C" points="2585.9375,1123.6816,2617.1875,1136.1816,2585.9375,1148.6816" style="stroke:#FFB86C;stroke-width:3.125;"/><line style="stroke:#FFB86C;stroke-width:9.375;" x1="1814.0625" x2="2604.6875" y1="1136.1816" y2="1136.1816"/><text fill="#FF79C6" font-family="sans-serif" font-size="37.5" lengthAdjust="spacing" textLength="212.5" x="1842.1875" y="1115.4419">CreateTask(</text><text fill="#F8F8F2" font-family="sans-serif" font-size="37.5" lengthAdjust="spacing" textLength="153.125" x="2054.6875" y="1115.4419">TrackDto</text><text fill="#FF79C6" font-family="sans-serif" font-size="37.5" lengthAdjust="spacing" textLength="12.5" x="2207.8125" y="1115.4419">)</text><path d="M1604.6875,1183.0566 L1814.0625,1183.0566 L1814.0625,1217.7246 L1782.8125,1248.9746 L1604.6875,1248.9746 L1604.6875,1183.0566 " fill="#FF5555" style="stroke:#FF5555;stroke-width:4.6875;"/><rect fill="none" height="182.1289" style="stroke:#FF5555;stroke-width:3.125;" width="1215.625" x="1604.6875" y="1183.0566"/><text fill="#282A36" font-family="sans-serif" font-size="37.5" font-weight="bold" lengthAdjust="spacing" textLength="56.25" x="1657.8125" y="1231.3599">opt</text><text fill="#FF5555" font-family="sans-serif" font-size="37.5" font-weight="bold" lengthAdjust="spacing" textLength="384.375" x="1867.1875" y="1234.4849">[if Trackserice is null]</text><polygon fill="#FFB86C" points="1848.4375,1327.6855,1817.1875,1340.1855,1848.4375,1352.6855" style="stroke:#FFB86C;stroke-width:3.125;"/><line style="stroke:#FFB86C;stroke-width:9.375;stroke-dasharray:2.0,2.0;" x1="1829.6875" x2="2620.3125" y1="1340.1855" y2="1340.1855"/><text fill="#FF79C6" font-family="sans-serif" font-size="37.5" lengthAdjust="spacing" textLength="456.25" x="1873.4375" y="1319.4458">InvalidOperationException(</text><text fill="#F8F8F2" font-family="sans-serif" font-size="37.5" lengthAdjust="spacing" textLength="253.125" x="2329.6875" y="1319.4458">Error Message</text><text fill="#FF79C6" font-family="sans-serif" font-size="37.5" lengthAdjust="spacing" textLength="12.5" x="2582.8125" y="1319.4458">)</text><path d="M1604.6875,1408.9355 L1814.0625,1408.9355 L1814.0625,1443.6035 L1782.8125,1474.8535 L1604.6875,1474.8535 L1604.6875,1408.9355 " fill="#FF5555" style="stroke:#FF5555;stroke-width:4.6875;"/><rect fill="none" height="182.1289" style="stroke:#FF5555;stroke-width:3.125;" width="1215.625" x="1604.6875" y="1408.9355"/><text fill="#282A36" font-family="sans-serif" font-size="37.5" font-weight="bold" lengthAdjust="spacing" textLength="56.25" x="1657.8125" y="1457.2388">opt</text><text fill="#FF5555" font-family="sans-serif" font-size="37.5" font-weight="bold" lengthAdjust="spacing" textLength="331.25" x="1867.1875" y="1460.3638">[if TrackDto is null]</text><polygon fill="#FFB86C" points="1848.4375,1553.5645,1817.1875,1566.0645,1848.4375,1578.5645" style="stroke:#FFB86C;stroke-width:3.125;"/><line style="stroke:#FFB86C;stroke-width:9.375;stroke-dasharray:2.0,2.0;" x1="1829.6875" x2="2620.3125" y1="1566.0645" y2="1566.0645"/><text fill="#FF79C6" font-family="sans-serif" font-size="37.5" lengthAdjust="spacing" textLength="228.125" x="1873.4375" y="1545.3247">BadRequest(</text><text fill="#F8F8F2" font-family="sans-serif" font-size="37.5" lengthAdjust="spacing" textLength="253.125" x="2101.5625" y="1545.3247">Error Message</text><text fill="#FF79C6" font-family="sans-serif" font-size="37.5" lengthAdjust="spacing" textLength="12.5" x="2354.6875" y="1545.3247">)</text><line style="stroke:#FFB86C;stroke-width:9.375;" x1="2654.6875" x2="2785.9375" y1="1691.3574" y2="1691.3574"/><line style="stroke:#FFB86C;stroke-width:9.375;" x1="2785.9375" x2="2785.9375" y1="1691.3574" y2="1731.9824"/><line style="stroke:#FFB86C;stroke-width:9.375;" x1="2657.8125" x2="2785.9375" y1="1731.9824" y2="1731.9824"/><polygon fill="#FFB86C" points="2689.0625,1719.4824,2657.8125,1731.9824,2689.0625,1744.4824" style="stroke:#FFB86C;stroke-width:3.125;"/><text fill="#F1FA8C" font-family="sans-serif" font-size="37.5" lengthAdjust="spacing" textLength="390.625" x="2682.8125" y="1670.6177">Create TrackDto object</text><path d="M31.25,1778.8574 L228.125,1778.8574 L228.125,1813.5254 L196.875,1844.7754 L31.25,1844.7754 L31.25,1778.8574 " fill="#FF5555" style="stroke:#FF5555;stroke-width:4.6875;"/><rect fill="none" height="1385.6445" style="stroke:#FF5555;stroke-width:3.125;" width="5320.3125" x="31.25" y="1778.8574"/><text fill="#282A36" font-family="sans-serif" font-size="37.5" font-weight="bold" lengthAdjust="spacing" textLength="43.75" x="84.375" y="1827.1606">alt</text><text fill="#FF5555" font-family="sans-serif" font-size="37.5" font-weight="bold" lengthAdjust="spacing" textLength="390.625" x="281.25" y="1830.2856">[if Trackserice exists]</text><polygon fill="#FFB86C" points="3190.625,1923.4863,3221.875,1935.9863,3190.625,1948.4863" style="stroke:#FFB86C;stroke-width:3.125;"/><line style="stroke:#FFB86C;stroke-width:9.375;" x1="2639.0625" x2="3209.375" y1="1935.9863" y2="1935.9863"/><text fill="#FF79C6" font-family="sans-serif" font-size="37.5" lengthAdjust="spacing" textLength="231.25" x="2667.1875" y="1915.2466">UpdateTrack(</text><text fill="#F8F8F2" font-family="sans-serif" font-size="37.5" lengthAdjust="spacing" textLength="81.25" x="2898.4375" y="1915.2466">track</text><text fill="#FF79C6" font-family="sans-serif" font-size="37.5" lengthAdjust="spacing" textLength="12.5" x="2979.6875" y="1915.2466">)</text><polygon fill="#FFB86C" points="3910.9375,2026.9043,3942.1875,2039.4043,3910.9375,2051.9043" style="stroke:#FFB86C;stroke-width:3.125;"/><line style="stroke:#FFB86C;stroke-width:9.375;" x1="3243.75" x2="3929.6875" y1="2039.4043" y2="2039.4043"/><text fill="#FF79C6" font-family="sans-serif" font-size="37.5" lengthAdjust="spacing" textLength="237.5" x="3271.875" y="2018.6646">UpdateAsync(</text><text fill="#F8F8F2" font-family="sans-serif" font-size="37.5" lengthAdjust="spacing" textLength="81.25" x="3509.375" y="2018.6646">track</text><text fill="#FF79C6" font-family="sans-serif" font-size="37.5" lengthAdjust="spacing" textLength="12.5" x="3590.625" y="2018.6646">)</text><polygon fill="#FFB86C" points="4621.875,2130.3223,4653.125,2142.8223,4621.875,2155.3223" style="stroke:#FFB86C;stroke-width:3.125;"/><line style="stroke:#FFB86C;stroke-width:9.375;" x1="3964.0625" x2="4640.625" y1="2142.8223" y2="2142.8223"/><text fill="#F1FA8C" font-family="sans-serif" font-size="37.5" lengthAdjust="spacing" textLength="237.5" x="3992.1875" y="2122.0825">Database call</text><polygon fill="#FFB86C" points="5167.1875,2233.7402,5198.4375,2246.2402,5167.1875,2258.7402" style="stroke:#FFB86C;stroke-width:3.125;"/><line style="stroke:#FFB86C;stroke-width:9.375;" x1="4675" x2="5185.9375" y1="2246.2402" y2="2246.2402"/><text fill="#F1FA8C" font-family="sans-serif" font-size="37.5" lengthAdjust="spacing" textLength="250" x="4703.125" y="2225.5005">Updates Track</text><polygon fill="#FFB86C" points="4725,2337.1582,4693.75,2349.6582,4725,2362.1582" style="stroke:#FFB86C;stroke-width:3.125;"/><line style="stroke:#FFB86C;stroke-width:9.375;stroke-dasharray:2.0,2.0;" x1="4706.25" x2="5217.1875" y1="2349.6582" y2="2349.6582"/><text fill="#F1FA8C" font-family="sans-serif" font-size="37.5" lengthAdjust="spacing" textLength="250" x="4750" y="2328.9185">Track Updated</text><polygon fill="#FFB86C" points="4014.0625,2440.5762,3982.8125,2453.0762,4014.0625,2465.5762" style="stroke:#FFB86C;stroke-width:3.125;"/><line style="stroke:#FFB86C;stroke-width:9.375;stroke-dasharray:2.0,2.0;" x1="3995.3125" x2="4671.875" y1="2453.0762" y2="2453.0762"/><text fill="#F1FA8C" font-family="sans-serif" font-size="37.5" lengthAdjust="spacing" textLength="250" x="4039.0625" y="2432.3364">Track Updated</text><polygon fill="#FFB86C" points="3293.75,2543.9941,3262.5,2556.4941,3293.75,2568.9941" style="stroke:#FFB86C;stroke-width:3.125;"/><line style="stroke:#FFB86C;stroke-width:9.375;stroke-dasharray:2.0,2.0;" x1="3275" x2="3960.9375" y1="2556.4941" y2="2556.4941"/><text fill="#F1FA8C" font-family="sans-serif" font-size="37.5" lengthAdjust="spacing" textLength="250" x="3318.75" y="2535.7544">Track Updated</text><polygon fill="#FFB86C" points="2689.0625,2647.4121,2657.8125,2659.9121,2689.0625,2672.4121" style="stroke:#FFB86C;stroke-width:3.125;"/><line style="stroke:#FFB86C;stroke-width:9.375;stroke-dasharray:2.0,2.0;" x1="2670.3125" x2="3240.625" y1="2659.9121" y2="2659.9121"/><text fill="#F1FA8C" font-family="sans-serif" font-size="37.5" lengthAdjust="spacing" textLength="250" x="2714.0625" y="2639.1724">Track Updated</text><polygon fill="#FFB86C" points="1848.4375,2750.8301,1817.1875,2763.3301,1848.4375,2775.8301" style="stroke:#FFB86C;stroke-width:3.125;"/><line style="stroke:#FFB86C;stroke-width:9.375;stroke-dasharray:2.0,2.0;" x1="1829.6875" x2="2620.3125" y1="2763.3301" y2="2763.3301"/><text fill="#FF79C6" font-family="sans-serif" font-size="37.5" lengthAdjust="spacing" textLength="59.375" x="1873.4375" y="2742.5903">Ok(</text><text fill="#F8F8F2" font-family="sans-serif" font-size="37.5" lengthAdjust="spacing" textLength="268.75" x="1932.8125" y="2742.5903">Bane Opdateret</text><text fill="#FF79C6" font-family="sans-serif" font-size="37.5" lengthAdjust="spacing" textLength="12.5" x="2201.5625" y="2742.5903">)</text><polygon fill="#FFB86C" points="154.6875,2854.248,123.4375,2866.748,154.6875,2879.248" style="stroke:#FFB86C;stroke-width:3.125;"/><line style="stroke:#FFB86C;stroke-width:9.375;stroke-dasharray:2.0,2.0;" x1="135.9375" x2="1779.6875" y1="2866.748" y2="2866.748"/><text fill="#F1FA8C" font-family="sans-serif" font-size="37.5" lengthAdjust="spacing" textLength="440.625" x="179.6875" y="2846.0083">Success: Bane opdateret.</text><line style="stroke:#FF5555;stroke-width:3.125;stroke-dasharray:2.0,2.0;" x1="31.25" x2="5351.5625" y1="2894.873" y2="2894.873"/><text fill="#FF5555" font-family="sans-serif" font-size="37.5" font-weight="bold" lengthAdjust="spacing" textLength="400" x="53.125" y="2940.0513">[if trackService is Null]</text><polygon fill="#FFB86C" points="1848.4375,3023.584,1817.1875,3036.084,1848.4375,3048.584" style="stroke:#FFB86C;stroke-width:3.125;"/><line style="stroke:#FFB86C;stroke-width:9.375;stroke-dasharray:2.0,2.0;" x1="1829.6875" x2="2635.9375" y1="3036.084" y2="3036.084"/><text fill="#FF79C6" font-family="sans-serif" font-size="37.5" lengthAdjust="spacing" textLength="206.25" x="1873.4375" y="3015.3442">Statuscode(</text><text fill="#F8F8F2" font-family="sans-serif" font-size="37.5" lengthAdjust="spacing" textLength="65.625" x="2079.6875" y="3015.3442">500</text><text fill="#FF79C6" font-family="sans-serif" font-size="37.5" lengthAdjust="spacing" textLength="12.5" x="2145.3125" y="3015.3442">)</text><polygon fill="#FFB86C" points="154.6875,3127.002,123.4375,3139.502,154.6875,3152.002" style="stroke:#FFB86C;stroke-width:3.125;"/><line style="stroke:#FFB86C;stroke-width:9.375;stroke-dasharray:2.0,2.0;" x1="135.9375" x2="1779.6875" y1="3139.502" y2="3139.502"/><text fill="#F1FA8C" font-family="sans-serif" font-size="37.5" lengthAdjust="spacing" textLength="359.375" x="179.6875" y="3118.7622">No track was created</text><rect fill="none" height="393.8965" id="_legend" style="stroke:#FF5555;stroke-width:9.375;" width="534.375" x="2446.0938" y="209.8633"/><text fill="#F8F8F2" font-family="sans-serif" font-size="43.75" lengthAdjust="spacing" textLength="153.125" x="2474.2188" y="289.6545">Artefakt</text><text fill="#F8F8F2" font-family="sans-serif" font-size="43.75" lengthAdjust="spacing" textLength="100" x="2652.3438" y="289.6545">Navn</text><text fill="#F8F8F2" font-family="sans-serif" font-size="43.75" lengthAdjust="spacing" textLength="59.375" x="2474.2188" y="357.1838">UC</text><text fill="#F8F8F2" font-family="sans-serif" font-size="43.75" lengthAdjust="spacing" textLength="278.125" x="2652.3438" y="357.1838">Opdater Bane</text><text fill="#F8F8F2" font-family="sans-serif" font-size="43.75" lengthAdjust="spacing" textLength="87.5" x="2474.2188" y="424.7131">SSD</text><text fill="#F8F8F2" font-family="sans-serif" font-size="43.75" lengthAdjust="spacing" textLength="278.125" x="2652.3438" y="424.7131">Opdater Bane</text><text fill="#F8F8F2" font-family="sans-serif" font-size="43.75" lengthAdjust="spacing" textLength="65.625" x="2474.2188" y="492.2424">OC</text><text fill="#F8F8F2" font-family="sans-serif" font-size="43.75" lengthAdjust="spacing" textLength="278.125" x="2652.3438" y="492.2424">Opdater Bane</text><text fill="#F8F8F2" font-family="sans-serif" font-size="43.75" font-weight="bold" lengthAdjust="spacing" textLength="59.375" x="2474.2188" y="559.7717">SD</text><text fill="#F8F8F2" font-family="sans-serif" font-size="43.75" lengthAdjust="spacing" textLength="12.5" x="2639.8438" y="559.7717">&#160;</text><text fill="#F8F8F2" font-family="sans-serif" font-size="43.75" font-weight="bold" lengthAdjust="spacing" textLength="287.5" x="2652.3438" y="559.7717">Update Track</text><text fill="#F8F8F2" font-family="sans-serif" font-size="43.75" lengthAdjust="spacing" textLength="12.5" x="2939.8438" y="559.7717">&#160;</text><line style="stroke:#F8F8F2;stroke-width:3.125;" x1="2467.9688" x2="2958.5938" y1="237.9883" y2="237.9883"/><line style="stroke:#F8F8F2;stroke-width:3.125;" x1="2467.9688" x2="2958.5938" y1="305.5176" y2="305.5176"/><line style="stroke:#F8F8F2;stroke-width:3.125;" x1="2467.9688" x2="2958.5938" y1="373.0469" y2="373.0469"/><line style="stroke:#F8F8F2;stroke-width:3.125;" x1="2467.9688" x2="2958.5938" y1="440.5762" y2="440.5762"/><line style="stroke:#F8F8F2;stroke-width:3.125;" x1="2467.9688" x2="2958.5938" y1="508.1055" y2="508.1055"/><line style="stroke:#F8F8F2;stroke-width:3.125;" x1="2467.9688" x2="2958.5938" y1="575.6348" y2="575.6348"/><line style="stroke:#F8F8F2;stroke-width:3.125;" x1="2467.9688" x2="2467.9688" y1="237.9883" y2="575.6348"/><line style="stroke:#F8F8F2;stroke-width:3.125;" x1="2633.5938" x2="2633.5938" y1="237.9883" y2="575.6348"/><line style="stroke:#F8F8F2;stroke-width:3.125;" x1="2958.5938" x2="2958.5938" y1="237.9883" y2="575.6348"/><!--SRC=[XPJFRzem5CVl-IlUK0zh55MzxD9DaoYfD0uhLO7smiLnNgc7iJFReLJYZz-p7GYXeUE2Ox_Fz_sqdN0I0KO6cKEO6SPNYSGbgXAShfBTq3XyOIktWtksKR1BTlFH3YPLIUO6Rfb2sffEy-wUjvjyj4lJQPwcEqZJUJY8_jAKpBt3w3VvubvnZP3JMIqPl1YzXbolwZKgnvpGQZ7bg9WHQ1PUs2notA3KbJTu4lYso4TvmhZJ1kOMJLBeBGnolHnMrTKp5eEaOiO9BYgc70myCG1cOJuEKP1rXnW-Z4y8l-E1OTKBJD683KTxGeLSWGutWcFWPxQNVyHAMq7HYpCQ1uFtA6DwPNBcs0dkjqPQETowGERyXAJpWbaS96MpEjeBG740aelVQ2rRubTVuuogbpLJ58BCO5o2KEux_4AnV7Lm4x-UHUbUznyZBILotz8V0HexNFyyh2mPaDoIyYJ0EYFKyjBtLMpyx52xsX38-R0w1C0i-GywkTD723LCLmx4IpoakAaL82oeMihauX5TRTIHffSSgmsJefnKQCBmtMqvLdwHmPqnD6AD_QMlJ4UUVFz7-vQLZ_YtHkjwnIuU91C7nWDjZgqBNVoX6bAMyaDck1NMsRPC7fzPwbMuVKsVdF-xJ4eyBjDXFJl2FJepUtnetnNlmmbfroQXNpSHaiXvjfyhu4pABczQdYQq2tkoo684DYRRWGberqK3TuiV9IBRv59sDOgU0BeQCOVFD7Yd2BqQDlFLFAznN0ZVXnuDwcZiobaDsnd__ZcShBBuR3VlDT8uzNaBDvsOQStfVRCt4T9xw8h6Lb97QGh3L3HldRy4z-SlmPGUzTfoNM86twwlJoVnipZWNaTFy4QF4myNWz9F_Etv1m00]--></g></svg>