<?xml version="1.0" encoding="us-ascii" standalone="no"?><svg xmlns="http://www.w3.org/2000/svg" xmlns:xlink="http://www.w3.org/1999/xlink" contentStyleType="text/css" height="2378.125px" preserveAspectRatio="none" style="width:1025px;height:2378px;background:#282A36;" version="1.1" viewBox="0 0 1025 2378" width="1025px" zoomAndPan="magnify"><defs/><g><rect fill="#282A36" height="2378.125" style="stroke:none;stroke-width:3.125;" width="1025" x="0" y="0"/><text fill="#F8F8F2" font-family="sans-serif" font-size="62.5" font-weight="bold" lengthAdjust="spacing" textLength="281.25" x="377.3438" y="118.0054">Slet Bane</text><rect fill="none" height="285.5469" style="stroke:#FF5555;stroke-width:3.125;" width="976.5625" x="31.25" y="1277.1973"/><rect fill="none" height="492.3828" style="stroke:#FF5555;stroke-width:3.125;" width="976.5625" x="31.25" y="1813.3301"/><line style="stroke:#F8F8F2;stroke-width:1.5625;stroke-dasharray:5.0,5.0;" x1="181.25" x2="181.25" y1="1017.2363" y2="2358.8379"/><line style="stroke:#F8F8F2;stroke-width:1.5625;stroke-dasharray:5.0,5.0;" x1="792.1875" x2="792.1875" y1="1017.2363" y2="2358.8379"/><text fill="#FFB86C" font-family="sans-serif" font-size="37.5" lengthAdjust="spacing" textLength="209.375" x="68.75" y="1002.7466">Auth. Bruger</text><ellipse cx="182.8125" cy="788.8184" fill="#FFB86C" rx="25" ry="25" style="stroke:#FFB86C;stroke-width:9.375;"/><path d="M182.8125,813.8184 L182.8125,898.1934 M142.1875,838.8184 L223.4375,838.8184 M182.8125,898.1934 L142.1875,945.0684 M182.8125,898.1934 L223.4375,945.0684 " fill="none" style="stroke:#FFB86C;stroke-width:9.375;"/><rect fill="#FFB86C" height="103.418" style="stroke:#FFB86C;stroke-width:1.5625;" width="181.25" x="701.5625" y="910.6934"/><text fill="#000000" font-family="sans-serif" font-size="37.5" lengthAdjust="spacing" textLength="125" x="729.6875" y="977.7466">system</text><polygon fill="#8BE9FD" points="754.6875,1114.4043,785.9375,1126.9043,754.6875,1139.4043" style="stroke:#8BE9FD;stroke-width:3.125;"/><line style="stroke:#8BE9FD;stroke-width:9.375;" x1="182.8125" x2="773.4375" y1="1126.9043" y2="1126.9043"/><text fill="#50FA7B" font-family="sans-serif" font-size="37.5" lengthAdjust="spacing" textLength="231.25" x="210.9375" y="1106.1646">Tilg&#229;r system</text><polygon fill="#8BE9FD" points="217.1875,1217.8223,185.9375,1230.3223,217.1875,1242.8223" style="stroke:#8BE9FD;stroke-width:3.125;"/><line style="stroke:#8BE9FD;stroke-width:9.375;stroke-dasharray:2.0,2.0;" x1="198.4375" x2="789.0625" y1="1230.3223" y2="1230.3223"/><text fill="#50FA7B" font-family="sans-serif" font-size="37.5" lengthAdjust="spacing" textLength="256.25" x="242.1875" y="1209.5825">Viser inputside</text><path d="M31.25,1277.1973 L259.375,1277.1973 L259.375,1311.8652 L228.125,1343.1152 L31.25,1343.1152 L31.25,1277.1973 " fill="#FF5555" style="stroke:#FF5555;stroke-width:4.6875;"/><rect fill="none" height="285.5469" style="stroke:#FF5555;stroke-width:3.125;" width="976.5625" x="31.25" y="1277.1973"/><text fill="#282A36" font-family="sans-serif" font-size="37.5" font-weight="bold" lengthAdjust="spacing" textLength="75" x="84.375" y="1325.5005">loop</text><text fill="#FF5555" font-family="sans-serif" font-size="37.5" font-weight="bold" lengthAdjust="spacing" textLength="396.875" x="312.5" y="1328.6255">[indtil bruger afslutter]</text><polygon fill="#8BE9FD" points="754.6875,1421.8262,785.9375,1434.3262,754.6875,1446.8262" style="stroke:#8BE9FD;stroke-width:3.125;"/><line style="stroke:#8BE9FD;stroke-width:9.375;" x1="182.8125" x2="773.4375" y1="1434.3262" y2="1434.3262"/><text fill="#50FA7B" font-family="sans-serif" font-size="37.5" lengthAdjust="spacing" textLength="218.75" x="210.9375" y="1413.5864">V&#230;lger bane</text><polygon fill="#8BE9FD" points="217.1875,1525.2441,185.9375,1537.7441,217.1875,1550.2441" style="stroke:#8BE9FD;stroke-width:3.125;"/><line style="stroke:#8BE9FD;stroke-width:9.375;stroke-dasharray:2.0,2.0;" x1="198.4375" x2="789.0625" y1="1537.7441" y2="1537.7441"/><text fill="#50FA7B" font-family="sans-serif" font-size="37.5" lengthAdjust="spacing" textLength="325" x="242.1875" y="1517.0044">viser valgte bane(r)</text><polygon fill="#8BE9FD" points="754.6875,1650.5371,785.9375,1663.0371,754.6875,1675.5371" style="stroke:#8BE9FD;stroke-width:3.125;"/><line style="stroke:#8BE9FD;stroke-width:9.375;" x1="182.8125" x2="773.4375" y1="1663.0371" y2="1663.0371"/><text fill="#50FA7B" font-family="sans-serif" font-size="37.5" lengthAdjust="spacing" textLength="243.75" x="210.9375" y="1642.2974">Sletter bane(r)</text><polygon fill="#8BE9FD" points="217.1875,1753.9551,185.9375,1766.4551,217.1875,1778.9551" style="stroke:#8BE9FD;stroke-width:3.125;"/><line style="stroke:#8BE9FD;stroke-width:9.375;stroke-dasharray:2.0,2.0;" x1="198.4375" x2="789.0625" y1="1766.4551" y2="1766.4551"/><text fill="#50FA7B" font-family="sans-serif" font-size="37.5" lengthAdjust="spacing" textLength="362.5" x="242.1875" y="1745.7153">bekr&#230;ftelses besked</text><path d="M31.25,1813.3301 L240.625,1813.3301 L240.625,1847.998 L209.375,1879.248 L31.25,1879.248 L31.25,1813.3301 " fill="#FF5555" style="stroke:#FF5555;stroke-width:4.6875;"/><rect fill="none" height="492.3828" style="stroke:#FF5555;stroke-width:3.125;" width="976.5625" x="31.25" y="1813.3301"/><text fill="#282A36" font-family="sans-serif" font-size="37.5" font-weight="bold" lengthAdjust="spacing" textLength="56.25" x="84.375" y="1861.6333">opt</text><text fill="#FF5555" font-family="sans-serif" font-size="37.5" font-weight="bold" lengthAdjust="spacing" textLength="187.5" x="293.75" y="1864.7583">[fortydder]</text><polygon fill="#8BE9FD" points="754.6875,1957.959,785.9375,1970.459,754.6875,1982.959" style="stroke:#8BE9FD;stroke-width:3.125;"/><line style="stroke:#8BE9FD;stroke-width:9.375;" x1="182.8125" x2="773.4375" y1="1970.459" y2="1970.459"/><text fill="#50FA7B" font-family="sans-serif" font-size="37.5" lengthAdjust="spacing" textLength="515.625" x="210.9375" y="1949.7192">finder liste over slettede baner</text><polygon fill="#8BE9FD" points="217.1875,2061.377,185.9375,2073.877,217.1875,2086.377" style="stroke:#8BE9FD;stroke-width:3.125;"/><line style="stroke:#8BE9FD;stroke-width:9.375;stroke-dasharray:2.0,2.0;" x1="198.4375" x2="789.0625" y1="2073.877" y2="2073.877"/><text fill="#50FA7B" font-family="sans-serif" font-size="37.5" lengthAdjust="spacing" textLength="162.5" x="242.1875" y="2053.1372">viser liste</text><polygon fill="#8BE9FD" points="754.6875,2164.7949,785.9375,2177.2949,754.6875,2189.7949" style="stroke:#8BE9FD;stroke-width:3.125;"/><line style="stroke:#8BE9FD;stroke-width:9.375;" x1="182.8125" x2="773.4375" y1="2177.2949" y2="2177.2949"/><text fill="#50FA7B" font-family="sans-serif" font-size="37.5" lengthAdjust="spacing" textLength="393.75" x="210.9375" y="2156.5552">gendanner valgte bane</text><polygon fill="#8BE9FD" points="217.1875,2268.2129,185.9375,2280.7129,217.1875,2293.2129" style="stroke:#8BE9FD;stroke-width:3.125;"/><line style="stroke:#8BE9FD;stroke-width:9.375;stroke-dasharray:2.0,2.0;" x1="198.4375" x2="789.0625" y1="2280.7129" y2="2280.7129"/><text fill="#50FA7B" font-family="sans-serif" font-size="37.5" lengthAdjust="spacing" textLength="521.875" x="242.1875" y="2259.9731">gendannede bane er nu synlig</text><rect fill="none" height="503.9551" id="_legend" style="stroke:#FF5555;stroke-width:9.375;" width="487.5" x="274.2188" y="209.8633"/><text fill="#F8F8F2" font-family="sans-serif" font-size="43.75" font-weight="bold" lengthAdjust="spacing" textLength="259.375" x="296.0938" y="277.1545">Sporbarhed</text><text fill="#F8F8F2" font-family="sans-serif" font-size="43.75" lengthAdjust="spacing" textLength="12.5" x="296.0938" y="332.1838">&#160;</text><text fill="#F8F8F2" font-family="sans-serif" font-size="43.75" lengthAdjust="spacing" textLength="153.125" x="302.3438" y="399.7131">Artefakt</text><text fill="#F8F8F2" font-family="sans-serif" font-size="43.75" lengthAdjust="spacing" textLength="100" x="480.4688" y="399.7131">Navn</text><text fill="#F8F8F2" font-family="sans-serif" font-size="43.75" lengthAdjust="spacing" textLength="59.375" x="302.3438" y="467.2424">UC</text><text fill="#F8F8F2" font-family="sans-serif" font-size="43.75" lengthAdjust="spacing" textLength="168.75" x="480.4688" y="467.2424">Se Bane</text><text fill="#F8F8F2" font-family="sans-serif" font-size="43.75" font-weight="bold" lengthAdjust="spacing" textLength="87.5" x="302.3438" y="534.7717">SSD</text><text fill="#F8F8F2" font-family="sans-serif" font-size="43.75" lengthAdjust="spacing" textLength="12.5" x="467.9688" y="534.7717">&#160;</text><text fill="#F8F8F2" font-family="sans-serif" font-size="43.75" font-weight="bold" lengthAdjust="spacing" textLength="209.375" x="480.4688" y="534.7717">Slet Bane</text><text fill="#F8F8F2" font-family="sans-serif" font-size="43.75" lengthAdjust="spacing" textLength="12.5" x="689.8438" y="534.7717">&#160;</text><text fill="#F8F8F2" font-family="sans-serif" font-size="43.75" lengthAdjust="spacing" textLength="65.625" x="302.3438" y="602.301">OC</text><text fill="#F8F8F2" font-family="sans-serif" font-size="43.75" lengthAdjust="spacing" textLength="190.625" x="480.4688" y="602.301">Slet Bane</text><text fill="#F8F8F2" font-family="sans-serif" font-size="43.75" lengthAdjust="spacing" textLength="59.375" x="302.3438" y="669.8303">SD</text><text fill="#F8F8F2" font-family="sans-serif" font-size="43.75" lengthAdjust="spacing" textLength="253.125" x="480.4688" y="669.8303">Delete Track</text><line style="stroke:#F8F8F2;stroke-width:3.125;" x1="296.0938" x2="739.8438" y1="348.0469" y2="348.0469"/><line style="stroke:#F8F8F2;stroke-width:3.125;" x1="296.0938" x2="739.8438" y1="415.5762" y2="415.5762"/><line style="stroke:#F8F8F2;stroke-width:3.125;" x1="296.0938" x2="739.8438" y1="483.1055" y2="483.1055"/><line style="stroke:#F8F8F2;stroke-width:3.125;" x1="296.0938" x2="739.8438" y1="550.6348" y2="550.6348"/><line style="stroke:#F8F8F2;stroke-width:3.125;" x1="296.0938" x2="739.8438" y1="618.1641" y2="618.1641"/><line style="stroke:#F8F8F2;stroke-width:3.125;" x1="296.0938" x2="739.8438" y1="685.6934" y2="685.6934"/><line style="stroke:#F8F8F2;stroke-width:3.125;" x1="296.0938" x2="296.0938" y1="348.0469" y2="685.6934"/><line style="stroke:#F8F8F2;stroke-width:3.125;" x1="461.7188" x2="461.7188" y1="348.0469" y2="685.6934"/><line style="stroke:#F8F8F2;stroke-width:3.125;" x1="739.8438" x2="739.8438" y1="348.0469" y2="685.6934"/><!--SRC=[RL91Ri903BplArnERIJw05HL0j9hUmZbbCk6E66LPJVoEgcGyfto4JvMRmYgeBtPE-EPiHCsR14oYmmhxL1PhD6LmBvLIPArdWfDUooJHAbXIOoLRdY0Tzqx6DJmkHuWmt5IEXd8qYGPG8ghO994taVaNP-apz81KfG7X0tfNJEeQ7hnLW-ynmD2Aa1dDLJa3v3wfZkWOyt6kppReTDaaFAeHtcAFLhVHiBMu5UUhbEbT-m9PikEzy-megv6ce4EOY9RjfhOx4oh7KCu1iP3XAHIAk8mVuqDB61ZR7t-febq0L_cymdTce04nhKT1rFAyRnlfItPM2X6Iz1Li1qpqftmzdoo4IykH_-LNK0_glRQrdAUY3_IatgJmzmgn7lof10PTzaAREXygXXjm21TQB1KlcMeFF6nBFyagYIuo5aZcuBlfGoZGta9GV-c7DbtGl4ZQkTkTxYRld8cSH2owmHorjJnN_W1]--></g></svg>