<?xml version="1.0" encoding="us-ascii" standalone="no"?><svg xmlns="http://www.w3.org/2000/svg" xmlns:xlink="http://www.w3.org/1999/xlink" contentStyleType="text/css" height="3181.25px" preserveAspectRatio="none" style="width:4315px;height:3181px;background:#282A36;" version="1.1" viewBox="0 0 4315 3181" width="4315.625px" zoomAndPan="magnify"><defs/><g><rect fill="#282A36" height="3181.25" style="stroke:none;stroke-width:3.125;" width="4315.625" x="0" y="0"/><text fill="#F8F8F2" font-family="sans-serif" font-size="62.5" font-weight="bold" lengthAdjust="spacing" textLength="450" x="1960.1563" y="118.0054">View All Tracks</text><rect fill="#44475A" height="2385.1563" style="stroke:#44475A;stroke-width:1.5625;" width="306.25" x="243.75" y="757.5684"/><text fill="#282A36" font-family="sans-serif" font-size="37.5" font-weight="bold" lengthAdjust="spacing" textLength="228.125" x="282.8125" y="802.7466">DogApp.Web</text><rect fill="#44475A" height="2385.1563" style="stroke:#44475A;stroke-width:1.5625;" width="540.625" x="1204.6875" y="757.5684"/><text fill="#282A36" font-family="sans-serif" font-size="37.5" font-weight="bold" lengthAdjust="spacing" textLength="206.25" x="1371.875" y="802.7466">DogApp.API</text><rect fill="#44475A" height="2385.1563" style="stroke:#44475A;stroke-width:1.5625;" width="496.875" x="1939.0625" y="757.5684"/><text fill="#282A36" font-family="sans-serif" font-size="37.5" font-weight="bold" lengthAdjust="spacing" textLength="303.125" x="2035.9375" y="802.7466">DogApp.Services</text><rect fill="#44475A" height="2385.1563" style="stroke:#44475A;stroke-width:1.5625;" width="556.25" x="2629.6875" y="757.5684"/><text fill="#282A36" font-family="sans-serif" font-size="37.5" font-weight="bold" lengthAdjust="spacing" textLength="337.5" x="2739.0625" y="802.7466">DogApp.Repository</text><rect fill="#44475A" height="2385.1563" style="stroke:#44475A;stroke-width:1.5625;" width="478.125" x="3379.6875" y="757.5684"/><text fill="#282A36" font-family="sans-serif" font-size="37.5" font-weight="bold" lengthAdjust="spacing" textLength="228.125" x="3504.6875" y="802.7466">DogApp.Data</text><rect fill="#44475A" height="2385.1563" style="stroke:#44475A;stroke-width:1.5625;" width="225" x="4051.5625" y="757.5684"/><text fill="#282A36" font-family="sans-serif" font-size="37.5" font-weight="bold" lengthAdjust="spacing" textLength="168.75" x="4079.6875" y="802.7466">Database</text><rect fill="#F8F8F2" height="1990.5273" style="stroke:#F8F8F2;stroke-width:3.125;" width="31.25" x="381.25" y="1142.8223"/><rect fill="#F8F8F2" height="611.7188" style="stroke:#F8F8F2;stroke-width:3.125;" width="31.25" x="1459.375" y="1064.4043"/><rect fill="#F8F8F2" height="683.3008" style="stroke:#F8F8F2;stroke-width:3.125;" width="31.25" x="1459.375" y="2400.0488"/><rect fill="#F8F8F2" height="103.418" style="stroke:#F8F8F2;stroke-width:3.125;" width="31.25" x="2171.875" y="1676.123"/><rect fill="#F8F8F2" height="103.418" style="stroke:#F8F8F2;stroke-width:3.125;" width="31.25" x="2171.875" y="2296.6309"/><rect fill="#F8F8F2" height="103.418" style="stroke:#F8F8F2;stroke-width:3.125;" width="31.25" x="2892.1875" y="1779.541"/><rect fill="#F8F8F2" height="103.418" style="stroke:#F8F8F2;stroke-width:3.125;" width="31.25" x="2892.1875" y="2193.2129"/><rect fill="#F8F8F2" height="103.418" style="stroke:#F8F8F2;stroke-width:3.125;" width="31.25" x="3603.125" y="1882.959"/><rect fill="#F8F8F2" height="103.418" style="stroke:#F8F8F2;stroke-width:3.125;" width="31.25" x="3603.125" y="2089.7949"/><rect fill="#F8F8F2" height="103.418" style="stroke:#F8F8F2;stroke-width:3.125;" width="31.25" x="4148.4375" y="1986.377"/><rect fill="none" height="182.1289" style="stroke:#FF5555;stroke-width:3.125;" width="1539.0625" x="225" y="1293.1152"/><rect fill="none" height="1589.3555" style="stroke:#FF5555;stroke-width:3.125;" width="4070.3125" x="225" y="1518.9941"/><rect fill="none" height="222.7539" style="stroke:#FF5555;stroke-width:3.125;" width="743.75" x="1185.9375" y="2590.9668"/><line style="stroke:#F8F8F2;stroke-width:1.5625;stroke-dasharray:5.0,5.0;" x1="71.875" x2="71.875" y1="1033.1543" y2="3161.4746"/><line style="stroke:#F8F8F2;stroke-width:1.5625;stroke-dasharray:5.0,5.0;" x1="396.875" x2="396.875" y1="1033.1543" y2="3161.4746"/><line style="stroke:#F8F8F2;stroke-width:1.5625;stroke-dasharray:5.0,5.0;" x1="1473.4375" x2="1473.4375" y1="1033.1543" y2="3161.4746"/><line style="stroke:#F8F8F2;stroke-width:1.5625;stroke-dasharray:5.0,5.0;" x1="2185.9375" x2="2185.9375" y1="1033.1543" y2="3161.4746"/><line style="stroke:#F8F8F2;stroke-width:1.5625;stroke-dasharray:5.0,5.0;" x1="2907.8125" x2="2907.8125" y1="1033.1543" y2="3161.4746"/><line style="stroke:#F8F8F2;stroke-width:1.5625;stroke-dasharray:5.0,5.0;" x1="3617.1875" x2="3617.1875" y1="1033.1543" y2="3161.4746"/><line style="stroke:#F8F8F2;stroke-width:1.5625;stroke-dasharray:5.0,5.0;" x1="4164.0625" x2="4164.0625" y1="1033.1543" y2="3161.4746"/><text fill="#FFB86C" font-family="sans-serif" font-size="37.5" lengthAdjust="spacing" textLength="84.375" x="21.875" y="1018.6646">User</text><ellipse cx="73.4375" cy="804.7363" fill="#FFB86C" rx="25" ry="25" style="stroke:#FFB86C;stroke-width:9.375;"/><path d="M73.4375,829.7363 L73.4375,914.1113 M32.8125,854.7363 L114.0625,854.7363 M73.4375,914.1113 L32.8125,960.9863 M73.4375,914.1113 L114.0625,960.9863 " fill="none" style="stroke:#FFB86C;stroke-width:9.375;"/><rect fill="#FFB86C" height="103.418" style="stroke:#FFB86C;stroke-width:1.5625;" width="93.75" x="350" y="926.6113"/><text fill="#000000" font-family="sans-serif" font-size="37.5" lengthAdjust="spacing" textLength="37.5" x="378.125" y="993.6646">UI</text><rect fill="#FFB86C" height="103.418" style="stroke:#FFB86C;stroke-width:1.5625;" width="328.125" x="1310.9375" y="926.6113"/><text fill="#000000" font-family="sans-serif" font-size="37.5" lengthAdjust="spacing" textLength="271.875" x="1339.0625" y="993.6646">Track Controller</text><rect fill="#FFB86C" height="103.418" style="stroke:#FFB86C;stroke-width:1.5625;" width="284.375" x="2045.3125" y="926.6113"/><text fill="#000000" font-family="sans-serif" font-size="37.5" lengthAdjust="spacing" textLength="228.125" x="2073.4375" y="993.6646">Track Serivce</text><rect fill="#FFB86C" height="103.418" style="stroke:#FFB86C;stroke-width:1.5625;" width="343.75" x="2735.9375" y="926.6113"/><text fill="#000000" font-family="sans-serif" font-size="37.5" lengthAdjust="spacing" textLength="287.5" x="2764.0625" y="993.6646">Track Repository</text><rect fill="#FFB86C" height="103.418" style="stroke:#FFB86C;stroke-width:1.5625;" width="265.625" x="3485.9375" y="926.6113"/><text fill="#000000" font-family="sans-serif" font-size="37.5" lengthAdjust="spacing" textLength="209.375" x="3514.0625" y="993.6646">DataContext</text><text fill="#000000" font-family="sans-serif" font-size="37.5" lengthAdjust="spacing" textLength="168.75" x="4070.3125" y="1018.6646">Database</text><path d="M4107.8125,860.9863 C4107.8125,829.7363 4164.0625,829.7363 4164.0625,829.7363 C4164.0625,829.7363 4220.3125,829.7363 4220.3125,860.9863 L4220.3125,942.2363 C4220.3125,973.4863 4164.0625,973.4863 4164.0625,973.4863 C4164.0625,973.4863 4107.8125,973.4863 4107.8125,942.2363 L4107.8125,860.9863 " fill="#FFB86C" style="stroke:#282A36;stroke-width:4.6875;"/><path d="M4107.8125,860.9863 C4107.8125,892.2363 4164.0625,892.2363 4164.0625,892.2363 C4164.0625,892.2363 4220.3125,892.2363 4220.3125,860.9863 " fill="none" style="stroke:#282A36;stroke-width:4.6875;"/><rect fill="#F8F8F2" height="1990.5273" style="stroke:#F8F8F2;stroke-width:3.125;" width="31.25" x="381.25" y="1142.8223"/><rect fill="#F8F8F2" height="611.7188" style="stroke:#F8F8F2;stroke-width:3.125;" width="31.25" x="1459.375" y="1064.4043"/><rect fill="#F8F8F2" height="683.3008" style="stroke:#F8F8F2;stroke-width:3.125;" width="31.25" x="1459.375" y="2400.0488"/><rect fill="#F8F8F2" height="103.418" style="stroke:#F8F8F2;stroke-width:3.125;" width="31.25" x="2171.875" y="1676.123"/><rect fill="#F8F8F2" height="103.418" style="stroke:#F8F8F2;stroke-width:3.125;" width="31.25" x="2171.875" y="2296.6309"/><rect fill="#F8F8F2" height="103.418" style="stroke:#F8F8F2;stroke-width:3.125;" width="31.25" x="2892.1875" y="1779.541"/><rect fill="#F8F8F2" height="103.418" style="stroke:#F8F8F2;stroke-width:3.125;" width="31.25" x="2892.1875" y="2193.2129"/><rect fill="#F8F8F2" height="103.418" style="stroke:#F8F8F2;stroke-width:3.125;" width="31.25" x="3603.125" y="1882.959"/><rect fill="#F8F8F2" height="103.418" style="stroke:#F8F8F2;stroke-width:3.125;" width="31.25" x="3603.125" y="2089.7949"/><rect fill="#F8F8F2" height="103.418" style="stroke:#F8F8F2;stroke-width:3.125;" width="31.25" x="4148.4375" y="1986.377"/><polygon fill="#FFB86C" points="343.75,1130.3223,375,1142.8223,343.75,1155.3223" style="stroke:#FFB86C;stroke-width:3.125;"/><line style="stroke:#FFB86C;stroke-width:9.375;" x1="73.4375" x2="362.5" y1="1142.8223" y2="1142.8223"/><text fill="#F1FA8C" font-family="sans-serif" font-size="37.5" lengthAdjust="spacing" textLength="206.25" x="101.5625" y="1122.0825">View Tracks</text><polygon fill="#FFB86C" points="1421.875,1233.7402,1453.125,1246.2402,1421.875,1258.7402" style="stroke:#FFB86C;stroke-width:3.125;"/><line style="stroke:#FFB86C;stroke-width:9.375;" x1="412.5" x2="1440.625" y1="1246.2402" y2="1246.2402"/><text fill="#FF79C6" font-family="sans-serif" font-size="37.5" lengthAdjust="spacing" textLength="228.125" x="440.625" y="1225.5005">GetAllTracks(</text><text fill="#FF79C6" font-family="sans-serif" font-size="37.5" lengthAdjust="spacing" textLength="12.5" x="668.75" y="1225.5005">)</text><path d="M225,1293.1152 L434.375,1293.1152 L434.375,1327.7832 L403.125,1359.0332 L225,1359.0332 L225,1293.1152 " fill="#FF5555" style="stroke:#FF5555;stroke-width:4.6875;"/><rect fill="none" height="182.1289" style="stroke:#FF5555;stroke-width:3.125;" width="1539.0625" x="225" y="1293.1152"/><text fill="#282A36" font-family="sans-serif" font-size="37.5" font-weight="bold" lengthAdjust="spacing" textLength="56.25" x="278.125" y="1341.4185">opt</text><text fill="#FF5555" font-family="sans-serif" font-size="37.5" font-weight="bold" lengthAdjust="spacing" textLength="403.125" x="487.5" y="1344.5435">[if Trackservice is null]</text><polygon fill="#FFB86C" points="446.875,1437.7441,415.625,1450.2441,446.875,1462.7441" style="stroke:#FFB86C;stroke-width:3.125;"/><line style="stroke:#FFB86C;stroke-width:9.375;stroke-dasharray:2.0,2.0;" x1="428.125" x2="1456.25" y1="1450.2441" y2="1450.2441"/><text fill="#FF79C6" font-family="sans-serif" font-size="37.5" lengthAdjust="spacing" textLength="456.25" x="471.875" y="1429.5044">InvalidOperationException(</text><text fill="#F8F8F2" font-family="sans-serif" font-size="37.5" lengthAdjust="spacing" textLength="506.25" x="928.125" y="1429.5044">Track service is not initialized.</text><text fill="#FF79C6" font-family="sans-serif" font-size="37.5" lengthAdjust="spacing" textLength="12.5" x="1434.375" y="1429.5044">)</text><path d="M225,1518.9941 L421.875,1518.9941 L421.875,1553.6621 L390.625,1584.9121 L225,1584.9121 L225,1518.9941 " fill="#FF5555" style="stroke:#FF5555;stroke-width:4.6875;"/><rect fill="none" height="1589.3555" style="stroke:#FF5555;stroke-width:3.125;" width="4070.3125" x="225" y="1518.9941"/><text fill="#282A36" font-family="sans-serif" font-size="37.5" font-weight="bold" lengthAdjust="spacing" textLength="43.75" x="278.125" y="1567.2974">alt</text><text fill="#FF5555" font-family="sans-serif" font-size="37.5" font-weight="bold" lengthAdjust="spacing" textLength="356.25" x="475" y="1570.4224">[Try Block Success]</text><polygon fill="#FFB86C" points="2134.375,1663.623,2165.625,1676.123,2134.375,1688.623" style="stroke:#FFB86C;stroke-width:3.125;"/><line style="stroke:#FFB86C;stroke-width:9.375;" x1="1475" x2="2153.125" y1="1676.123" y2="1676.123"/><text fill="#FF79C6" font-family="sans-serif" font-size="37.5" lengthAdjust="spacing" textLength="328.125" x="1503.125" y="1655.3833">GetAllTracksAsync(</text><text fill="#FF79C6" font-family="sans-serif" font-size="37.5" lengthAdjust="spacing" textLength="12.5" x="1831.25" y="1655.3833">)</text><polygon fill="#FFB86C" points="2854.6875,1767.041,2885.9375,1779.541,2854.6875,1792.041" style="stroke:#FFB86C;stroke-width:3.125;"/><line style="stroke:#FFB86C;stroke-width:9.375;" x1="2187.5" x2="2873.4375" y1="1779.541" y2="1779.541"/><text fill="#FF79C6" font-family="sans-serif" font-size="37.5" lengthAdjust="spacing" textLength="212.5" x="2215.625" y="1758.8013">GetAllAsync(</text><text fill="#FF79C6" font-family="sans-serif" font-size="37.5" lengthAdjust="spacing" textLength="12.5" x="2428.125" y="1758.8013">)</text><polygon fill="#FFB86C" points="3565.625,1870.459,3596.875,1882.959,3565.625,1895.459" style="stroke:#FFB86C;stroke-width:3.125;"/><line style="stroke:#FFB86C;stroke-width:9.375;" x1="2907.8125" x2="3584.375" y1="1882.959" y2="1882.959"/><text fill="#FF79C6" font-family="sans-serif" font-size="37.5" lengthAdjust="spacing" textLength="212.5" x="2935.9375" y="1862.2192">GetAllAsync(</text><text fill="#FF79C6" font-family="sans-serif" font-size="37.5" lengthAdjust="spacing" textLength="12.5" x="3148.4375" y="1862.2192">)</text><polygon fill="#FFB86C" points="4110.9375,1973.877,4142.1875,1986.377,4110.9375,1998.877" style="stroke:#FFB86C;stroke-width:3.125;"/><line style="stroke:#FFB86C;stroke-width:9.375;" x1="3618.75" x2="4129.6875" y1="1986.377" y2="1986.377"/><text fill="#F1FA8C" font-family="sans-serif" font-size="37.5" lengthAdjust="spacing" textLength="246.875" x="3646.875" y="1965.6372">Database Call</text><polygon fill="#FFB86C" points="3668.75,2077.2949,3637.5,2089.7949,3668.75,2102.2949" style="stroke:#FFB86C;stroke-width:3.125;"/><line style="stroke:#FFB86C;stroke-width:9.375;stroke-dasharray:2.0,2.0;" x1="3650" x2="4160.9375" y1="2089.7949" y2="2089.7949"/><text fill="#F1FA8C" font-family="sans-serif" font-size="37.5" lengthAdjust="spacing" textLength="165.625" x="3693.75" y="2069.0552">All Tracks</text><polygon fill="#FFB86C" points="2957.8125,2180.7129,2926.5625,2193.2129,2957.8125,2205.7129" style="stroke:#FFB86C;stroke-width:3.125;"/><line style="stroke:#FFB86C;stroke-width:9.375;stroke-dasharray:2.0,2.0;" x1="2939.0625" x2="3615.625" y1="2193.2129" y2="2193.2129"/><text fill="#F1FA8C" font-family="sans-serif" font-size="37.5" lengthAdjust="spacing" textLength="165.625" x="2982.8125" y="2172.4731">All Tracks</text><polygon fill="#FFB86C" points="2237.5,2284.1309,2206.25,2296.6309,2237.5,2309.1309" style="stroke:#FFB86C;stroke-width:3.125;"/><line style="stroke:#FFB86C;stroke-width:9.375;stroke-dasharray:2.0,2.0;" x1="2218.75" x2="2904.6875" y1="2296.6309" y2="2296.6309"/><text fill="#F1FA8C" font-family="sans-serif" font-size="37.5" lengthAdjust="spacing" textLength="234.375" x="2262.5" y="2275.8911">A list of tracks</text><polygon fill="#FFB86C" points="1525,2387.5488,1493.75,2400.0488,1525,2412.5488" style="stroke:#FFB86C;stroke-width:3.125;"/><line style="stroke:#FFB86C;stroke-width:9.375;stroke-dasharray:2.0,2.0;" x1="1506.25" x2="2184.375" y1="2400.0488" y2="2400.0488"/><text fill="#F1FA8C" font-family="sans-serif" font-size="37.5" lengthAdjust="spacing" textLength="234.375" x="1550" y="2379.3091">A list of tracks</text><line style="stroke:#FFB86C;stroke-width:9.375;" x1="1490.625" x2="1621.875" y1="2503.4668" y2="2503.4668"/><line style="stroke:#FFB86C;stroke-width:9.375;" x1="1621.875" x2="1621.875" y1="2503.4668" y2="2544.0918"/><line style="stroke:#FFB86C;stroke-width:9.375;" x1="1493.75" x2="1621.875" y1="2544.0918" y2="2544.0918"/><polygon fill="#FFB86C" points="1525,2531.5918,1493.75,2544.0918,1525,2556.5918" style="stroke:#FFB86C;stroke-width:3.125;"/><text fill="#F1FA8C" font-family="sans-serif" font-size="37.5" lengthAdjust="spacing" textLength="378.125" x="1518.75" y="2482.7271">Create trackDto object</text><path d="M1185.9375,2590.9668 L1414.0625,2590.9668 L1414.0625,2625.6348 L1382.8125,2656.8848 L1185.9375,2656.8848 L1185.9375,2590.9668 " fill="#FF5555" style="stroke:#FF5555;stroke-width:4.6875;"/><rect fill="none" height="222.7539" style="stroke:#FF5555;stroke-width:3.125;" width="743.75" x="1185.9375" y="2590.9668"/><text fill="#282A36" font-family="sans-serif" font-size="37.5" font-weight="bold" lengthAdjust="spacing" textLength="75" x="1239.0625" y="2639.27">loop</text><text fill="#FF5555" font-family="sans-serif" font-size="37.5" font-weight="bold" lengthAdjust="spacing" textLength="440.625" x="1467.1875" y="2642.395">[for each track in tracks]</text><line style="stroke:#FFB86C;stroke-width:9.375;" x1="1490.625" x2="1621.875" y1="2748.0957" y2="2748.0957"/><line style="stroke:#FFB86C;stroke-width:9.375;" x1="1621.875" x2="1621.875" y1="2748.0957" y2="2788.7207"/><line style="stroke:#FFB86C;stroke-width:9.375;" x1="1493.75" x2="1621.875" y1="2788.7207" y2="2788.7207"/><polygon fill="#FFB86C" points="1525,2776.2207,1493.75,2788.7207,1525,2801.2207" style="stroke:#FFB86C;stroke-width:3.125;"/><text fill="#FF79C6" font-family="sans-serif" font-size="37.5" lengthAdjust="spacing" textLength="78.125" x="1518.75" y="2727.356">Add(</text><text fill="#F8F8F2" font-family="sans-serif" font-size="37.5" lengthAdjust="spacing" textLength="153.125" x="1596.875" y="2727.356">TrackDto</text><text fill="#FF79C6" font-family="sans-serif" font-size="37.5" lengthAdjust="spacing" textLength="12.5" x="1750" y="2727.356">)</text><polygon fill="#FFB86C" points="446.875,2901.5137,415.625,2914.0137,446.875,2926.5137" style="stroke:#FFB86C;stroke-width:3.125;"/><line style="stroke:#FFB86C;stroke-width:9.375;stroke-dasharray:2.0,2.0;" x1="428.125" x2="1456.25" y1="2914.0137" y2="2914.0137"/><text fill="#FF79C6" font-family="sans-serif" font-size="37.5" lengthAdjust="spacing" textLength="65.625" x="471.875" y="2893.2739">OK(</text><text fill="#F8F8F2" font-family="sans-serif" font-size="37.5" lengthAdjust="spacing" textLength="162.5" x="537.5" y="2893.2739">trackDtos</text><text fill="#FF79C6" font-family="sans-serif" font-size="37.5" lengthAdjust="spacing" textLength="12.5" x="700" y="2893.2739">)</text><line style="stroke:#FF5555;stroke-width:3.125;stroke-dasharray:2.0,2.0;" x1="225" x2="4295.3125" y1="2942.1387" y2="2942.1387"/><text fill="#FF5555" font-family="sans-serif" font-size="37.5" font-weight="bold" lengthAdjust="spacing" textLength="303.125" x="246.875" y="2987.3169">[Try Block Failed]</text><polygon fill="#FFB86C" points="446.875,3070.8496,415.625,3083.3496,446.875,3095.8496" style="stroke:#FFB86C;stroke-width:3.125;"/><line style="stroke:#FFB86C;stroke-width:9.375;stroke-dasharray:2.0,2.0;" x1="428.125" x2="1471.875" y1="3083.3496" y2="3083.3496"/><text fill="#FF79C6" font-family="sans-serif" font-size="37.5" lengthAdjust="spacing" textLength="215.625" x="471.875" y="3062.6099">StatusCode(</text><text fill="#F8F8F2" font-family="sans-serif" font-size="37.5" lengthAdjust="spacing" textLength="65.625" x="687.5" y="3062.6099">500</text><text fill="#FF79C6" font-family="sans-serif" font-size="37.5" lengthAdjust="spacing" textLength="12.5" x="753.125" y="3062.6099">)</text><rect fill="none" height="503.9551" id="_legend" style="stroke:#FF5555;stroke-width:9.375;" width="571.875" x="1899.2188" y="209.8633"/><text fill="#F8F8F2" font-family="sans-serif" font-size="43.75" font-weight="bold" lengthAdjust="spacing" textLength="259.375" x="1921.0938" y="277.1545">Sporbarhed</text><text fill="#F8F8F2" font-family="sans-serif" font-size="43.75" lengthAdjust="spacing" textLength="12.5" x="1921.0938" y="332.1838">&#160;</text><text fill="#F8F8F2" font-family="sans-serif" font-size="43.75" lengthAdjust="spacing" textLength="153.125" x="1927.3438" y="399.7131">Artefakt</text><text fill="#F8F8F2" font-family="sans-serif" font-size="43.75" lengthAdjust="spacing" textLength="100" x="2105.4688" y="399.7131">Navn</text><text fill="#F8F8F2" font-family="sans-serif" font-size="43.75" lengthAdjust="spacing" textLength="59.375" x="1927.3438" y="467.2424">UC</text><text fill="#F8F8F2" font-family="sans-serif" font-size="43.75" lengthAdjust="spacing" textLength="278.125" x="2105.4688" y="467.2424">Ser alle baner</text><text fill="#F8F8F2" font-family="sans-serif" font-size="43.75" lengthAdjust="spacing" textLength="87.5" x="1927.3438" y="534.7717">SSD</text><text fill="#F8F8F2" font-family="sans-serif" font-size="43.75" lengthAdjust="spacing" textLength="268.75" x="2105.4688" y="534.7717">Se Alle Baner</text><text fill="#F8F8F2" font-family="sans-serif" font-size="43.75" lengthAdjust="spacing" textLength="65.625" x="1927.3438" y="602.301">OC</text><text fill="#F8F8F2" font-family="sans-serif" font-size="43.75" lengthAdjust="spacing" textLength="262.5" x="2105.4688" y="602.301">Se alle baner</text><text fill="#F8F8F2" font-family="sans-serif" font-size="43.75" font-weight="bold" lengthAdjust="spacing" textLength="59.375" x="1927.3438" y="669.8303">SD</text><text fill="#F8F8F2" font-family="sans-serif" font-size="43.75" lengthAdjust="spacing" textLength="12.5" x="2092.9688" y="669.8303">&#160;</text><text fill="#F8F8F2" font-family="sans-serif" font-size="43.75" font-weight="bold" lengthAdjust="spacing" textLength="325" x="2105.4688" y="669.8303">View All Tracks</text><text fill="#F8F8F2" font-family="sans-serif" font-size="43.75" lengthAdjust="spacing" textLength="12.5" x="2430.4688" y="669.8303">&#160;</text><line style="stroke:#F8F8F2;stroke-width:3.125;" x1="1921.0938" x2="2449.2188" y1="348.0469" y2="348.0469"/><line style="stroke:#F8F8F2;stroke-width:3.125;" x1="1921.0938" x2="2449.2188" y1="415.5762" y2="415.5762"/><line style="stroke:#F8F8F2;stroke-width:3.125;" x1="1921.0938" x2="2449.2188" y1="483.1055" y2="483.1055"/><line style="stroke:#F8F8F2;stroke-width:3.125;" x1="1921.0938" x2="2449.2188" y1="550.6348" y2="550.6348"/><line style="stroke:#F8F8F2;stroke-width:3.125;" x1="1921.0938" x2="2449.2188" y1="618.1641" y2="618.1641"/><line style="stroke:#F8F8F2;stroke-width:3.125;" x1="1921.0938" x2="2449.2188" y1="685.6934" y2="685.6934"/><line style="stroke:#F8F8F2;stroke-width:3.125;" x1="1921.0938" x2="1921.0938" y1="348.0469" y2="685.6934"/><line style="stroke:#F8F8F2;stroke-width:3.125;" x1="2086.7188" x2="2086.7188" y1="348.0469" y2="685.6934"/><line style="stroke:#F8F8F2;stroke-width:3.125;" x1="2449.2188" x2="2449.2188" y1="348.0469" y2="685.6934"/><!--SRC=[ZPN1Sjem48RlUeejmw5uc4mkVG23smxJQPC9fRrm4VQIg16IHn8KEZnyLx9Z9319RcQr-lxLxY_XX9C8lmJ-XLnA-6bu-Mo1INn4LO7JDSkoUQtDYfidhBACiMDk7Axvipl23xvJS6J7nVG8SpJ09R5MNA6Xu7nU-AZ78apQu5t8J1D9eCYo8sJPMHbPHd1VHbiD- -2US8DGqEfMSbWRlO52Fsytg1ntGglbl4J5ZK2p38hB0dSeTUqJF7nPJ0l6IwSDB2mQjj9x61JwCQ_hcz-u6h2Q6oTAKNFbOB2O3O1RMCn24PIRvEVtixFyK3LCjN96qm5Ds1s2frWlYdgt4oNQ0Rk_vD6Ys9LuWhNPlQG7hBKLTBv3RstHSeVpiLvMmHq_gyY7_5bmxm8W-jrkfS2AMnomglsAOc77fDDYR7WlkL3VqLh-Y1_zHCRKxN5ZnyO38pykiUCE_Ho6NIvbdNLs35_HaNcQVMCOCLqx4EiMr3GDX0MrbP8D7z1jZOfu5xYPsd4fghiQJJ3Nvts9jVzefI5cQf9ImWdQyG-hcv4_vQdqSnDmwIXsW8dKViBRaePlJwSxBoKUUthCt1vKEHwn2gzh9GilvacrEdRdY1UPHW0k5Lv0QJIOAMKtjCWfRw83f0l57aiDap2BIICIF3Ub1oRXnf1JSD82KozSO4ylKigSl5PaohpMYMleldAZ1bzJw9jZ3b9O1teDxbAefz-fJQufnHSbbNvRhzywaMNJCVVhnO6fGOy9UeNJe5T_i7GZ9hMkOKsFFHNmr2pJBMthkdxTBWNogcgZX6_kzZiUaBjluwucQWDAYz6j_yA5n7TnvlJdjhLJNL5tFztUldhRVMdiFm00]--></g></svg>