<?xml version="1.0" encoding="us-ascii" standalone="no"?><svg xmlns="http://www.w3.org/2000/svg" xmlns:xlink="http://www.w3.org/1999/xlink" contentStyleType="text/css" height="4034.375px" preserveAspectRatio="none" style="width:7343px;height:4034px;background:#282A36;" version="1.1" viewBox="0 0 7343 4034" width="7343.75px" zoomAndPan="magnify"><defs/><g><rect fill="#282A36" height="4034.375" style="stroke:none;stroke-width:3.125;" width="7343.75" x="0" y="0"/><text fill="#F8F8F2" font-family="sans-serif" font-size="62.5" font-weight="bold" lengthAdjust="spacing" textLength="471.875" x="3414.8438" y="102.3804">Baner Scenariet</text><!--cluster Logical View--><g id="cluster_Logical View"><polygon fill="#282A36" points="3704.6875,2003.6133,3960.9375,2003.6133,3982.8125,2082.0313,7292.1875,2082.0313,7292.1875,3941.1133,3704.6875,3941.1133,3704.6875,2003.6133" style="stroke:#FF5555;stroke-width:9.375;"/><line style="stroke:#FF5555;stroke-width:9.375;" x1="3704.6875" x2="3982.8125" y1="2082.0313" y2="2082.0313"/><text fill="#F8F8F2" font-family="sans-serif" font-size="37.5" font-weight="bold" lengthAdjust="spacing" textLength="225" x="3723.4375" y="2055.0415">Logical View</text></g><!--cluster Usecase Diagram--><g id="cluster_Usecase Diagram"><polygon fill="#282A36" points="3885.9375,3544.2383,4232.8125,3544.2383,4254.6875,3622.6563,4354.6875,3622.6563,4354.6875,3866.1133,3885.9375,3866.1133,3885.9375,3544.2383" style="stroke:#FF5555;stroke-width:9.375;"/><line style="stroke:#FF5555;stroke-width:9.375;" x1="3885.9375" x2="4254.6875" y1="3622.6563" y2="3622.6563"/><text fill="#F8F8F2" font-family="sans-serif" font-size="37.5" font-weight="bold" lengthAdjust="spacing" textLength="315.625" x="3904.6875" y="3595.6665">Usecase Diagram</text></g><!--cluster Misbrugstilf?lde--><g id="cluster_Misbrugstilf&#230;lde"><polygon fill="#282A36" points="6642.1875,2612.9883,6970.3125,2612.9883,6992.1875,2691.4063,7217.1875,2691.4063,7217.1875,2934.8633,6642.1875,2934.8633,6642.1875,2612.9883" style="stroke:#FF5555;stroke-width:9.375;"/><line style="stroke:#FF5555;stroke-width:9.375;" x1="6642.1875" x2="6992.1875" y1="2691.4063" y2="2691.4063"/><text fill="#F8F8F2" font-family="sans-serif" font-size="37.5" font-weight="bold" lengthAdjust="spacing" textLength="296.875" x="6660.9375" y="2664.4165">Misbrugstilf&#230;lde</text></g><!--cluster UseCases--><g id="cluster_UseCases"><polygon fill="#282A36" points="4095.3125,3053.6133,4317.1875,3053.6133,4339.0625,3132.0313,7192.1875,3132.0313,7192.1875,3425.4883,4095.3125,3425.4883,4095.3125,3053.6133" style="stroke:#FF5555;stroke-width:9.375;"/><line style="stroke:#FF5555;stroke-width:9.375;" x1="4095.3125" x2="4339.0625" y1="3132.0313" y2="3132.0313"/><text fill="#F8F8F2" font-family="sans-serif" font-size="37.5" font-weight="bold" lengthAdjust="spacing" textLength="190.625" x="4114.0625" y="3105.0415">Use Cases</text></g><!--cluster System Sequence Diagram--><g id="cluster_System Sequence Diagram"><polygon fill="#282A36" points="4160.9375,2147.3633,4673.4375,2147.3633,4695.3125,2225.7813,7217.1875,2225.7813,7217.1875,2469.2383,4160.9375,2469.2383,4160.9375,2147.3633" style="stroke:#FF5555;stroke-width:9.375;"/><line style="stroke:#FF5555;stroke-width:9.375;" x1="4160.9375" x2="4695.3125" y1="2225.7813" y2="2225.7813"/><text fill="#F8F8F2" font-family="sans-serif" font-size="37.5" font-weight="bold" lengthAdjust="spacing" textLength="481.25" x="4179.6875" y="2198.7915">System Sequence Diagram</text></g><!--cluster Development View--><g id="cluster_Development View"><polygon fill="#282A36" points="945.3125,175.4883,1304.6875,175.4883,1326.5625,253.9063,5545.3125,253.9063,5545.3125,1928.6133,945.3125,1928.6133,945.3125,175.4883" style="stroke:#FF5555;stroke-width:9.375;"/><line style="stroke:#FF5555;stroke-width:9.375;" x1="945.3125" x2="1326.5625" y1="253.9063" y2="253.9063"/><text fill="#F8F8F2" font-family="sans-serif" font-size="37.5" font-weight="bold" lengthAdjust="spacing" textLength="328.125" x="964.0625" y="226.9165">Development View</text></g><!--cluster DB--><g id="cluster_DB"><polygon fill="#282A36" points="1776.5625,959.8633,1976.5625,959.8633,1998.4375,1038.2813,2314.0625,1038.2813,2314.0625,1331.7383,1776.5625,1331.7383,1776.5625,959.8633" style="stroke:#FF5555;stroke-width:9.375;"/><line style="stroke:#FF5555;stroke-width:9.375;" x1="1776.5625" x2="1998.4375" y1="1038.2813" y2="1038.2813"/><text fill="#F8F8F2" font-family="sans-serif" font-size="37.5" font-weight="bold" lengthAdjust="spacing" textLength="168.75" x="1795.3125" y="1011.2915">Database</text></g><!--cluster DCDpackage--><g id="cluster_DCDpackage"><polygon fill="#282A36" points="1323.4375,437.9883,1739.0625,437.9883,1760.9375,516.4063,1770.3125,516.4063,1770.3125,809.8633,1323.4375,809.8633,1323.4375,437.9883" style="stroke:#FF5555;stroke-width:9.375;"/><line style="stroke:#FF5555;stroke-width:9.375;" x1="1323.4375" x2="1760.9375" y1="516.4063" y2="516.4063"/><text fill="#F8F8F2" font-family="sans-serif" font-size="37.5" font-weight="bold" lengthAdjust="spacing" textLength="384.375" x="1342.1875" y="489.4165">Design class diagram</text></g><!--cluster Operation Contracts--><g id="cluster_Operation Contracts"><polygon fill="#282A36" points="2414.0625,984.8633,2804.6875,984.8633,2826.5625,1063.2813,5470.3125,1063.2813,5470.3125,1306.7383,2414.0625,1306.7383,2414.0625,984.8633" style="stroke:#FF5555;stroke-width:9.375;"/><line style="stroke:#FF5555;stroke-width:9.375;" x1="2414.0625" x2="2826.5625" y1="1063.2813" y2="1063.2813"/><text fill="#F8F8F2" font-family="sans-serif" font-size="37.5" font-weight="bold" lengthAdjust="spacing" textLength="359.375" x="2432.8125" y="1036.2915">Operation Contracts</text></g><!--cluster DM--><g id="cluster_DM"><polygon fill="#282A36" points="1045.3125,959.8633,1351.5625,959.8633,1373.4375,1038.2813,1651.5625,1038.2813,1651.5625,1331.7383,1045.3125,1331.7383,1045.3125,959.8633" style="stroke:#FF5555;stroke-width:9.375;"/><line style="stroke:#FF5555;stroke-width:9.375;" x1="1045.3125" x2="1373.4375" y1="1038.2813" y2="1038.2813"/><text fill="#F8F8F2" font-family="sans-serif" font-size="37.5" font-weight="bold" lengthAdjust="spacing" textLength="275" x="1064.0625" y="1011.2915">Dom&#230;ne Model</text></g><!--cluster OM--><g id="cluster_OM"><polygon fill="#282A36" points="1045.3125,1456.7383,1307.8125,1456.7383,1329.6875,1535.1563,1589.0625,1535.1563,1589.0625,1828.6133,1045.3125,1828.6133,1045.3125,1456.7383" style="stroke:#FF5555;stroke-width:9.375;"/><line style="stroke:#FF5555;stroke-width:9.375;" x1="1045.3125" x2="1329.6875" y1="1535.1563" y2="1535.1563"/><text fill="#F8F8F2" font-family="sans-serif" font-size="37.5" font-weight="bold" lengthAdjust="spacing" textLength="231.25" x="1064.0625" y="1508.1665">Object Model</text></g><!--cluster SD--><g id="cluster_SD"><polygon fill="#282A36" points="2151.5625,319.2383,2520.3125,319.2383,2542.1875,397.6563,5470.3125,397.6563,5470.3125,859.8633,2151.5625,859.8633,2151.5625,319.2383" style="stroke:#FF5555;stroke-width:9.375;"/><line style="stroke:#FF5555;stroke-width:9.375;" x1="2151.5625" x2="2542.1875" y1="397.6563" y2="397.6563"/><text fill="#F8F8F2" font-family="sans-serif" font-size="37.5" font-weight="bold" lengthAdjust="spacing" textLength="337.5" x="2170.3125" y="370.6665">Sequence Diagram</text></g><!--cluster OpdaterBaneSD--><g id="cluster_OpdaterBaneSD"><polygon fill="#282A36" points="2226.5625,462.9883,2510.9375,462.9883,2532.8125,541.4063,5395.3125,541.4063,5395.3125,784.8633,2226.5625,784.8633,2226.5625,462.9883" style="stroke:#FF5555;stroke-width:9.375;"/><line style="stroke:#FF5555;stroke-width:9.375;" x1="2226.5625" x2="2532.8125" y1="541.4063" y2="541.4063"/><text fill="#F8F8F2" font-family="sans-serif" font-size="37.5" font-weight="bold" lengthAdjust="spacing" textLength="253.125" x="2245.3125" y="514.4165">Se Bane SD'er</text></g><!--entity Wireframes--><g id="elem_Wireframes"><path d="M3767.1875,2277.0508 L4023.4375,2277.0508 A18.75,18.75 0 0 1 4035.9375,2289.5508 L4057.8125,2355.4688 L4098.4375,2355.4688 A12.5,12.5 0 0 1 4110.9375,2367.9688 L4110.9375,2396.0938 A12.5,12.5 0 0 1 4098.4375,2408.5938 L3767.1875,2408.5938 A12.5,12.5 0 0 1 3754.6875,2396.0938 L3754.6875,2289.5508 A12.5,12.5 0 0 1 3767.1875,2277.0508 " fill="#282A36" style="stroke:#FF5555;stroke-width:9.375;"/><line style="stroke:#FF5555;stroke-width:9.375;" x1="3754.6875" x2="4057.8125" y1="2355.4688" y2="2355.4688"/><text fill="#F8F8F2" font-family="sans-serif" font-size="37.5" font-weight="bold" lengthAdjust="spacing" textLength="212.5" x="3792.1875" y="2331.604">Wireframes</text></g><!--entity UC_Diagram--><g id="elem_UC_Diagram"><rect fill="#50FA7B" height="153.418" rx="12.5" ry="12.5" style="stroke:#F8F8F2;stroke-width:0.0;" width="365.625" x="3937.5" y="3662.9883"/><rect fill="#50FA7B" height="31.25" style="stroke:#F8F8F2;stroke-width:0.0;" width="46.875" x="4240.625" y="3678.6133"/><rect fill="#50FA7B" height="6.25" style="stroke:#F8F8F2;stroke-width:0.0;" width="12.5" x="4234.375" y="3684.8633"/><rect fill="#50FA7B" height="6.25" style="stroke:#F8F8F2;stroke-width:0.0;" width="12.5" x="4234.375" y="3697.3633"/><text fill="#000000" font-family="sans-serif" font-size="37.5" lengthAdjust="spacing" textLength="228.125" x="3990.625" y="3770.6665">UC_Diagram</text></g><!--entity MBT_OpretterBaner--><g id="elem_MBT_OpretterBaner"><rect fill="#FF5555" height="153.418" rx="12.5" ry="12.5" style="stroke:#F8F8F2;stroke-width:0.0;" width="475" x="6692.1875" y="2731.7383"/><rect fill="#FF5555" height="31.25" style="stroke:#F8F8F2;stroke-width:0.0;" width="46.875" x="7104.6875" y="2747.3633"/><rect fill="#FF5555" height="6.25" style="stroke:#F8F8F2;stroke-width:0.0;" width="12.5" x="7098.4375" y="2753.6133"/><rect fill="#FF5555" height="6.25" style="stroke:#F8F8F2;stroke-width:0.0;" width="12.5" x="7098.4375" y="2766.1133"/><text fill="#000000" font-family="sans-serif" font-size="37.5" lengthAdjust="spacing" textLength="337.5" x="6745.3125" y="2839.4165">MBT_OpretterBaner</text></g><!--entity UC_OpdaterBane--><g id="elem_UC_OpdaterBane"><rect fill="#50FA7B" height="153.418" rx="12.5" ry="12.5" style="stroke:#F8F8F2;stroke-width:0.0;" width="443.75" x="5129.6875" y="3197.3633"/><rect fill="#50FA7B" height="31.25" style="stroke:#F8F8F2;stroke-width:0.0;" width="46.875" x="5510.9375" y="3212.9883"/><rect fill="#50FA7B" height="6.25" style="stroke:#F8F8F2;stroke-width:0.0;" width="12.5" x="5504.6875" y="3219.2383"/><rect fill="#50FA7B" height="6.25" style="stroke:#F8F8F2;stroke-width:0.0;" width="12.5" x="5504.6875" y="3231.7383"/><text fill="#000000" font-family="sans-serif" font-size="37.5" lengthAdjust="spacing" textLength="306.25" x="5182.8125" y="3305.0415">UC_OpdaterBane</text></g><!--entity UC_OpretterBane--><g id="elem_UC_OpretterBane"><rect fill="#50FA7B" height="153.418" rx="12.5" ry="12.5" style="stroke:#F8F8F2;stroke-width:0.0;" width="443.75" x="6673.4375" y="3197.3633"/><rect fill="#50FA7B" height="31.25" style="stroke:#F8F8F2;stroke-width:0.0;" width="46.875" x="7054.6875" y="3212.9883"/><rect fill="#50FA7B" height="6.25" style="stroke:#F8F8F2;stroke-width:0.0;" width="12.5" x="7048.4375" y="3219.2383"/><rect fill="#50FA7B" height="6.25" style="stroke:#F8F8F2;stroke-width:0.0;" width="12.5" x="7048.4375" y="3231.7383"/><text fill="#000000" font-family="sans-serif" font-size="37.5" lengthAdjust="spacing" textLength="306.25" x="6726.5625" y="3305.0415">UC_OpretterBane</text></g><!--entity UC_SeBane--><g id="elem_UC_SeBane"><rect fill="#50FA7B" height="153.418" rx="12.5" ry="12.5" style="stroke:#F8F8F2;stroke-width:0.0;" width="353.125" x="4681.25" y="3197.3633"/><rect fill="#50FA7B" height="31.25" style="stroke:#F8F8F2;stroke-width:0.0;" width="46.875" x="4971.875" y="3212.9883"/><rect fill="#50FA7B" height="6.25" style="stroke:#F8F8F2;stroke-width:0.0;" width="12.5" x="4965.625" y="3219.2383"/><rect fill="#50FA7B" height="6.25" style="stroke:#F8F8F2;stroke-width:0.0;" width="12.5" x="4965.625" y="3231.7383"/><text fill="#000000" font-family="sans-serif" font-size="37.5" lengthAdjust="spacing" textLength="215.625" x="4734.375" y="3305.0415">UC_SeBane</text></g><!--entity UC_SletBane--><g id="elem_UC_SletBane"><rect fill="#50FA7B" height="153.418" rx="12.5" ry="12.5" style="stroke:#F8F8F2;stroke-width:0.0;" width="371.875" x="4215.625" y="3197.3633"/><rect fill="#50FA7B" height="31.25" style="stroke:#F8F8F2;stroke-width:0.0;" width="46.875" x="4525" y="3212.9883"/><rect fill="#50FA7B" height="6.25" style="stroke:#F8F8F2;stroke-width:0.0;" width="12.5" x="4518.75" y="3219.2383"/><rect fill="#50FA7B" height="6.25" style="stroke:#F8F8F2;stroke-width:0.0;" width="12.5" x="4518.75" y="3231.7383"/><text fill="#000000" font-family="sans-serif" font-size="37.5" lengthAdjust="spacing" textLength="234.375" x="4268.75" y="3305.0415">UC_SletBane</text></g><!--entity UC_DeleBane--><g id="elem_UC_DeleBane"><rect fill="#50FA7B" height="153.418" rx="12.5" ry="12.5" style="stroke:#F8F8F2;stroke-width:0.0;" width="387.5" x="5667.1875" y="3197.3633"/><rect fill="#50FA7B" height="31.25" style="stroke:#F8F8F2;stroke-width:0.0;" width="46.875" x="5992.1875" y="3212.9883"/><rect fill="#50FA7B" height="6.25" style="stroke:#F8F8F2;stroke-width:0.0;" width="12.5" x="5985.9375" y="3219.2383"/><rect fill="#50FA7B" height="6.25" style="stroke:#F8F8F2;stroke-width:0.0;" width="12.5" x="5985.9375" y="3231.7383"/><text fill="#000000" font-family="sans-serif" font-size="37.5" lengthAdjust="spacing" textLength="250" x="5720.3125" y="3305.0415">UC_DeleBane</text></g><!--entity UC_SeAlleBaner--><g id="elem_UC_SeAlleBaner"><rect fill="#FF5555" height="153.418" rx="12.5" ry="12.5" style="stroke:#F8F8F2;stroke-width:0.0;" width="428.125" x="6150" y="3197.3633"/><rect fill="#FF5555" height="31.25" style="stroke:#F8F8F2;stroke-width:0.0;" width="46.875" x="6515.625" y="3212.9883"/><rect fill="#FF5555" height="6.25" style="stroke:#F8F8F2;stroke-width:0.0;" width="12.5" x="6509.375" y="3219.2383"/><rect fill="#FF5555" height="6.25" style="stroke:#F8F8F2;stroke-width:0.0;" width="12.5" x="6509.375" y="3231.7383"/><text fill="#000000" font-family="sans-serif" font-size="37.5" lengthAdjust="spacing" textLength="290.625" x="6203.125" y="3305.0415">UC_SeAlleBaner</text></g><!--entity ssd_Delebane--><g id="elem_ssd_Delebane"><rect fill="#50FA7B" height="153.418" rx="12.5" ry="12.5" style="stroke:#F8F8F2;stroke-width:0.0;" width="393.75" x="5692.1875" y="2266.1133"/><rect fill="#50FA7B" height="31.25" style="stroke:#F8F8F2;stroke-width:0.0;" width="46.875" x="6023.4375" y="2281.7383"/><rect fill="#50FA7B" height="6.25" style="stroke:#F8F8F2;stroke-width:0.0;" width="12.5" x="6017.1875" y="2287.9883"/><rect fill="#50FA7B" height="6.25" style="stroke:#F8F8F2;stroke-width:0.0;" width="12.5" x="6017.1875" y="2300.4883"/><text fill="#000000" font-family="sans-serif" font-size="37.5" lengthAdjust="spacing" textLength="256.25" x="5745.3125" y="2373.7915">ssd_Delebane</text></g><!--entity ssd_OpdaterBane--><g id="elem_ssd_OpdaterBane"><rect fill="#50FA7B" height="153.418" rx="12.5" ry="12.5" style="stroke:#F8F8F2;stroke-width:0.0;" width="453.125" x="5143.75" y="2266.1133"/><rect fill="#50FA7B" height="31.25" style="stroke:#F8F8F2;stroke-width:0.0;" width="46.875" x="5534.375" y="2281.7383"/><rect fill="#50FA7B" height="6.25" style="stroke:#F8F8F2;stroke-width:0.0;" width="12.5" x="5528.125" y="2287.9883"/><rect fill="#50FA7B" height="6.25" style="stroke:#F8F8F2;stroke-width:0.0;" width="12.5" x="5528.125" y="2300.4883"/><text fill="#000000" font-family="sans-serif" font-size="37.5" lengthAdjust="spacing" textLength="315.625" x="5196.875" y="2373.7915">ssd_OpdaterBane</text></g><!--entity ssd_OpretterBane--><g id="elem_ssd_OpretterBane"><rect fill="#50FA7B" height="153.418" rx="12.5" ry="12.5" style="stroke:#F8F8F2;stroke-width:0.0;" width="453.125" x="6712.5" y="2266.1133"/><rect fill="#50FA7B" height="31.25" style="stroke:#F8F8F2;stroke-width:0.0;" width="46.875" x="7103.125" y="2281.7383"/><rect fill="#50FA7B" height="6.25" style="stroke:#F8F8F2;stroke-width:0.0;" width="12.5" x="7096.875" y="2287.9883"/><rect fill="#50FA7B" height="6.25" style="stroke:#F8F8F2;stroke-width:0.0;" width="12.5" x="7096.875" y="2300.4883"/><text fill="#000000" font-family="sans-serif" font-size="37.5" lengthAdjust="spacing" textLength="315.625" x="6765.625" y="2373.7915">ssd_OpretterBane</text></g><!--entity ssd_SletBane--><g id="elem_ssd_SletBane"><rect fill="#50FA7B" height="153.418" rx="12.5" ry="12.5" style="stroke:#F8F8F2;stroke-width:0.0;" width="381.25" x="4210.9375" y="2266.1133"/><rect fill="#50FA7B" height="31.25" style="stroke:#F8F8F2;stroke-width:0.0;" width="46.875" x="4529.6875" y="2281.7383"/><rect fill="#50FA7B" height="6.25" style="stroke:#F8F8F2;stroke-width:0.0;" width="12.5" x="4523.4375" y="2287.9883"/><rect fill="#50FA7B" height="6.25" style="stroke:#F8F8F2;stroke-width:0.0;" width="12.5" x="4523.4375" y="2300.4883"/><text fill="#000000" font-family="sans-serif" font-size="37.5" lengthAdjust="spacing" textLength="243.75" x="4264.0625" y="2373.7915">ssd_SletBane</text></g><!--entity ssd_SeBane--><g id="elem_ssd_SeBane"><rect fill="#50FA7B" height="153.418" rx="12.5" ry="12.5" style="stroke:#F8F8F2;stroke-width:0.0;" width="362.5" x="4685.9375" y="2266.1133"/><rect fill="#50FA7B" height="31.25" style="stroke:#F8F8F2;stroke-width:0.0;" width="46.875" x="4985.9375" y="2281.7383"/><rect fill="#50FA7B" height="6.25" style="stroke:#F8F8F2;stroke-width:0.0;" width="12.5" x="4979.6875" y="2287.9883"/><rect fill="#50FA7B" height="6.25" style="stroke:#F8F8F2;stroke-width:0.0;" width="12.5" x="4979.6875" y="2300.4883"/><text fill="#000000" font-family="sans-serif" font-size="37.5" lengthAdjust="spacing" textLength="225" x="4739.0625" y="2373.7915">ssd_SeBane</text></g><!--entity ssd_SeAlleBaner--><g id="elem_ssd_SeAlleBaner"><rect fill="#50FA7B" height="153.418" rx="12.5" ry="12.5" style="stroke:#F8F8F2;stroke-width:0.0;" width="437.5" x="6179.6875" y="2266.1133"/><rect fill="#50FA7B" height="31.25" style="stroke:#F8F8F2;stroke-width:0.0;" width="46.875" x="6554.6875" y="2281.7383"/><rect fill="#50FA7B" height="6.25" style="stroke:#F8F8F2;stroke-width:0.0;" width="12.5" x="6548.4375" y="2287.9883"/><rect fill="#50FA7B" height="6.25" style="stroke:#F8F8F2;stroke-width:0.0;" width="12.5" x="6548.4375" y="2300.4883"/><text fill="#000000" font-family="sans-serif" font-size="37.5" lengthAdjust="spacing" textLength="300" x="6232.8125" y="2373.7915">ssd_SeAlleBaner</text></g><!--entity Entity Model--><g id="elem_Entity Model"><rect fill="#50FA7B" height="153.418" rx="12.5" ry="12.5" style="stroke:#F8F8F2;stroke-width:0.0;" width="340.625" x="1896.875" y="1103.6133"/><rect fill="#50FA7B" height="31.25" style="stroke:#F8F8F2;stroke-width:0.0;" width="46.875" x="2175" y="1119.2383"/><rect fill="#50FA7B" height="6.25" style="stroke:#F8F8F2;stroke-width:0.0;" width="12.5" x="2168.75" y="1125.4883"/><rect fill="#50FA7B" height="6.25" style="stroke:#F8F8F2;stroke-width:0.0;" width="12.5" x="2168.75" y="1137.9883"/><text fill="#000000" font-family="sans-serif" font-size="37.5" lengthAdjust="spacing" textLength="203.125" x="1950" y="1211.2915">Entity Model</text></g><!--entity DCD--><g id="elem_DCD"><rect fill="#F1FA8C" height="153.418" rx="12.5" ry="12.5" style="stroke:#F8F8F2;stroke-width:0.0;" width="221.875" x="1456.25" y="581.7383"/><rect fill="#F1FA8C" height="31.25" style="stroke:#F8F8F2;stroke-width:0.0;" width="46.875" x="1615.625" y="597.3633"/><rect fill="#F1FA8C" height="6.25" style="stroke:#F8F8F2;stroke-width:0.0;" width="12.5" x="1609.375" y="603.6133"/><rect fill="#F1FA8C" height="6.25" style="stroke:#F8F8F2;stroke-width:0.0;" width="12.5" x="1609.375" y="616.1133"/><text fill="#000000" font-family="sans-serif" font-size="37.5" lengthAdjust="spacing" textLength="84.375" x="1509.375" y="689.4165">DCD</text></g><!--entity OC_OpdaterBane--><g id="elem_OC_OpdaterBane"><rect fill="#50FA7B" height="153.418" rx="12.5" ry="12.5" style="stroke:#F8F8F2;stroke-width:0.0;" width="443.75" x="3423.4375" y="1103.6133"/><rect fill="#50FA7B" height="31.25" style="stroke:#F8F8F2;stroke-width:0.0;" width="46.875" x="3804.6875" y="1119.2383"/><rect fill="#50FA7B" height="6.25" style="stroke:#F8F8F2;stroke-width:0.0;" width="12.5" x="3798.4375" y="1125.4883"/><rect fill="#50FA7B" height="6.25" style="stroke:#F8F8F2;stroke-width:0.0;" width="12.5" x="3798.4375" y="1137.9883"/><text fill="#000000" font-family="sans-serif" font-size="37.5" lengthAdjust="spacing" textLength="306.25" x="3476.5625" y="1211.2915">OC_OpdaterBane</text></g><!--entity OC_Delerbane--><g id="elem_OC_Delerbane"><rect fill="#50FA7B" height="153.418" rx="12.5" ry="12.5" style="stroke:#F8F8F2;stroke-width:0.0;" width="396.875" x="3962.5" y="1103.6133"/><rect fill="#50FA7B" height="31.25" style="stroke:#F8F8F2;stroke-width:0.0;" width="46.875" x="4296.875" y="1119.2383"/><rect fill="#50FA7B" height="6.25" style="stroke:#F8F8F2;stroke-width:0.0;" width="12.5" x="4290.625" y="1125.4883"/><rect fill="#50FA7B" height="6.25" style="stroke:#F8F8F2;stroke-width:0.0;" width="12.5" x="4290.625" y="1137.9883"/><text fill="#000000" font-family="sans-serif" font-size="37.5" lengthAdjust="spacing" textLength="259.375" x="4015.625" y="1211.2915">OC_Delerbane</text></g><!--entity OC_OpretterBane--><g id="elem_OC_OpretterBane"><rect fill="#50FA7B" height="153.418" rx="12.5" ry="12.5" style="stroke:#F8F8F2;stroke-width:0.0;" width="443.75" x="4976.5625" y="1103.6133"/><rect fill="#50FA7B" height="31.25" style="stroke:#F8F8F2;stroke-width:0.0;" width="46.875" x="5357.8125" y="1119.2383"/><rect fill="#50FA7B" height="6.25" style="stroke:#F8F8F2;stroke-width:0.0;" width="12.5" x="5351.5625" y="1125.4883"/><rect fill="#50FA7B" height="6.25" style="stroke:#F8F8F2;stroke-width:0.0;" width="12.5" x="5351.5625" y="1137.9883"/><text fill="#000000" font-family="sans-serif" font-size="37.5" lengthAdjust="spacing" textLength="306.25" x="5029.6875" y="1211.2915">OC_OpretterBane</text></g><!--entity OC_SletterBane--><g id="elem_OC_SletterBane"><rect fill="#50FA7B" height="153.418" rx="12.5" ry="12.5" style="stroke:#F8F8F2;stroke-width:0.0;" width="415.625" x="2465.625" y="1103.6133"/><rect fill="#50FA7B" height="31.25" style="stroke:#F8F8F2;stroke-width:0.0;" width="46.875" x="2818.75" y="1119.2383"/><rect fill="#50FA7B" height="6.25" style="stroke:#F8F8F2;stroke-width:0.0;" width="12.5" x="2812.5" y="1125.4883"/><rect fill="#50FA7B" height="6.25" style="stroke:#F8F8F2;stroke-width:0.0;" width="12.5" x="2812.5" y="1137.9883"/><text fill="#000000" font-family="sans-serif" font-size="37.5" lengthAdjust="spacing" textLength="278.125" x="2518.75" y="1211.2915">OC_SletterBane</text></g><!--entity OC_SeBane--><g id="elem_OC_SeBane"><rect fill="#50FA7B" height="153.418" rx="12.5" ry="12.5" style="stroke:#F8F8F2;stroke-width:0.0;" width="353.125" x="2975" y="1103.6133"/><rect fill="#50FA7B" height="31.25" style="stroke:#F8F8F2;stroke-width:0.0;" width="46.875" x="3265.625" y="1119.2383"/><rect fill="#50FA7B" height="6.25" style="stroke:#F8F8F2;stroke-width:0.0;" width="12.5" x="3259.375" y="1125.4883"/><rect fill="#50FA7B" height="6.25" style="stroke:#F8F8F2;stroke-width:0.0;" width="12.5" x="3259.375" y="1137.9883"/><text fill="#000000" font-family="sans-serif" font-size="37.5" lengthAdjust="spacing" textLength="215.625" x="3028.125" y="1211.2915">OC_SeBane</text></g><!--entity OC_SeAlleBaner--><g id="elem_OC_SeAlleBaner"><rect fill="#FF5555" height="153.418" rx="12.5" ry="12.5" style="stroke:#F8F8F2;stroke-width:0.0;" width="428.125" x="4453.125" y="1103.6133"/><rect fill="#FF5555" height="31.25" style="stroke:#F8F8F2;stroke-width:0.0;" width="46.875" x="4818.75" y="1119.2383"/><rect fill="#FF5555" height="6.25" style="stroke:#F8F8F2;stroke-width:0.0;" width="12.5" x="4812.5" y="1125.4883"/><rect fill="#FF5555" height="6.25" style="stroke:#F8F8F2;stroke-width:0.0;" width="12.5" x="4812.5" y="1137.9883"/><text fill="#000000" font-family="sans-serif" font-size="37.5" lengthAdjust="spacing" textLength="290.625" x="4506.25" y="1211.2915">OC_SeAlleBaner</text></g><!--entity Dom?nemodel--><g id="elem_Dom&#230;nemodel"><rect fill="#50FA7B" height="153.418" rx="12.5" ry="12.5" style="stroke:#F8F8F2;stroke-width:0.0;" width="409.375" x="1165.625" y="1103.6133"/><rect fill="#50FA7B" height="31.25" style="stroke:#F8F8F2;stroke-width:0.0;" width="46.875" x="1512.5" y="1119.2383"/><rect fill="#50FA7B" height="6.25" style="stroke:#F8F8F2;stroke-width:0.0;" width="12.5" x="1506.25" y="1125.4883"/><rect fill="#50FA7B" height="6.25" style="stroke:#F8F8F2;stroke-width:0.0;" width="12.5" x="1506.25" y="1137.9883"/><text fill="#000000" font-family="sans-serif" font-size="37.5" lengthAdjust="spacing" textLength="271.875" x="1218.75" y="1211.2915">Dom&#230;nemodel</text></g><!--entity ObjectModel--><g id="elem_ObjectModel"><rect fill="#50FA7B" height="153.418" rx="12.5" ry="12.5" style="stroke:#F8F8F2;stroke-width:0.0;" width="350" x="1164.0625" y="1600.4883"/><rect fill="#50FA7B" height="31.25" style="stroke:#F8F8F2;stroke-width:0.0;" width="46.875" x="1451.5625" y="1616.1133"/><rect fill="#50FA7B" height="6.25" style="stroke:#F8F8F2;stroke-width:0.0;" width="12.5" x="1445.3125" y="1622.3633"/><rect fill="#50FA7B" height="6.25" style="stroke:#F8F8F2;stroke-width:0.0;" width="12.5" x="1445.3125" y="1634.8633"/><text fill="#000000" font-family="sans-serif" font-size="37.5" lengthAdjust="spacing" textLength="212.5" x="1217.1875" y="1708.1665">ObjectModel</text></g><!--entity SD_ViewOneTrack--><g id="elem_SD_ViewOneTrack"><rect fill="#50FA7B" height="153.418" rx="12.5" ry="12.5" style="stroke:#F8F8F2;stroke-width:0.0;" width="459.375" x="2790.625" y="581.7383"/><rect fill="#50FA7B" height="31.25" style="stroke:#F8F8F2;stroke-width:0.0;" width="46.875" x="3187.5" y="597.3633"/><rect fill="#50FA7B" height="6.25" style="stroke:#F8F8F2;stroke-width:0.0;" width="12.5" x="3181.25" y="603.6133"/><rect fill="#50FA7B" height="6.25" style="stroke:#F8F8F2;stroke-width:0.0;" width="12.5" x="3181.25" y="616.1133"/><text fill="#000000" font-family="sans-serif" font-size="37.5" lengthAdjust="spacing" textLength="321.875" x="2843.75" y="689.4165">SD_ViewOneTrack</text></g><!--entity SD_ViewAllTracks--><g id="elem_SD_ViewAllTracks"><rect fill="#50FA7B" height="153.418" rx="12.5" ry="12.5" style="stroke:#F8F8F2;stroke-width:0.0;" width="450" x="4376.5625" y="581.7383"/><rect fill="#50FA7B" height="31.25" style="stroke:#F8F8F2;stroke-width:0.0;" width="46.875" x="4764.0625" y="597.3633"/><rect fill="#50FA7B" height="6.25" style="stroke:#F8F8F2;stroke-width:0.0;" width="12.5" x="4757.8125" y="603.6133"/><rect fill="#50FA7B" height="6.25" style="stroke:#F8F8F2;stroke-width:0.0;" width="12.5" x="4757.8125" y="616.1133"/><text fill="#000000" font-family="sans-serif" font-size="37.5" lengthAdjust="spacing" textLength="312.5" x="4429.6875" y="689.4165">SD_ViewAllTracks</text></g><!--entity SD_CreateTrack--><g id="elem_SD_CreateTrack"><rect fill="#50FA7B" height="153.418" rx="12.5" ry="12.5" style="stroke:#F8F8F2;stroke-width:0.0;" width="421.875" x="4921.875" y="581.7383"/><rect fill="#50FA7B" height="31.25" style="stroke:#F8F8F2;stroke-width:0.0;" width="46.875" x="5281.25" y="597.3633"/><rect fill="#50FA7B" height="6.25" style="stroke:#F8F8F2;stroke-width:0.0;" width="12.5" x="5275" y="603.6133"/><rect fill="#50FA7B" height="6.25" style="stroke:#F8F8F2;stroke-width:0.0;" width="12.5" x="5275" y="616.1133"/><text fill="#000000" font-family="sans-serif" font-size="37.5" lengthAdjust="spacing" textLength="284.375" x="4975" y="689.4165">SD_CreateTrack</text></g><!--entity SD_DeleteTrack--><g id="elem_SD_DeleteTrack"><rect fill="#50FA7B" height="153.418" rx="12.5" ry="12.5" style="stroke:#F8F8F2;stroke-width:0.0;" width="418.75" x="2276.5625" y="581.7383"/><rect fill="#50FA7B" height="31.25" style="stroke:#F8F8F2;stroke-width:0.0;" width="46.875" x="2632.8125" y="597.3633"/><rect fill="#50FA7B" height="6.25" style="stroke:#F8F8F2;stroke-width:0.0;" width="12.5" x="2626.5625" y="603.6133"/><rect fill="#50FA7B" height="6.25" style="stroke:#F8F8F2;stroke-width:0.0;" width="12.5" x="2626.5625" y="616.1133"/><text fill="#000000" font-family="sans-serif" font-size="37.5" lengthAdjust="spacing" textLength="281.25" x="2329.6875" y="689.4165">SD_DeleteTrack</text></g><!--entity SD_ShareTrack--><g id="elem_SD_ShareTrack"><rect fill="#FF5555" height="153.418" rx="12.5" ry="12.5" style="stroke:#F8F8F2;stroke-width:0.0;" width="409.375" x="3871.875" y="581.7383"/><rect fill="#FF5555" height="31.25" style="stroke:#F8F8F2;stroke-width:0.0;" width="46.875" x="4218.75" y="597.3633"/><rect fill="#FF5555" height="6.25" style="stroke:#F8F8F2;stroke-width:0.0;" width="12.5" x="4212.5" y="603.6133"/><rect fill="#FF5555" height="6.25" style="stroke:#F8F8F2;stroke-width:0.0;" width="12.5" x="4212.5" y="616.1133"/><text fill="#000000" font-family="sans-serif" font-size="37.5" lengthAdjust="spacing" textLength="271.875" x="3925" y="689.4165">SD_ShareTrack</text></g><!--entity SD_UpdateTrack--><g id="elem_SD_UpdateTrack"><rect fill="#50FA7B" height="153.418" rx="12.5" ry="12.5" style="stroke:#F8F8F2;stroke-width:0.0;" width="431.25" x="3345.3125" y="581.7383"/><rect fill="#50FA7B" height="31.25" style="stroke:#F8F8F2;stroke-width:0.0;" width="46.875" x="3714.0625" y="597.3633"/><rect fill="#50FA7B" height="6.25" style="stroke:#F8F8F2;stroke-width:0.0;" width="12.5" x="3707.8125" y="603.6133"/><rect fill="#50FA7B" height="6.25" style="stroke:#F8F8F2;stroke-width:0.0;" width="12.5" x="3707.8125" y="616.1133"/><text fill="#000000" font-family="sans-serif" font-size="37.5" lengthAdjust="spacing" textLength="293.75" x="3398.4375" y="689.4165">SD_UpdateTrack</text></g><!--entity Physical View--><g id="elem_Physical View"><path d="M31.25,592.6758 L321.875,592.6758 A18.75,18.75 0 0 1 334.375,605.1758 L356.25,671.0938 L396.875,671.0938 A12.5,12.5 0 0 1 409.375,683.5938 L409.375,711.7188 A12.5,12.5 0 0 1 396.875,724.2188 L31.25,724.2188 A12.5,12.5 0 0 1 18.75,711.7188 L18.75,605.1758 A12.5,12.5 0 0 1 31.25,592.6758 " fill="#282A36" style="stroke:#FF5555;stroke-width:9.375;"/><line style="stroke:#FF5555;stroke-width:9.375;" x1="18.75" x2="356.25" y1="671.0938" y2="671.0938"/><text fill="#F8F8F2" font-family="sans-serif" font-size="37.5" font-weight="bold" lengthAdjust="spacing" textLength="246.875" x="56.25" y="647.229">Physical View</text></g><!--entity Process View--><g id="elem_Process View"><path d="M515.625,592.6758 L806.25,592.6758 A18.75,18.75 0 0 1 818.75,605.1758 L840.625,671.0938 L881.25,671.0938 A12.5,12.5 0 0 1 893.75,683.5938 L893.75,711.7188 A12.5,12.5 0 0 1 881.25,724.2188 L515.625,724.2188 A12.5,12.5 0 0 1 503.125,711.7188 L503.125,605.1758 A12.5,12.5 0 0 1 515.625,592.6758 " fill="#282A36" style="stroke:#FF5555;stroke-width:9.375;"/><line style="stroke:#FF5555;stroke-width:9.375;" x1="503.125" x2="840.625" y1="671.0938" y2="671.0938"/><text fill="#F8F8F2" font-family="sans-serif" font-size="37.5" font-weight="bold" lengthAdjust="spacing" textLength="246.875" x="540.625" y="647.229">Process View</text></g><!--reverse link DCDpackage to DB--><g id="link_DCDpackage_DB"><path d="M1367.6761,828.4449 C1368.7014,831.3969 1365.4781,820.9412 1366.6255,823.8457 C1375.8047,847.082 1388.9922,868.582 1407.8125,884.8633 C1480.7813,947.9883 1541.1563,859.5195 1623.4375,909.8633 C1683.3594,946.5195 1727.4453,1011.8164 1756.7695,1068.6836 C1764.1006,1082.9004 1770.509,1096.5903 1776.0117,1109.1742 C1776.1836,1109.5674 1776.3547,1109.9596 1776.5249,1110.3507 " fill="none" id="DCDpackage-backto-DB" style="stroke:#50FA7B;stroke-width:9.375;"/><polygon fill="#50FA7B" points="1361.8742,810.6151,1358.6905,841.2277,1366.7091,825.4732,1382.4635,833.4919,1361.8742,810.6151" style="stroke:#50FA7B;stroke-width:9.375;"/></g><!--link DCDpackage to DM--><g id="link_DCDpackage_DM"><path d="M1323.0906,680.22 C1321.1422,681.7246 1319.1016,683.3128 1316.9761,684.9819 C1299.9717,698.335 1277.5293,716.8691 1253.3555,739.2813 C1205.0078,784.1055 1149.7344,844.4414 1117.1875,909.8633 C1110.6836,922.9336 1105.0674,936.7563 1100.2192,950.9576 C1099.6132,952.7328 1099.0192,954.5139 1098.437,956.3001 C1098.1458,957.1933 1103.5481,940.2221 1103.2628,941.1177 " fill="none" id="DCDpackage-to-DM" style="stroke:#50FA7B;stroke-width:9.375;"/><polygon fill="#50FA7B" points="1097.5724,958.9833,1118.0185,935.9785,1102.3144,944.0953,1094.1976,928.3912,1097.5724,958.9833" style="stroke:#50FA7B;stroke-width:9.375;"/></g><!--link DM to OM--><g id="link_DM_OM"><path d="M1070.3125,1333.4721 C1070.3125,1334.3356 1070.3125,1335.2009 1070.3125,1336.0681 C1070.3125,1337.8024 1070.3125,1339.5439 1070.3125,1341.2923 C1070.3125,1369.2659 1070.3125,1398.9814 1070.3125,1428.6953 C1070.3125,1436.1238 1070.3125,1443.5521 1070.3125,1450.9531 C1070.3125,1452.8034 1070.3125,1435.9019 1070.3125,1437.7483 " fill="none" id="DM-to-OM" style="stroke:#50FA7B;stroke-width:9.375;"/><polygon fill="#50FA7B" points="1070.3125,1456.4983,1082.8125,1428.3733,1070.3125,1440.8733,1057.8125,1428.3733,1070.3125,1456.4983" style="stroke:#50FA7B;stroke-width:9.375;"/></g><!--link UseCases to UC_Diagram--><g id="link_UseCases_UC_Diagram"><path d="M4120.3125,3426.2422 C4120.3125,3505.3867 4120.3125,3580.3789 4120.3125,3643.9258 " fill="none" id="UseCases-to-UC_Diagram" style="stroke:#50FA7B;stroke-width:9.375;"/><polygon fill="#50FA7B" points="4120.3125,3662.6758,4132.8125,3634.5508,4120.3125,3647.0508,4107.8125,3634.5508,4120.3125,3662.6758" style="stroke:#50FA7B;stroke-width:9.375;"/></g><!--link OC_OpdaterBane to ssd_OpdaterBane--><g id="link_OC_OpdaterBane_ssd_OpdaterBane"><path d="M3723,1257.5508 C3774,1301.582 3844.5625,1354.082 3917.1875,1381.7383 C4024.125,1422.457 4065.0313,1370.0508 4173.4375,1406.7383 C4630.1563,1561.2695 4738.4375,1654.3945 5095.3125,1978.6133 C5190.3438,2064.957 5265.7634,2171.866 5315.3571,2249.6473 " fill="none" id="OC_OpdaterBane-to-ssd_OpdaterBane" style="stroke:#50FA7B;stroke-width:9.375;"/><polygon fill="#50FA7B" points="5325.4375,2265.457,5320.8568,2235.0221,5317.0372,2252.2822,5299.7771,2248.4627,5325.4375,2265.457" style="stroke:#50FA7B;stroke-width:9.375;"/></g><!--link OC_SeBane to ssd_SeBane--><g id="link_OC_SeBane_ssd_SeBane"><path d="M3213.5625,1257.3945 C3254.9063,1301.3633 3313.1563,1353.832 3376.5625,1381.7383 C3472.4375,1423.9258 3511.0625,1375.082 3610.9375,1406.7383 C4109.375,1564.707 4259.125,1619.3945 4639.0625,1978.6133 C4727.4063,2062.1445 4788.0388,2169.8828 4826.07,2248.6953 " fill="none" id="OC_SeBane-to-ssd_SeBane" style="stroke:#50FA7B;stroke-width:9.375;"/><polygon fill="#50FA7B" points="4834.2188,2265.582,4833.2534,2234.8195,4827.4281,2251.5098,4810.7378,2245.6845,4834.2188,2265.582" style="stroke:#50FA7B;stroke-width:9.375;"/></g><!--link OC_Delerbane to ssd_Delebane--><g id="link_OC_Delerbane_ssd_Delebane"><path d="M4229.1563,1256.7383 C4275.0625,1301.082 4339.5,1354.1445 4407.8125,1381.7383 C4521.5938,1427.707 4566.0625,1368.8945 4682.8125,1406.7383 C5156.1563,1560.1445 5283.4375,1637.082 5645.3125,1978.6133 C5734.9375,2063.207 5800.3653,2169.8832 5842.5216,2248.2269 " fill="none" id="OC_Delerbane-to-ssd_Delebane" style="stroke:#50FA7B;stroke-width:9.375;"/><polygon fill="#50FA7B" points="5851.4063,2264.7383,5849.0868,2234.0481,5844.0024,2250.9788,5827.0717,2245.8943,5851.4063,2264.7383" style="stroke:#50FA7B;stroke-width:9.375;"/></g><!--link OC_OpretterBane to ssd_OpretterBane--><g id="link_OC_OpretterBane_ssd_OpretterBane"><path d="M5399.3438,1256.832 C5700.0625,1374.207 6273.5625,1627.0508 6664.0625,1978.6133 C6759.5,2064.5195 6834.8242,2171.5347 6884.293,2249.441 " fill="none" id="OC_OpretterBane-to-ssd_OpretterBane" style="stroke:#50FA7B;stroke-width:9.375;"/><polygon fill="#50FA7B" points="6894.3438,2265.2695,6889.8199,2234.8261,6885.9681,2252.079,6868.7152,2248.2272,6894.3438,2265.2695" style="stroke:#50FA7B;stroke-width:9.375;"/></g><!--reverse link ssd_SletBane to OC_SletterBane--><g id="link_ssd_SletBane_OC_SletterBane"><path d="M4377.6567,2246.8688 C4352.0004,2161.1188 4302.0313,2042.1445 4198.4375,1978.6133 C4141.8438,1943.9258 3663.5,1977.457 3601.5625,1953.6133 C3211.6875,1803.582 2865.8125,1419.582 2732.125,1257.3945 " fill="none" id="ssd_SletBane-backto-OC_SletterBane" style="stroke:#50FA7B;stroke-width:9.375;"/><polygon fill="#50FA7B" points="4383.0313,2264.832,4386.9449,2234.3042,4378.5525,2249.8627,4362.9939,2241.4703,4383.0313,2264.832" style="stroke:#50FA7B;stroke-width:9.375;"/></g><!--link ssd_Delebane to UC_DeleBane--><g id="link_ssd_Delebane_UC_DeleBane"><path d="M5886.8125,2419.9258 C5881.5313,2593.1445 5869.0391,3004.0282 5863.7579,3177.5595 " fill="none" id="ssd_Delebane-to-UC_DeleBane" style="stroke:#50FA7B;stroke-width:9.375;"/><polygon fill="#50FA7B" points="5863.1875,3196.3008,5876.5373,3168.569,5863.6628,3180.683,5851.5488,3167.8085,5863.1875,3196.3008" style="stroke:#50FA7B;stroke-width:9.375;"/></g><!--link ssd_OpdaterBane to UC_OpdaterBane--><g id="link_ssd_OpdaterBane_UC_OpdaterBane"><path d="M5368.8125,2419.9258 C5365.3125,2593.1445 5356.9752,3004.0234 5353.444,3177.5547 " fill="none" id="ssd_OpdaterBane-to-UC_OpdaterBane" style="stroke:#50FA7B;stroke-width:9.375;"/><polygon fill="#50FA7B" points="5353.0625,3196.3008,5366.1321,3168.4359,5353.3804,3180.679,5341.1373,3167.9273,5353.0625,3196.3008" style="stroke:#50FA7B;stroke-width:9.375;"/></g><!--link ssd_SletBane to UC_SletBane--><g id="link_ssd_SletBane_UC_SletBane"><path d="M4401.5625,2419.9258 C4401.5625,2593.1445 4401.5625,3004.0195 4401.5625,3177.5508 " fill="none" id="ssd_SletBane-to-UC_SletBane" style="stroke:#50FA7B;stroke-width:9.375;"/><polygon fill="#50FA7B" points="4401.5625,3196.3008,4414.0625,3168.1758,4401.5625,3180.6758,4389.0625,3168.1758,4401.5625,3196.3008" style="stroke:#50FA7B;stroke-width:9.375;"/></g><!--link ssd_OpretterBane to UC_OpretterBane--><g id="link_ssd_OpretterBane_UC_OpretterBane"><path d="M6804,2419.5508 C6743.5937,2460.4883 6678.5938,2517.457 6645.3125,2587.9883 C6574.8125,2737.4883 6590.4062,2803.957 6645.3125,2959.8633 C6678.2188,3053.3008 6738.9756,3126.2477 6798.0069,3184.0289 " fill="none" id="ssd_OpretterBane-to-UC_OpretterBane" style="stroke:#50FA7B;stroke-width:9.375;"/><polygon fill="#50FA7B" points="6811.4063,3197.1445,6800.051,3168.5382,6800.2401,3186.2148,6782.5635,3186.404,6811.4063,3197.1445" style="stroke:#50FA7B;stroke-width:9.375;"/></g><!--link ssd_SeBane to UC_SeBane--><g id="link_ssd_SeBane_UC_SeBane"><path d="M4866.4375,2419.9258 C4864.6875,2593.1445 4860.5016,3004.0205 4858.7516,3177.5517 " fill="none" id="ssd_SeBane-to-UC_SeBane" style="stroke:#50FA7B;stroke-width:9.375;"/><polygon fill="#50FA7B" points="4858.5625,3196.3008,4871.3455,3168.3033,4858.7201,3180.6766,4846.3468,3168.0512,4858.5625,3196.3008" style="stroke:#50FA7B;stroke-width:9.375;"/></g><!--link SD_ViewOneTrack to ssd_SeBane--><g id="link_SD_ViewOneTrack_ssd_SeBane"><path d="M3085.2188,735.0508 C3136.9688,787.8633 3214.4688,854.8008 3298.4375,884.8633 C3359.75,906.8008 5596.4063,863.582 5642.1875,909.8633 C5789.6875,1058.957 5703.7188,1181.2383 5642.1875,1381.7383 C5619.6563,1455.1133 5319.4375,1912.3945 5254.6875,1953.6133 C5195.375,1991.3945 5157.2813,1940.082 5098.4375,1978.6133 C4993.8438,2047.1133 4933.9011,2163.7356 4900.2761,2247.7981 " fill="none" id="SD_ViewOneTrack-to-ssd_SeBane" style="stroke:#50FA7B;stroke-width:9.375;"/><polygon fill="#50FA7B" points="4893.3125,2265.207,4915.3638,2243.736,4899.1155,2250.6996,4892.1519,2234.4512,4893.3125,2265.207" style="stroke:#50FA7B;stroke-width:9.375;"/></g><!--link SD_ViewOneTrack to OC_SeBane--><g id="link_SD_ViewOneTrack_OC_SeBane"><path d="M3039.125,735.3008 C3064.0625,833.332 3103.2538,987.1917 3128.1601,1085.1292 " fill="none" id="SD_ViewOneTrack-to-OC_SeBane" style="stroke:#50FA7B;stroke-width:9.375;"/><polygon fill="#50FA7B" points="3132.7813,1103.3008,3137.9639,1072.9626,3128.9303,1088.1578,3113.7351,1079.1242,3132.7813,1103.3008" style="stroke:#50FA7B;stroke-width:9.375;"/></g><!--link SD_ViewAllTracks to OC_SeAlleBaner--><g id="link_SD_ViewAllTracks_OC_SeAlleBaner"><path d="M4610.9688,735.3008 C4623.4375,833.332 4642.9757,986.7634 4655.4445,1084.7009 " fill="none" id="SD_ViewAllTracks-to-OC_SeAlleBaner" style="stroke:#FF5555;stroke-width:9.375;"/><polygon fill="#FF5555" points="4657.8125,1103.3008,4666.6604,1073.8223,4655.8392,1087.8009,4641.8606,1076.9797,4657.8125,1103.3008" style="stroke:#FF5555;stroke-width:9.375;"/></g><!--link SD_ViewAllTracks to ssd_SeAlleBaner--><g id="link_SD_ViewAllTracks_ssd_SeAlleBaner"><path d="M4665.625,734.8945 C4716.7188,787.6445 4793.3438,854.5508 4876.5625,884.8633 C4916.7813,899.5195 6387.1563,879.3633 6417.1875,909.8633 C6788.875,1287.6445 6534.6913,2012.3338 6437.6913,2248.3026 " fill="none" id="SD_ViewAllTracks-to-ssd_SeAlleBaner" style="stroke:#50FA7B;stroke-width:9.375;"/><polygon fill="#50FA7B" points="6430.5625,2265.6445,6452.817,2244.3841,6436.5031,2251.1929,6429.6944,2234.8791,6430.5625,2265.6445" style="stroke:#50FA7B;stroke-width:9.375;"/></g><!--link OC_SeAlleBaner to ssd_SeAlleBaner--><g id="link_OC_SeAlleBaner_ssd_SeAlleBaner"><path d="M4740.5313,1256.8008 C4789.6875,1301.1445 4858.25,1354.2383 4929.6875,1381.7383 C5048.0938,1427.332 5093.7188,1366.5508 5214.0625,1406.7383 C5670.2813,1559.0508 5779.75,1651.9883 6132.8125,1978.6133 C6225.9063,2064.7383 6298.3632,2171.5111 6345.8319,2249.3549 " fill="none" id="OC_SeAlleBaner-to-ssd_SeAlleBaner" style="stroke:#FF5555;stroke-width:9.375;"/><polygon fill="#FF5555" points="6355.5938,2265.3633,6351.6232,2234.8428,6347.4589,2252.0229,6330.2787,2247.8586,6355.5938,2265.3633" style="stroke:#FF5555;stroke-width:9.375;"/></g><!--link ssd_SeAlleBaner to UC_SeAlleBaner--><g id="link_ssd_SeAlleBaner_UC_SeAlleBaner"><path d="M6395.6875,2419.9258 C6389.25,2593.1445 6373.9763,3004.0324 6367.5388,3177.5637 " fill="none" id="ssd_SeAlleBaner-to-UC_SeAlleBaner" style="stroke:#FF5555;stroke-width:9.375;"/><polygon fill="#FF5555" points="6366.8438,3196.3008,6380.3778,3168.6585,6367.423,3180.6865,6355.395,3167.7317,6366.8438,3196.3008" style="stroke:#FF5555;stroke-width:9.375;"/></g><!--link SD_CreateTrack to OC_OpretterBane--><g id="link_SD_CreateTrack_OC_OpretterBane"><path d="M5142.2188,735.3008 C5154.6875,833.332 5174.2257,986.7634 5186.6945,1084.7009 " fill="none" id="SD_CreateTrack-to-OC_OpretterBane" style="stroke:#50FA7B;stroke-width:9.375;"/><polygon fill="#50FA7B" points="5189.0625,1103.3008,5197.9104,1073.8223,5187.0892,1087.8009,5173.1106,1076.9797,5189.0625,1103.3008" style="stroke:#50FA7B;stroke-width:9.375;"/></g><!--link SD_CreateTrack to ssd_OpretterBane--><g id="link_SD_CreateTrack_ssd_OpretterBane"><path d="M5343.8438,669.8945 C5701.75,688.6445 6406.1563,745.8945 6582.8125,909.8633 C6983.5625,1281.832 6964.8566,2010.6647 6947.2941,2247.2897 " fill="none" id="SD_CreateTrack-to-ssd_OpretterBane" style="stroke:#50FA7B;stroke-width:9.375;"/><polygon fill="#50FA7B" points="6945.9063,2265.9883,6960.4537,2238.8656,6947.0628,2250.4061,6935.5223,2237.0152,6945.9063,2265.9883" style="stroke:#50FA7B;stroke-width:9.375;"/></g><!--link SD_ShareTrack to OC_Delerbane--><g id="link_SD_ShareTrack_OC_Delerbane"><path d="M4088.6562,735.3008 C4104.6875,833.332 4129.8149,986.8595 4145.8461,1084.797 " fill="none" id="SD_ShareTrack-to-OC_Delerbane" style="stroke:#FF5555;stroke-width:9.375;"/><polygon fill="#FF5555" points="4148.875,1103.3008,4156.6676,1073.5259,4146.351,1087.881,4131.9959,1077.5644,4148.875,1103.3008" style="stroke:#FF5555;stroke-width:9.375;"/></g><!--link SD_UpdateTrack to OC_OpdaterBane--><g id="link_SD_UpdateTrack_OC_OpdaterBane"><path d="M3573.0312,735.3008 C3589.0625,833.332 3614.1899,986.8595 3630.2211,1084.797 " fill="none" id="SD_UpdateTrack-to-OC_OpdaterBane" style="stroke:#50FA7B;stroke-width:9.375;"/><polygon fill="#50FA7B" points="3633.25,1103.3008,3641.0426,1073.5259,3630.726,1087.881,3616.3709,1077.5644,3633.25,1103.3008" style="stroke:#50FA7B;stroke-width:9.375;"/></g><!--link SD_DeleteTrack to OC_SletterBane--><g id="link_SD_DeleteTrack_OC_SletterBane"><path d="M2512.8125,735.3008 C2548.4375,833.332 2604.5905,987.7428 2640.2155,1085.6803 " fill="none" id="SD_DeleteTrack-to-OC_SletterBane" style="stroke:#50FA7B;stroke-width:9.375;"/><polygon fill="#50FA7B" points="2646.625,1103.3008,2648.7577,1072.5971,2641.2838,1088.6171,2625.2638,1081.1431,2646.625,1103.3008" style="stroke:#50FA7B;stroke-width:9.375;"/></g><!--link SD_ShareTrack to ssd_Delebane--><g id="link_SD_ShareTrack_ssd_Delebane"><path d="M4135.2813,735.9258 C4181.6875,788.457 4251.5,854.6133 4329.6875,884.8633 C4372.4375,901.3945 5947.5313,877.207 5979.6875,909.8633 C6352.3125,1288.1758 6048.5259,2012.9776 5934.6821,2248.8214 " fill="none" id="SD_ShareTrack-to-ssd_Delebane" style="stroke:#FF5555;stroke-width:9.375;"/><polygon fill="#FF5555" points="5926.5313,2265.707,5950.0147,2245.8124,5933.3236,2251.6356,5927.5004,2234.9446,5926.5313,2265.707" style="stroke:#FF5555;stroke-width:9.375;"/></g><!--link SD_UpdateTrack to ssd_OpdaterBane--><g id="link_SD_UpdateTrack_ssd_OpdaterBane"><path d="M3622.2813,734.957 C3671.3438,787.707 3745.2188,854.6133 3826.5625,884.8633 C3878.875,904.3008 5796.7188,870.1445 5835.9375,909.8633 C6167.4688,1245.5508 5855.9375,1532.9883 5642.1875,1953.6133 C5583.1563,2069.8008 5504.309,2175.9051 5444.1527,2250.7488 " fill="none" id="SD_UpdateTrack-to-ssd_OpdaterBane" style="stroke:#50FA7B;stroke-width:9.375;"/><polygon fill="#50FA7B" points="5432.4063,2265.3633,5459.769,2251.2726,5442.195,2253.1846,5440.283,2235.6106,5432.4063,2265.3633" style="stroke:#50FA7B;stroke-width:9.375;"/></g><!--link SD_DeleteTrack to ssd_SletBane--><g id="link_SD_DeleteTrack_ssd_SletBane"><path d="M2545.4375,734.9883 C2593.1563,787.7695 2665.2188,854.707 2745.3125,884.8633 C2816.0625,911.5195 5413.9688,856.1445 5467.1875,909.8633 C5614.8125,1058.832 5606.9375,1225.3633 5467.1875,1381.7383 C5434.125,1418.7383 5290.3125,1385.8633 5245.3125,1406.7383 C4909.2813,1562.582 4877.1875,1694.8945 4639.0625,1978.6133 C4561.4063,2071.1133 4496.963,2173.8327 4452.8067,2249.3639 " fill="none" id="SD_DeleteTrack-to-ssd_SletBane" style="stroke:#50FA7B;stroke-width:9.375;"/><polygon fill="#50FA7B" points="4443.3438,2265.5508,4468.3295,2247.5791,4451.2296,2252.0617,4446.747,2234.9618,4443.3438,2265.5508" style="stroke:#50FA7B;stroke-width:9.375;"/></g><!--link MBT_OpretterBaner to UC_OpretterBane--><g id="link_MBT_OpretterBaner_UC_OpretterBane"><path d="M6924.1563,2885.2383 C6917.75,2970.957 6908.6172,3092.8218 6902.2109,3178.478 " fill="none" id="MBT_OpretterBaner-to-UC_OpretterBane" style="stroke:#FF5555;stroke-width:9.375;"/><polygon fill="#FF5555" points="6900.8125,3197.1758,6915.3753,3170.0614,6901.9778,3181.5943,6890.4449,3168.1968,6900.8125,3197.1758" style="stroke:#FF5555;stroke-width:9.375;"/></g><text fill="#888888" font-family="sans-serif" font-size="31.25" lengthAdjust="spacing" textLength="325" x="3488.2813" y="3998.5535">Overblik over projektet</text><!--SRC=[bLVhQjim6Ftlfr2pGI5Gs2ZTMbW7QppsPy5bRZP6KuhYV4xSs9OdAIsbz7Nw8dsnIRxKrirn_2Caqj7f-SvtaSiJdW8QZozm3XI54UIO9i37O- -0ho43v5CSRLECOaeov9FDDeESOvwGVDwWwRmyFVVX7b9IIC3l11xc_iJtl8FtFoX0ZixHuRkJ3p7-l3WKQm75-GhAnJXUd7wAvEBbbXPfjRXOdXt7PtBn5onhs8buvCfVI5FoK2r-ZF6fE8iyhy3H1WlAqK-oIYAS8YbXX9uy99wtpHc323CHLO9N56UZQbi-4SaAaWlfQ3QvhRURlIg44lhigOJJX2teTiLuaiQlB-aIh9JJYwlReA30ET3AQHbNJIW_3PLe8cIo4S8CYL_b3uVMe5ZYcbRJQe6s4dP0GsW8qIxMC0NU0VT1VKXX83I4Rsa5fYLKzQknwaz28HQP0gPP63uo3XaAuTyMygW_uOmjIsMBDsLEOHAg6hu3sZMy5wgws0zLSbFtbnFRjL4fvETEqtHQjseShMzypF52565PaFu5Qcsy_fxpX3-YALb2UgF-1PK2MBBAKPHYnj2oJaT9D_5hK8TLB0gogjLjR441j9n2Q49oBcOKPzRS1iCR9AZgamueWs1uBmLLWmmKCBJjWhu6qNmdsUkBu2mJL1a-HJQhQc0cSGYX0SClMDn1n3lCWPsvmas74njjAyb37tNOErXKUXRwXq0h5Mt2nPdsY2egz6zbfGSvN8dosPXkM-72ynBETiCd58ICXdmdNDRU7l1mZMcBRjDl1SzAHrpSpvQ1SBb-PEqr-kI9pNQFaWX44tS6XJpRzd6huilHDLydqION-FFZcoEv9iQ7yTIAR1GQmzUIOkgci6pPA08tXVa2O0IobP4q5xE5mXmxGeL5XdcVT2cqQU2cq84jXJRHx5wO5w0QY3Bf-WAXja5dJa23OYivp5lmZS8cq1Q8-OgXKEXEsmAPMJBNeT05EbJeC5M5QfE3mh2zgqBBjqk5NZyrXJdwt7NXAAsX5C5E5Ps9saEXt7Nrk1jAOBu7gKscSG-ca1fi6yviE8BGBWgd2wwA64hHqwFcXU9KOKoK9Wpjaka9mzvUvXtehWTzdkmPXdNWxHD6pzmU6aRFk3F_NTnZIiWmOaB46WhkHQRIP8E8-88AIkvWmu7_1m00]--></g></svg>