<?xml version="1.0" encoding="us-ascii" standalone="no"?><svg xmlns="http://www.w3.org/2000/svg" xmlns:xlink="http://www.w3.org/1999/xlink" contentStyleType="text/css" height="2193.75px" preserveAspectRatio="none" style="width:1362px;height:2193px;background:#282A36;" version="1.1" viewBox="0 0 1362 2193" width="1362.5px" zoomAndPan="magnify"><defs/><g><rect fill="#282A36" height="2193.75" style="stroke:none;stroke-width:3.125;" width="1362.5" x="0" y="0"/><text fill="#F8F8F2" font-family="sans-serif" font-size="62.5" font-weight="bold" lengthAdjust="spacing" textLength="418.75" x="477.3438" y="118.0054">Opretter Bane</text><rect fill="none" height="326.1719" style="stroke:#FF5555;stroke-width:3.125;" width="1314.0625" x="31.25" y="1587.4512"/><line style="stroke:#F8F8F2;stroke-width:1.5625;stroke-dasharray:5.0,5.0;" x1="181.25" x2="181.25" y1="1017.2363" y2="2173.584"/><line style="stroke:#F8F8F2;stroke-width:1.5625;stroke-dasharray:5.0,5.0;" x1="943.75" x2="943.75" y1="1017.2363" y2="2173.584"/><text fill="#FFB86C" font-family="sans-serif" font-size="37.5" lengthAdjust="spacing" textLength="209.375" x="68.75" y="1002.7466">Auth. Bruger</text><ellipse cx="182.8125" cy="788.8184" fill="#FFB86C" rx="25" ry="25" style="stroke:#FFB86C;stroke-width:9.375;"/><path d="M182.8125,813.8184 L182.8125,898.1934 M142.1875,838.8184 L223.4375,838.8184 M182.8125,898.1934 L142.1875,945.0684 M182.8125,898.1934 L223.4375,945.0684 " fill="none" style="stroke:#FFB86C;stroke-width:9.375;"/><rect fill="#FFB86C" height="103.418" style="stroke:#FFB86C;stroke-width:1.5625;" width="184.375" x="853.125" y="910.6934"/><text fill="#000000" font-family="sans-serif" font-size="37.5" lengthAdjust="spacing" textLength="128.125" x="881.25" y="977.7466">System</text><polygon fill="#FFB86C" points="907.8125,1114.4043,939.0625,1126.9043,907.8125,1139.4043" style="stroke:#FFB86C;stroke-width:3.125;"/><line style="stroke:#FFB86C;stroke-width:9.375;" x1="182.8125" x2="926.5625" y1="1126.9043" y2="1126.9043"/><text fill="#F1FA8C" font-family="sans-serif" font-size="37.5" lengthAdjust="spacing" textLength="234.375" x="210.9375" y="1106.1646">Tilg&#229;r System</text><polygon fill="#FFB86C" points="217.1875,1217.8223,185.9375,1230.3223,217.1875,1242.8223" style="stroke:#FFB86C;stroke-width:3.125;"/><line style="stroke:#FFB86C;stroke-width:9.375;stroke-dasharray:2.0,2.0;" x1="198.4375" x2="942.1875" y1="1230.3223" y2="1230.3223"/><text fill="#F1FA8C" font-family="sans-serif" font-size="37.5" lengthAdjust="spacing" textLength="256.25" x="242.1875" y="1209.5825">Viser inputside</text><polygon fill="#FFB86C" points="907.8125,1321.2402,939.0625,1333.7402,907.8125,1346.2402" style="stroke:#FFB86C;stroke-width:3.125;"/><line style="stroke:#FFB86C;stroke-width:9.375;" x1="182.8125" x2="926.5625" y1="1333.7402" y2="1333.7402"/><text fill="#F1FA8C" font-family="sans-serif" font-size="37.5" lengthAdjust="spacing" textLength="521.875" x="210.9375" y="1313.0005">V&#230;lger banens sv&#230;rhedsgrad</text><polygon fill="#FFB86C" points="907.8125,1424.6582,939.0625,1437.1582,907.8125,1449.6582" style="stroke:#FFB86C;stroke-width:3.125;"/><line style="stroke:#FFB86C;stroke-width:9.375;" x1="182.8125" x2="926.5625" y1="1437.1582" y2="1437.1582"/><text fill="#F1FA8C" font-family="sans-serif" font-size="37.5" lengthAdjust="spacing" textLength="237.5" x="210.9375" y="1416.4185">Opretter Bane</text><polygon fill="#FFB86C" points="217.1875,1528.0762,185.9375,1540.5762,217.1875,1553.0762" style="stroke:#FFB86C;stroke-width:3.125;"/><line style="stroke:#FFB86C;stroke-width:9.375;stroke-dasharray:2.0,2.0;" x1="198.4375" x2="942.1875" y1="1540.5762" y2="1540.5762"/><text fill="#F1FA8C" font-family="sans-serif" font-size="37.5" lengthAdjust="spacing" textLength="484.375" x="242.1875" y="1519.8364">Viser "Opret Bane" inputside</text><path d="M31.25,1587.4512 L259.375,1587.4512 L259.375,1622.1191 L228.125,1653.3691 L31.25,1653.3691 L31.25,1587.4512 " fill="#FF5555" style="stroke:#FF5555;stroke-width:4.6875;"/><rect fill="none" height="326.1719" style="stroke:#FF5555;stroke-width:3.125;" width="1314.0625" x="31.25" y="1587.4512"/><text fill="#282A36" font-family="sans-serif" font-size="37.5" font-weight="bold" lengthAdjust="spacing" textLength="75" x="84.375" y="1635.7544">loop</text><text fill="#FF5555" font-family="sans-serif" font-size="37.5" font-weight="bold" lengthAdjust="spacing" textLength="396.875" x="312.5" y="1638.8794">[indtil bruger afslutter]</text><polygon fill="#FFB86C" points="907.8125,1732.0801,939.0625,1744.5801,907.8125,1757.0801" style="stroke:#FFB86C;stroke-width:3.125;"/><line style="stroke:#FFB86C;stroke-width:9.375;" x1="182.8125" x2="926.5625" y1="1744.5801" y2="1744.5801"/><text fill="#F1FA8C" font-family="sans-serif" font-size="37.5" lengthAdjust="spacing" textLength="675" x="210.9375" y="1723.8403">Placerer skilte; pile og &#248;vrige elementer</text><line style="stroke:#FFB86C;stroke-width:9.375;" x1="945.3125" x2="1076.5625" y1="1847.998" y2="1847.998"/><line style="stroke:#FFB86C;stroke-width:9.375;" x1="1076.5625" x2="1076.5625" y1="1847.998" y2="1888.623"/><line style="stroke:#FFB86C;stroke-width:9.375;" x1="948.4375" x2="1076.5625" y1="1888.623" y2="1888.623"/><polygon fill="#FFB86C" points="979.6875,1876.123,948.4375,1888.623,979.6875,1901.123" style="stroke:#FFB86C;stroke-width:3.125;"/><text fill="#F1FA8C" font-family="sans-serif" font-size="37.5" lengthAdjust="spacing" textLength="328.125" x="973.4375" y="1827.2583">Registrer placering</text><polygon fill="#FFB86C" points="907.8125,2001.416,939.0625,2013.916,907.8125,2026.416" style="stroke:#FFB86C;stroke-width:3.125;"/><line style="stroke:#FFB86C;stroke-width:9.375;" x1="182.8125" x2="926.5625" y1="2013.916" y2="2013.916"/><text fill="#F1FA8C" font-family="sans-serif" font-size="37.5" lengthAdjust="spacing" textLength="331.25" x="210.9375" y="1993.1763">Afslutter opret bane</text><polygon fill="#FFB86C" points="217.1875,2104.834,185.9375,2117.334,217.1875,2129.834" style="stroke:#FFB86C;stroke-width:3.125;"/><line style="stroke:#FFB86C;stroke-width:9.375;stroke-dasharray:2.0,2.0;" x1="198.4375" x2="942.1875" y1="2117.334" y2="2117.334"/><text fill="#F1FA8C" font-family="sans-serif" font-size="37.5" lengthAdjust="spacing" textLength="362.5" x="242.1875" y="2096.5942">bekr&#230;ftelses besked</text><rect fill="none" height="503.9551" id="_legend" style="stroke:#FF5555;stroke-width:9.375;" width="578.125" x="397.6563" y="209.8633"/><text fill="#F8F8F2" font-family="sans-serif" font-size="43.75" font-weight="bold" lengthAdjust="spacing" textLength="259.375" x="419.5313" y="277.1545">Sporbarhed</text><text fill="#F8F8F2" font-family="sans-serif" font-size="43.75" lengthAdjust="spacing" textLength="12.5" x="419.5313" y="332.1838">&#160;</text><text fill="#F8F8F2" font-family="sans-serif" font-size="43.75" lengthAdjust="spacing" textLength="153.125" x="425.7813" y="399.7131">Artefakt</text><text fill="#F8F8F2" font-family="sans-serif" font-size="43.75" lengthAdjust="spacing" textLength="100" x="603.9063" y="399.7131">Navn</text><text fill="#F8F8F2" font-family="sans-serif" font-size="43.75" lengthAdjust="spacing" textLength="59.375" x="425.7813" y="467.2424">UC</text><text fill="#F8F8F2" font-family="sans-serif" font-size="43.75" lengthAdjust="spacing" textLength="281.25" x="603.9063" y="467.2424">Opretter Bane</text><text fill="#F8F8F2" font-family="sans-serif" font-size="43.75" font-weight="bold" lengthAdjust="spacing" textLength="87.5" x="425.7813" y="534.7717">SSD</text><text fill="#F8F8F2" font-family="sans-serif" font-size="43.75" lengthAdjust="spacing" textLength="12.5" x="591.4063" y="534.7717">&#160;</text><text fill="#F8F8F2" font-family="sans-serif" font-size="43.75" font-weight="bold" lengthAdjust="spacing" textLength="331.25" x="603.9063" y="534.7717">Opretter Baner</text><text fill="#F8F8F2" font-family="sans-serif" font-size="43.75" lengthAdjust="spacing" textLength="12.5" x="935.1563" y="534.7717">&#160;</text><text fill="#F8F8F2" font-family="sans-serif" font-size="43.75" lengthAdjust="spacing" textLength="65.625" x="425.7813" y="602.301">OC</text><text fill="#F8F8F2" font-family="sans-serif" font-size="43.75" lengthAdjust="spacing" textLength="296.875" x="603.9063" y="602.301">Opretter Baner</text><text fill="#F8F8F2" font-family="sans-serif" font-size="43.75" lengthAdjust="spacing" textLength="59.375" x="425.7813" y="669.8303">SD</text><text fill="#F8F8F2" font-family="sans-serif" font-size="43.75" lengthAdjust="spacing" textLength="259.375" x="603.9063" y="669.8303">Create Track</text><line style="stroke:#F8F8F2;stroke-width:3.125;" x1="419.5313" x2="953.9063" y1="348.0469" y2="348.0469"/><line style="stroke:#F8F8F2;stroke-width:3.125;" x1="419.5313" x2="953.9063" y1="415.5762" y2="415.5762"/><line style="stroke:#F8F8F2;stroke-width:3.125;" x1="419.5313" x2="953.9063" y1="483.1055" y2="483.1055"/><line style="stroke:#F8F8F2;stroke-width:3.125;" x1="419.5313" x2="953.9063" y1="550.6348" y2="550.6348"/><line style="stroke:#F8F8F2;stroke-width:3.125;" x1="419.5313" x2="953.9063" y1="618.1641" y2="618.1641"/><line style="stroke:#F8F8F2;stroke-width:3.125;" x1="419.5313" x2="953.9063" y1="685.6934" y2="685.6934"/><line style="stroke:#F8F8F2;stroke-width:3.125;" x1="419.5313" x2="419.5313" y1="348.0469" y2="685.6934"/><line style="stroke:#F8F8F2;stroke-width:3.125;" x1="585.1563" x2="585.1563" y1="348.0469" y2="685.6934"/><line style="stroke:#F8F8F2;stroke-width:3.125;" x1="953.9063" x2="953.9063" y1="348.0469" y2="685.6934"/><!--SRC=[ZP91Rjim44NtFCNKwA8cWbwWAyVQjYcYn2jlQEbR9aIJn73a882kKv-XUrsifE82TL0OsGZY_7d3FpCKAmxq41aYOBet7igXWsz9GbHQrp7mpl01hTPAZIiMx4ql8_qm9q-Z6f_NupMVOnchAwr7qlfAOgqByl0UuHoigv7M32EW9pPDdnEBYpSpwfCSS0HLMHcSeJs78rMX7uxmOiG6lwqRUCCMl9qhRYkSu48i2HkBbssrhfHf930jLeCSlj8z3nruGIPTVbKqBBQnqNYX-ZK9ZaLChqcfpp-TiVuxKZ8TlhpbtnNfZfwiwwPVV26MbzH7oC3_1pOsvRwjZuCass9vg_XcEhjyebtkoMSlf-bSTf4wDkrDy6g-7pQrcB6PMVphKBaGOWwqOXtjPexCFhcXN77BHbOQSCvElNM2RnHjVc-Xe-dtYMq7WaDP4VXzDpC-VnxHsIIbI9ohMTyjozkukPNLNtSKvfRA0Ea3SzYXv-cy5xY4b4-fHnxq7m00]--></g></svg>