<?xml version="1.0" encoding="us-ascii" standalone="no"?><svg xmlns="http://www.w3.org/2000/svg" xmlns:xlink="http://www.w3.org/1999/xlink" contentStyleType="text/css" height="2187.5px" preserveAspectRatio="none" style="width:968px;height:2187px;background:#282A36;" version="1.1" viewBox="0 0 968 2187" width="968.75px" zoomAndPan="magnify"><defs/><g><rect fill="#282A36" height="2187.5" style="stroke:none;stroke-width:3.125;" width="968.75" x="0" y="0"/><text fill="#F8F8F2" font-family="sans-serif" font-size="62.5" font-weight="bold" lengthAdjust="spacing" textLength="290.625" x="344.5313" y="118.0054">Dele bane</text><rect fill="none" height="326.1719" style="stroke:#FF5555;stroke-width:3.125;" width="920.3125" x="31.25" y="1435.6445"/><line style="stroke:#F8F8F2;stroke-width:1.5625;stroke-dasharray:5.0,5.0;" x1="181.25" x2="181.25" y1="1072.2656" y2="2165.8203"/><line style="stroke:#F8F8F2;stroke-width:1.5625;stroke-dasharray:5.0,5.0;" x1="640.625" x2="640.625" y1="1072.2656" y2="2165.8203"/><text fill="#FFB86C" font-family="sans-serif" font-size="37.5" lengthAdjust="spacing" textLength="209.375" x="68.75" y="1057.7759">Auth. Bruger</text><ellipse cx="182.8125" cy="843.8477" fill="#FFB86C" rx="25" ry="25" style="stroke:#FFB86C;stroke-width:9.375;"/><path d="M182.8125,868.8477 L182.8125,953.2227 M142.1875,893.8477 L223.4375,893.8477 M182.8125,953.2227 L142.1875,1000.0977 M182.8125,953.2227 L223.4375,1000.0977 " fill="none" style="stroke:#FFB86C;stroke-width:9.375;"/><rect fill="#FFB86C" height="103.418" style="stroke:#FFB86C;stroke-width:1.5625;" width="184.375" x="550" y="965.7227"/><text fill="#000000" font-family="sans-serif" font-size="37.5" lengthAdjust="spacing" textLength="128.125" x="578.125" y="1032.7759">System</text><polygon fill="#FFB86C" points="604.6875,1169.4336,635.9375,1181.9336,604.6875,1194.4336" style="stroke:#FFB86C;stroke-width:3.125;"/><line style="stroke:#FFB86C;stroke-width:9.375;" x1="182.8125" x2="623.4375" y1="1181.9336" y2="1181.9336"/><text fill="#F1FA8C" font-family="sans-serif" font-size="37.5" lengthAdjust="spacing" textLength="234.375" x="210.9375" y="1161.1938">Tilg&#229;r System</text><polygon fill="#FFB86C" points="217.1875,1272.8516,185.9375,1285.3516,217.1875,1297.8516" style="stroke:#FFB86C;stroke-width:3.125;"/><line style="stroke:#FFB86C;stroke-width:9.375;stroke-dasharray:2.0,2.0;" x1="198.4375" x2="639.0625" y1="1285.3516" y2="1285.3516"/><text fill="#F1FA8C" font-family="sans-serif" font-size="37.5" lengthAdjust="spacing" textLength="371.875" x="242.1875" y="1264.6118">Viser inputside(Bane)</text><polygon fill="#FFB86C" points="604.6875,1376.2695,635.9375,1388.7695,604.6875,1401.2695" style="stroke:#FFB86C;stroke-width:3.125;"/><line style="stroke:#FFB86C;stroke-width:9.375;" x1="182.8125" x2="623.4375" y1="1388.7695" y2="1388.7695"/><text fill="#F1FA8C" font-family="sans-serif" font-size="37.5" lengthAdjust="spacing" textLength="184.375" x="210.9375" y="1368.0298">V&#230;lg bane</text><path d="M31.25,1435.6445 L259.375,1435.6445 L259.375,1470.3125 L228.125,1501.5625 L31.25,1501.5625 L31.25,1435.6445 " fill="#FF5555" style="stroke:#FF5555;stroke-width:4.6875;"/><rect fill="none" height="326.1719" style="stroke:#FF5555;stroke-width:3.125;" width="920.3125" x="31.25" y="1435.6445"/><text fill="#282A36" font-family="sans-serif" font-size="37.5" font-weight="bold" lengthAdjust="spacing" textLength="75" x="84.375" y="1483.9478">loop</text><text fill="#FF5555" font-family="sans-serif" font-size="37.5" font-weight="bold" lengthAdjust="spacing" textLength="396.875" x="312.5" y="1487.0728">[indtil bruger afslutter]</text><polygon fill="#FFB86C" points="604.6875,1580.2734,635.9375,1592.7734,604.6875,1605.2734" style="stroke:#FFB86C;stroke-width:3.125;"/><line style="stroke:#FFB86C;stroke-width:9.375;" x1="182.8125" x2="623.4375" y1="1592.7734" y2="1592.7734"/><text fill="#F1FA8C" font-family="sans-serif" font-size="37.5" lengthAdjust="spacing" textLength="212.5" x="210.9375" y="1572.0337">V&#230;lg Bruger</text><line style="stroke:#FFB86C;stroke-width:9.375;" x1="642.1875" x2="773.4375" y1="1696.1914" y2="1696.1914"/><line style="stroke:#FFB86C;stroke-width:9.375;" x1="773.4375" x2="773.4375" y1="1696.1914" y2="1736.8164"/><line style="stroke:#FFB86C;stroke-width:9.375;" x1="645.3125" x2="773.4375" y1="1736.8164" y2="1736.8164"/><polygon fill="#FFB86C" points="676.5625,1724.3164,645.3125,1736.8164,676.5625,1749.3164" style="stroke:#FFB86C;stroke-width:3.125;"/><text fill="#F1FA8C" font-family="sans-serif" font-size="37.5" lengthAdjust="spacing" textLength="237.5" x="670.3125" y="1675.4517">Registrer valg</text><polygon fill="#FFB86C" points="604.6875,1849.6094,635.9375,1862.1094,604.6875,1874.6094" style="stroke:#FFB86C;stroke-width:3.125;"/><line style="stroke:#FFB86C;stroke-width:9.375;" x1="182.8125" x2="623.4375" y1="1862.1094" y2="1862.1094"/><text fill="#F1FA8C" font-family="sans-serif" font-size="37.5" lengthAdjust="spacing" textLength="300" x="210.9375" y="1841.3696">Oversigt over valg</text><line style="stroke:#FFB86C;stroke-width:9.375;" x1="182.8125" x2="314.0625" y1="1965.5273" y2="1965.5273"/><line style="stroke:#FFB86C;stroke-width:9.375;" x1="314.0625" x2="314.0625" y1="1965.5273" y2="2006.1523"/><line style="stroke:#FFB86C;stroke-width:9.375;" x1="185.9375" x2="314.0625" y1="2006.1523" y2="2006.1523"/><polygon fill="#FFB86C" points="217.1875,1993.6523,185.9375,2006.1523,217.1875,2018.6523" style="stroke:#FFB86C;stroke-width:3.125;"/><text fill="#F1FA8C" font-family="sans-serif" font-size="37.5" lengthAdjust="spacing" textLength="59.375" x="210.9375" y="1944.7876">Del</text><polygon fill="#FFB86C" points="604.6875,2097.0703,635.9375,2109.5703,604.6875,2122.0703" style="stroke:#FFB86C;stroke-width:3.125;"/><line style="stroke:#FFB86C;stroke-width:9.375;" x1="182.8125" x2="623.4375" y1="2109.5703" y2="2109.5703"/><text fill="#F1FA8C" font-family="sans-serif" font-size="37.5" lengthAdjust="spacing" textLength="206.25" x="210.9375" y="2088.8306">Bekr&#230;ftelse</text><rect fill="none" height="558.9844" id="_legend" style="stroke:#FF5555;stroke-width:9.375;" width="490.625" x="244.5313" y="209.8633"/><text fill="#F8F8F2" font-family="sans-serif" font-size="43.75" font-weight="bold" lengthAdjust="spacing" textLength="259.375" x="266.4063" y="277.1545">Sporbarhed</text><text fill="#F8F8F2" font-family="sans-serif" font-size="43.75" lengthAdjust="spacing" textLength="12.5" x="266.4063" y="332.1838">&#160;</text><text fill="#F8F8F2" font-family="sans-serif" font-size="43.75" lengthAdjust="spacing" textLength="12.5" x="266.4063" y="387.2131">&#160;</text><text fill="#F8F8F2" font-family="sans-serif" font-size="43.75" lengthAdjust="spacing" textLength="153.125" x="272.6563" y="454.7424">Artefakt</text><text fill="#F8F8F2" font-family="sans-serif" font-size="43.75" lengthAdjust="spacing" textLength="100" x="450.7813" y="454.7424">Navn</text><text fill="#F8F8F2" font-family="sans-serif" font-size="43.75" lengthAdjust="spacing" textLength="59.375" x="272.6563" y="522.2717">UC</text><text fill="#F8F8F2" font-family="sans-serif" font-size="43.75" lengthAdjust="spacing" textLength="206.25" x="450.7813" y="522.2717">Dele Bane</text><text fill="#F8F8F2" font-family="sans-serif" font-size="43.75" font-weight="bold" lengthAdjust="spacing" textLength="87.5" x="272.6563" y="589.801">SSD</text><text fill="#F8F8F2" font-family="sans-serif" font-size="43.75" lengthAdjust="spacing" textLength="12.5" x="438.2813" y="589.801">&#160;</text><text fill="#F8F8F2" font-family="sans-serif" font-size="43.75" font-weight="bold" lengthAdjust="spacing" textLength="243.75" x="450.7813" y="589.801">Dele Baner</text><text fill="#F8F8F2" font-family="sans-serif" font-size="43.75" lengthAdjust="spacing" textLength="12.5" x="694.5313" y="589.801">&#160;</text><text fill="#F8F8F2" font-family="sans-serif" font-size="43.75" lengthAdjust="spacing" textLength="65.625" x="272.6563" y="657.3303">OC</text><text fill="#F8F8F2" font-family="sans-serif" font-size="43.75" lengthAdjust="spacing" textLength="221.875" x="450.7813" y="657.3303">Dele Baner</text><text fill="#F8F8F2" font-family="sans-serif" font-size="43.75" lengthAdjust="spacing" textLength="59.375" x="272.6563" y="724.8596">SD</text><text fill="#F8F8F2" font-family="sans-serif" font-size="43.75" lengthAdjust="spacing" textLength="243.75" x="450.7813" y="724.8596">Share Track</text><line style="stroke:#F8F8F2;stroke-width:3.125;" x1="266.4063" x2="713.2813" y1="403.0762" y2="403.0762"/><line style="stroke:#F8F8F2;stroke-width:3.125;" x1="266.4063" x2="713.2813" y1="470.6055" y2="470.6055"/><line style="stroke:#F8F8F2;stroke-width:3.125;" x1="266.4063" x2="713.2813" y1="538.1348" y2="538.1348"/><line style="stroke:#F8F8F2;stroke-width:3.125;" x1="266.4063" x2="713.2813" y1="605.6641" y2="605.6641"/><line style="stroke:#F8F8F2;stroke-width:3.125;" x1="266.4063" x2="713.2813" y1="673.1934" y2="673.1934"/><line style="stroke:#F8F8F2;stroke-width:3.125;" x1="266.4063" x2="713.2813" y1="740.7227" y2="740.7227"/><line style="stroke:#F8F8F2;stroke-width:3.125;" x1="266.4063" x2="266.4063" y1="403.0762" y2="740.7227"/><line style="stroke:#F8F8F2;stroke-width:3.125;" x1="432.0313" x2="432.0313" y1="403.0762" y2="740.7227"/><line style="stroke:#F8F8F2;stroke-width:3.125;" x1="713.2813" x2="713.2813" y1="403.0762" y2="740.7227"/><!--SRC=[ZP71Ri8m38RlUGeFxR16QEy0zBenKSQ9Ym6tZHgIod4xJUhhZ1VXnPRIWgPf4hiaiVtzlnrPZ5Y2bEAnGqVAKa7k0E9hfNLMUzuXbtJGMYdLpLWenqewUCNMGQUwzqKtYETH7EEeoLAjEz3wbcQjUtJv4-MOoD8EiXAPOCsuhoBJTnu6K0zIqZ4E5YkDHSZP7o7rLNCa9oZ6ksss9uTiYBSNmsrABLbVzy36qCSsNQGAz-8P9hD6ocUOSrCGJm33-5GrifYzgT49P9z1wAWUtomQzq8XO45F0pSTYrDO6rkSltYCav5UaJJyMpDADYOGWt5r8y4SOZNEcYHtscpE9rjSzf4ePRsley51Z8NT1GJCWsr4ukjVHaFsTzChSxrNL9WW74rRj4NIB-EE-x8b3gOGyErDzRVYUiVzt_lxd2e-dt8X6_hVVmC0]--></g></svg>