<?xml version="1.0" encoding="us-ascii" standalone="no"?><svg xmlns="http://www.w3.org/2000/svg" xmlns:xlink="http://www.w3.org/1999/xlink" contentStyleType="text/css" height="664px" preserveAspectRatio="none" style="width:580px;height:664px;background:#FFFFFF;" version="1.1" viewBox="0 0 580 664" width="580px" zoomAndPan="magnify"><defs/><g><text fill="#000000" font-family="sans-serif" font-size="14" font-weight="bold" lengthAdjust="spacing" textLength="237" x="170" y="34.5332">Business Process Model Notation</text><rect fill="none" height="22.6406" style="stroke:none;stroke-width:1.0;" width="547" x="15" y="51.0645"/><ellipse cx="111.5" cy="88.7051" fill="#222222" rx="10" ry="10" style="stroke:#222222;stroke-width:1.0;"/><polygon fill="#ADD8E6" points="30,118.7051,203,118.7051,193,136.252,203,153.7988,30,153.7988" style="stroke:#181818;stroke-width:0.5;"/><text fill="#000000" font-family="sans-serif" font-size="12" lengthAdjust="spacing" textLength="143" x="40" y="141.1621">&#216;nske om en bane opst&#229;r</text><rect fill="#F1F1F1" height="35.0938" rx="12.5" ry="12.5" style="stroke:#181818;stroke-width:0.5;" width="103" x="60" y="173.7988"/><text fill="#000000" font-family="sans-serif" font-size="12" lengthAdjust="spacing" textLength="83" x="70" y="196.2559">PPT bliver lavet</text><rect fill="#F1F1F1" height="35.0938" rx="12.5" ry="12.5" style="stroke:#181818;stroke-width:0.5;" width="130" x="46.5" y="376.9043"/><text fill="#000000" font-family="sans-serif" font-size="12" lengthAdjust="spacing" textLength="110" x="56.5" y="399.3613">Rettelser bliver lavet</text><polygon fill="#F1F1F1" points="111.5,332.9043,123.5,344.9043,111.5,356.9043,99.5,344.9043,111.5,332.9043" style="stroke:#181818;stroke-width:0.5;"/><line style="stroke:#000000;stroke-width:1.5;" x1="15" x2="15" y1="51.0645" y2="652.1855"/><rect fill="#F1F1F1" height="35.0938" rx="12.5" ry="12.5" style="stroke:#181818;stroke-width:0.5;" width="223" x="224" y="228.8926"/><text fill="#000000" font-family="sans-serif" font-size="12" lengthAdjust="spacing" textLength="203" x="234" y="251.3496">Banen bliver kommenteret af brugere</text><polygon fill="#F1F1F1" points="271.5,431.998,399.5,431.998,411.5,443.998,399.5,455.998,271.5,455.998,259.5,443.998,271.5,431.998" style="stroke:#181818;stroke-width:0.5;"/><text fill="#000000" font-family="sans-serif" font-size="11" lengthAdjust="spacing" textLength="128" x="271.5" y="448.499">"Er der er flere &#230;ndringer"</text><polygon fill="#F1F1F1" points="307,283.9863,364,283.9863,376,295.9863,364,307.9863,307,307.9863,295,295.9863,307,283.9863" style="stroke:#181818;stroke-width:0.5;"/><text fill="#000000" font-family="sans-serif" font-size="11" lengthAdjust="spacing" textLength="113" x="339.5" y="319.4053">&#198;ndringer er p&#229;kr&#230;vet</text><text fill="#000000" font-family="sans-serif" font-size="11" lengthAdjust="spacing" textLength="57" x="307" y="300.4873">&#198;ndringer?</text><text fill="#000000" font-family="sans-serif" font-size="11" lengthAdjust="spacing" textLength="73" x="376" y="293.5693">Den er brugbar</text><polygon fill="#F1F1F1" points="335.5,475.998,347.5,487.998,335.5,499.998,323.5,487.998,335.5,475.998" style="stroke:#181818;stroke-width:0.5;"/><polygon fill="#ADD8E6" points="292.5,519.998,388.5,519.998,378.5,537.5449,388.5,555.0918,292.5,555.0918" style="stroke:#181818;stroke-width:0.5;"/><text fill="#000000" font-family="sans-serif" font-size="12" lengthAdjust="spacing" textLength="66" x="302.5" y="542.4551">Bekr&#230;ftelse</text><line style="stroke:#000000;stroke-width:1.5;" x1="218" x2="218" y1="51.0645" y2="652.1855"/><rect fill="#F1F1F1" height="35.0938" rx="12.5" ry="12.5" style="stroke:#181818;stroke-width:0.5;" width="85" x="471" y="575.0918"/><text fill="#000000" font-family="sans-serif" font-size="12" lengthAdjust="spacing" textLength="65" x="481" y="597.5488">PPT bruges</text><ellipse cx="513.5" cy="641.1855" fill="none" rx="11" ry="11" style="stroke:#222222;stroke-width:1.0;"/><ellipse cx="513.5" cy="641.1855" fill="#222222" rx="6" ry="6" style="stroke:#222222;stroke-width:1.0;"/><line style="stroke:#000000;stroke-width:1.5;" x1="464.5" x2="464.5" y1="51.0645" y2="652.1855"/><line style="stroke:#000000;stroke-width:1.5;" x1="560.5" x2="560.5" y1="51.0645" y2="652.1855"/><line style="stroke:#181818;stroke-width:1.0;" x1="111.5" x2="111.5" y1="98.7051" y2="118.7051"/><polygon fill="#181818" points="107.5,108.7051,111.5,118.7051,115.5,108.7051,111.5,112.7051" style="stroke:#181818;stroke-width:1.0;"/><line style="stroke:#181818;stroke-width:1.0;" x1="111.5" x2="111.5" y1="153.7988" y2="173.7988"/><polygon fill="#181818" points="107.5,163.7988,111.5,173.7988,115.5,163.7988,111.5,167.7988" style="stroke:#181818;stroke-width:1.0;"/><line style="stroke:#181818;stroke-width:1.0;" x1="111.5" x2="111.5" y1="356.9043" y2="376.9043"/><polygon fill="#181818" points="107.5,366.9043,111.5,376.9043,115.5,366.9043,111.5,370.9043" style="stroke:#181818;stroke-width:1.0;"/><line style="stroke:#181818;stroke-width:1.0;" x1="376" x2="445.5" y1="295.9863" y2="295.9863"/><polygon fill="#181818" points="441.5,384.4512,445.5,394.4512,449.5,384.4512,445.5,388.4512" style="stroke:#181818;stroke-width:1.0;"/><line style="stroke:#181818;stroke-width:1.0;" x1="445.5" x2="445.5" y1="295.9863" y2="487.998"/><line style="stroke:#181818;stroke-width:1.0;" x1="445.5" x2="347.5" y1="487.998" y2="487.998"/><polygon fill="#181818" points="357.5,483.998,347.5,487.998,357.5,491.998,353.5,487.998" style="stroke:#181818;stroke-width:1.0;"/><line style="stroke:#181818;stroke-width:1.0;" x1="335.5" x2="335.5" y1="455.998" y2="475.998"/><polygon fill="#181818" points="331.5,465.998,335.5,475.998,339.5,465.998,335.5,469.998" style="stroke:#181818;stroke-width:1.0;"/><line style="stroke:#181818;stroke-width:1.0;" x1="335.5" x2="335.5" y1="263.9863" y2="283.9863"/><polygon fill="#181818" points="331.5,273.9863,335.5,283.9863,339.5,273.9863,335.5,277.9863" style="stroke:#181818;stroke-width:1.0;"/><line style="stroke:#181818;stroke-width:1.0;" x1="335.5" x2="335.5" y1="499.998" y2="519.998"/><polygon fill="#181818" points="331.5,509.998,335.5,519.998,339.5,509.998,335.5,513.998" style="stroke:#181818;stroke-width:1.0;"/><line style="stroke:#181818;stroke-width:1.0;" x1="513.5" x2="513.5" y1="610.1855" y2="630.1855"/><polygon fill="#181818" points="509.5,620.1855,513.5,630.1855,517.5,620.1855,513.5,624.1855" style="stroke:#181818;stroke-width:1.0;"/><line style="stroke:#181818;stroke-width:1.0;" x1="111.5" x2="111.5" y1="208.8926" y2="213.8926"/><line style="stroke:#181818;stroke-width:1.0;" x1="111.5" x2="335.5" y1="213.8926" y2="213.8926"/><line style="stroke:#181818;stroke-width:1.0;" x1="335.5" x2="335.5" y1="213.8926" y2="228.8926"/><polygon fill="#181818" points="331.5,218.8926,335.5,228.8926,339.5,218.8926,335.5,222.8926" style="stroke:#181818;stroke-width:1.0;"/><line style="stroke:#181818;stroke-width:1.0;" x1="411.5" x2="412.5" y1="443.998" y2="443.998"/><polygon fill="#181818" points="408.5,404.4512,412.5,394.4512,416.5,404.4512,412.5,400.4512" style="stroke:#181818;stroke-width:1.0;"/><line style="stroke:#181818;stroke-width:1.0;" x1="412.5" x2="412.5" y1="344.9043" y2="443.998"/><line style="stroke:#181818;stroke-width:1.0;" x1="412.5" x2="123.5" y1="344.9043" y2="344.9043"/><polygon fill="#181818" points="133.5,340.9043,123.5,344.9043,133.5,348.9043,129.5,344.9043" style="stroke:#181818;stroke-width:1.0;"/><line style="stroke:#181818;stroke-width:1.0;" x1="111.5" x2="111.5" y1="411.998" y2="416.998"/><line style="stroke:#181818;stroke-width:1.0;" x1="111.5" x2="335.5" y1="416.998" y2="416.998"/><line style="stroke:#181818;stroke-width:1.0;" x1="335.5" x2="335.5" y1="416.998" y2="431.998"/><polygon fill="#181818" points="331.5,421.998,335.5,431.998,339.5,421.998,335.5,425.998" style="stroke:#181818;stroke-width:1.0;"/><line style="stroke:#181818;stroke-width:1.0;" x1="335.5" x2="335.5" y1="307.9863" y2="320.4453"/><line style="stroke:#181818;stroke-width:1.0;" x1="335.5" x2="111.5" y1="320.4453" y2="320.4453"/><line style="stroke:#181818;stroke-width:1.0;" x1="111.5" x2="111.5" y1="320.4453" y2="332.9043"/><polygon fill="#181818" points="107.5,322.9043,111.5,332.9043,115.5,322.9043,111.5,326.9043" style="stroke:#181818;stroke-width:1.0;"/><line style="stroke:#181818;stroke-width:1.0;" x1="335.5" x2="335.5" y1="555.0918" y2="560.0918"/><line style="stroke:#181818;stroke-width:1.0;" x1="335.5" x2="513.5" y1="560.0918" y2="560.0918"/><line style="stroke:#181818;stroke-width:1.0;" x1="513.5" x2="513.5" y1="560.0918" y2="575.0918"/><polygon fill="#181818" points="509.5,565.0918,513.5,575.0918,517.5,565.0918,513.5,569.0918" style="stroke:#181818;stroke-width:1.0;"/><text fill="#000000" font-family="sans-serif" font-size="18" lengthAdjust="spacing" textLength="178" x="27.5" y="69.75">Instrukt&#248;r og dommere</text><text fill="#000000" font-family="sans-serif" font-size="18" lengthAdjust="spacing" textLength="140" x="271.25" y="69.75">Facebook gruppe</text><text fill="#000000" font-family="sans-serif" font-size="18" lengthAdjust="spacing" textLength="86" x="469.5" y="69.75">Hunderally</text><!--SRC=[XL5TIiD047xVKmpr9Rb2MX22Ye9A42-mQIRfakric9rKX3nx1Y_Gdi7tlPWJQw4F5M5XXvcTxs_5YKSen-W8OuIAmtg-dqA37fw3M761pFH0KNZi9NqnX0wQiDqYusIYM1PpzUYwZPH-n29zKkmHmXQGeBQavH0bxNbbYgfwXTgx7J9ukqDPckdEhh4EeOUEns5GmABK7JezwsSU4gKIi2tKF7PQBurh8KiVrB0ZRLpduE9v0_GCQTzpEYXD3h91Cem3MldRIl628kYZxludyWZrjd4QNRQuPMYEdArN94Y7auv5RcP0o6xKqeoh-clB-GL8f4PDNHYSPLlYxAZz4Raoq_r8ockzVvz-ivtZYKlzb31y0m00]--></g></svg>