<?xml version="1.0" encoding="us-ascii" standalone="no"?><svg xmlns="http://www.w3.org/2000/svg" xmlns:xlink="http://www.w3.org/1999/xlink" contentStyleType="text/css" height="2809.375px" preserveAspectRatio="none" style="width:4228px;height:2809px;background:#282A36;" version="1.1" viewBox="0 0 4228 2809" width="4228.125px" zoomAndPan="magnify"><defs/><g><rect fill="#282A36" height="2809.375" style="stroke:none;stroke-width:3.125;" width="4228.125" x="0" y="0"/><text fill="#F8F8F2" font-family="sans-serif" font-size="62.5" font-weight="bold" lengthAdjust="spacing" textLength="371.875" x="1954.6875" y="118.0054">Delete Track</text><rect fill="#44475A" height="2121.7773" style="stroke:#44475A;stroke-width:1.5625;" width="306.25" x="479.6875" y="647.5098"/><text fill="#282A36" font-family="sans-serif" font-size="37.5" font-weight="bold" lengthAdjust="spacing" textLength="228.125" x="518.75" y="692.688">DogApp.Web</text><rect fill="#44475A" height="2121.7773" style="stroke:#44475A;stroke-width:1.5625;" width="540.625" x="1115.625" y="647.5098"/><text fill="#282A36" font-family="sans-serif" font-size="37.5" font-weight="bold" lengthAdjust="spacing" textLength="206.25" x="1282.8125" y="692.688">DogApp.API</text><rect fill="#44475A" height="2121.7773" style="stroke:#44475A;stroke-width:1.5625;" width="496.875" x="1850" y="647.5098"/><text fill="#282A36" font-family="sans-serif" font-size="37.5" font-weight="bold" lengthAdjust="spacing" textLength="303.125" x="1946.875" y="692.688">DogApp.Services</text><rect fill="#44475A" height="2121.7773" style="stroke:#44475A;stroke-width:1.5625;" width="556.25" x="2540.625" y="647.5098"/><text fill="#282A36" font-family="sans-serif" font-size="37.5" font-weight="bold" lengthAdjust="spacing" textLength="337.5" x="2650" y="692.688">DogApp.Repository</text><rect fill="#44475A" height="2121.7773" style="stroke:#44475A;stroke-width:1.5625;" width="478.125" x="3290.625" y="647.5098"/><text fill="#282A36" font-family="sans-serif" font-size="37.5" font-weight="bold" lengthAdjust="spacing" textLength="228.125" x="3415.625" y="692.688">DogApp.Data</text><rect fill="#44475A" height="2121.7773" style="stroke:#44475A;stroke-width:1.5625;" width="225" x="3962.5" y="647.5098"/><text fill="#282A36" font-family="sans-serif" font-size="37.5" font-weight="bold" lengthAdjust="spacing" textLength="168.75" x="3990.625" y="692.688">Database</text><rect fill="#F8F8F2" height="1677.1484" style="stroke:#F8F8F2;stroke-width:3.125;" width="31.25" x="617.1875" y="1032.7637"/><rect fill="#F8F8F2" height="429.8828" style="stroke:#F8F8F2;stroke-width:3.125;" width="31.25" x="1370.3125" y="1136.1816"/><rect fill="#F8F8F2" height="316.5039" style="stroke:#F8F8F2;stroke-width:3.125;" width="31.25" x="1370.3125" y="2289.9902"/><rect fill="#F8F8F2" height="103.418" style="stroke:#F8F8F2;stroke-width:3.125;" width="31.25" x="2082.8125" y="1566.0645"/><rect fill="#F8F8F2" height="103.418" style="stroke:#F8F8F2;stroke-width:3.125;" width="31.25" x="2082.8125" y="2186.5723"/><rect fill="#F8F8F2" height="103.418" style="stroke:#F8F8F2;stroke-width:3.125;" width="31.25" x="2803.125" y="1669.4824"/><rect fill="#F8F8F2" height="103.418" style="stroke:#F8F8F2;stroke-width:3.125;" width="31.25" x="2803.125" y="2083.1543"/><rect fill="#F8F8F2" height="103.418" style="stroke:#F8F8F2;stroke-width:3.125;" width="31.25" x="3514.0625" y="1772.9004"/><rect fill="#F8F8F2" height="103.418" style="stroke:#F8F8F2;stroke-width:3.125;" width="31.25" x="3514.0625" y="1979.7363"/><rect fill="#F8F8F2" height="103.418" style="stroke:#F8F8F2;stroke-width:3.125;" width="31.25" x="4059.375" y="1876.3184"/><rect fill="none" height="182.1289" style="stroke:#FF5555;stroke-width:3.125;" width="1214.0625" x="460.9375" y="1183.0566"/><rect fill="none" height="1325.9766" style="stroke:#FF5555;stroke-width:3.125;" width="4175" x="31.25" y="1408.9355"/><line style="stroke:#F8F8F2;stroke-width:1.5625;stroke-dasharray:5.0,5.0;" x1="118.75" x2="118.75" y1="923.0957" y2="2788.0371"/><line style="stroke:#F8F8F2;stroke-width:1.5625;stroke-dasharray:5.0,5.0;" x1="632.8125" x2="632.8125" y1="923.0957" y2="2788.0371"/><line style="stroke:#F8F8F2;stroke-width:1.5625;stroke-dasharray:5.0,5.0;" x1="1384.375" x2="1384.375" y1="923.0957" y2="2788.0371"/><line style="stroke:#F8F8F2;stroke-width:1.5625;stroke-dasharray:5.0,5.0;" x1="2096.875" x2="2096.875" y1="923.0957" y2="2788.0371"/><line style="stroke:#F8F8F2;stroke-width:1.5625;stroke-dasharray:5.0,5.0;" x1="2818.75" x2="2818.75" y1="923.0957" y2="2788.0371"/><line style="stroke:#F8F8F2;stroke-width:1.5625;stroke-dasharray:5.0,5.0;" x1="3528.125" x2="3528.125" y1="923.0957" y2="2788.0371"/><line style="stroke:#F8F8F2;stroke-width:1.5625;stroke-dasharray:5.0,5.0;" x1="4075" x2="4075" y1="923.0957" y2="2788.0371"/><text fill="#FFB86C" font-family="sans-serif" font-size="37.5" lengthAdjust="spacing" textLength="84.375" x="68.75" y="908.606">User</text><ellipse cx="120.3125" cy="694.6777" fill="#FFB86C" rx="25" ry="25" style="stroke:#FFB86C;stroke-width:9.375;"/><path d="M120.3125,719.6777 L120.3125,804.0527 M79.6875,744.6777 L160.9375,744.6777 M120.3125,804.0527 L79.6875,850.9277 M120.3125,804.0527 L160.9375,850.9277 " fill="none" style="stroke:#FFB86C;stroke-width:9.375;"/><rect fill="#FFB86C" height="103.418" style="stroke:#FFB86C;stroke-width:1.5625;" width="93.75" x="585.9375" y="816.5527"/><text fill="#000000" font-family="sans-serif" font-size="37.5" lengthAdjust="spacing" textLength="37.5" x="614.0625" y="883.606">UI</text><rect fill="#FFB86C" height="103.418" style="stroke:#FFB86C;stroke-width:1.5625;" width="328.125" x="1221.875" y="816.5527"/><text fill="#000000" font-family="sans-serif" font-size="37.5" lengthAdjust="spacing" textLength="271.875" x="1250" y="883.606">Track Controller</text><rect fill="#FFB86C" height="103.418" style="stroke:#FFB86C;stroke-width:1.5625;" width="284.375" x="1956.25" y="816.5527"/><text fill="#000000" font-family="sans-serif" font-size="37.5" lengthAdjust="spacing" textLength="228.125" x="1984.375" y="883.606">Track Serivce</text><rect fill="#FFB86C" height="103.418" style="stroke:#FFB86C;stroke-width:1.5625;" width="343.75" x="2646.875" y="816.5527"/><text fill="#000000" font-family="sans-serif" font-size="37.5" lengthAdjust="spacing" textLength="287.5" x="2675" y="883.606">Track Repository</text><rect fill="#FFB86C" height="103.418" style="stroke:#FFB86C;stroke-width:1.5625;" width="265.625" x="3396.875" y="816.5527"/><text fill="#000000" font-family="sans-serif" font-size="37.5" lengthAdjust="spacing" textLength="209.375" x="3425" y="883.606">DataContext</text><text fill="#000000" font-family="sans-serif" font-size="37.5" lengthAdjust="spacing" textLength="168.75" x="3981.25" y="908.606">Database</text><path d="M4018.75,750.9277 C4018.75,719.6777 4075,719.6777 4075,719.6777 C4075,719.6777 4131.25,719.6777 4131.25,750.9277 L4131.25,832.1777 C4131.25,863.4277 4075,863.4277 4075,863.4277 C4075,863.4277 4018.75,863.4277 4018.75,832.1777 L4018.75,750.9277 " fill="#FFB86C" style="stroke:#282A36;stroke-width:4.6875;"/><path d="M4018.75,750.9277 C4018.75,782.1777 4075,782.1777 4075,782.1777 C4075,782.1777 4131.25,782.1777 4131.25,750.9277 " fill="none" style="stroke:#282A36;stroke-width:4.6875;"/><rect fill="#F8F8F2" height="1677.1484" style="stroke:#F8F8F2;stroke-width:3.125;" width="31.25" x="617.1875" y="1032.7637"/><rect fill="#F8F8F2" height="429.8828" style="stroke:#F8F8F2;stroke-width:3.125;" width="31.25" x="1370.3125" y="1136.1816"/><rect fill="#F8F8F2" height="316.5039" style="stroke:#F8F8F2;stroke-width:3.125;" width="31.25" x="1370.3125" y="2289.9902"/><rect fill="#F8F8F2" height="103.418" style="stroke:#F8F8F2;stroke-width:3.125;" width="31.25" x="2082.8125" y="1566.0645"/><rect fill="#F8F8F2" height="103.418" style="stroke:#F8F8F2;stroke-width:3.125;" width="31.25" x="2082.8125" y="2186.5723"/><rect fill="#F8F8F2" height="103.418" style="stroke:#F8F8F2;stroke-width:3.125;" width="31.25" x="2803.125" y="1669.4824"/><rect fill="#F8F8F2" height="103.418" style="stroke:#F8F8F2;stroke-width:3.125;" width="31.25" x="2803.125" y="2083.1543"/><rect fill="#F8F8F2" height="103.418" style="stroke:#F8F8F2;stroke-width:3.125;" width="31.25" x="3514.0625" y="1772.9004"/><rect fill="#F8F8F2" height="103.418" style="stroke:#F8F8F2;stroke-width:3.125;" width="31.25" x="3514.0625" y="1979.7363"/><rect fill="#F8F8F2" height="103.418" style="stroke:#F8F8F2;stroke-width:3.125;" width="31.25" x="4059.375" y="1876.3184"/><polygon fill="#FFB86C" points="579.6875,1020.2637,610.9375,1032.7637,579.6875,1045.2637" style="stroke:#FFB86C;stroke-width:3.125;"/><line style="stroke:#FFB86C;stroke-width:9.375;" x1="120.3125" x2="598.4375" y1="1032.7637" y2="1032.7637"/><text fill="#FF79C6" font-family="sans-serif" font-size="37.5" lengthAdjust="spacing" textLength="218.75" x="148.4375" y="1012.0239">DeleteTrack(</text><text fill="#F8F8F2" font-family="sans-serif" font-size="37.5" lengthAdjust="spacing" textLength="193.75" x="367.1875" y="1012.0239">TrackId : int</text><text fill="#FF79C6" font-family="sans-serif" font-size="37.5" lengthAdjust="spacing" textLength="12.5" x="560.9375" y="1012.0239">)</text><polygon fill="#FFB86C" points="1332.8125,1123.6816,1364.0625,1136.1816,1332.8125,1148.6816" style="stroke:#FFB86C;stroke-width:3.125;"/><line style="stroke:#FFB86C;stroke-width:9.375;" x1="648.4375" x2="1351.5625" y1="1136.1816" y2="1136.1816"/><text fill="#FF79C6" font-family="sans-serif" font-size="37.5" lengthAdjust="spacing" textLength="218.75" x="676.5625" y="1115.4419">DeleteTrack(</text><text fill="#F8F8F2" font-family="sans-serif" font-size="37.5" lengthAdjust="spacing" textLength="100" x="895.3125" y="1115.4419">Id : int</text><text fill="#FF79C6" font-family="sans-serif" font-size="37.5" lengthAdjust="spacing" textLength="12.5" x="995.3125" y="1115.4419">)</text><path d="M460.9375,1183.0566 L670.3125,1183.0566 L670.3125,1217.7246 L639.0625,1248.9746 L460.9375,1248.9746 L460.9375,1183.0566 " fill="#FF5555" style="stroke:#FF5555;stroke-width:4.6875;"/><rect fill="none" height="182.1289" style="stroke:#FF5555;stroke-width:3.125;" width="1214.0625" x="460.9375" y="1183.0566"/><text fill="#282A36" font-family="sans-serif" font-size="37.5" font-weight="bold" lengthAdjust="spacing" textLength="56.25" x="514.0625" y="1231.3599">opt</text><text fill="#FF5555" font-family="sans-serif" font-size="37.5" font-weight="bold" lengthAdjust="spacing" textLength="403.125" x="723.4375" y="1234.4849">[if track service is null]</text><polygon fill="#FFB86C" points="682.8125,1327.6855,651.5625,1340.1855,682.8125,1352.6855" style="stroke:#FFB86C;stroke-width:3.125;"/><line style="stroke:#FFB86C;stroke-width:9.375;stroke-dasharray:2.0,2.0;" x1="664.0625" x2="1367.1875" y1="1340.1855" y2="1340.1855"/><text fill="#FF79C6" font-family="sans-serif" font-size="37.5" lengthAdjust="spacing" textLength="456.25" x="707.8125" y="1319.4458">InvalidOperationException(</text><text fill="#F8F8F2" font-family="sans-serif" font-size="37.5" lengthAdjust="spacing" textLength="165.625" x="1164.0625" y="1319.4458">ErrorMSG</text><text fill="#FF79C6" font-family="sans-serif" font-size="37.5" lengthAdjust="spacing" textLength="12.5" x="1329.6875" y="1319.4458">)</text><path d="M31.25,1408.9355 L228.125,1408.9355 L228.125,1443.6035 L196.875,1474.8535 L31.25,1474.8535 L31.25,1408.9355 " fill="#FF5555" style="stroke:#FF5555;stroke-width:4.6875;"/><rect fill="none" height="1325.9766" style="stroke:#FF5555;stroke-width:3.125;" width="4175" x="31.25" y="1408.9355"/><text fill="#282A36" font-family="sans-serif" font-size="37.5" font-weight="bold" lengthAdjust="spacing" textLength="43.75" x="84.375" y="1457.2388">alt</text><text fill="#FF5555" font-family="sans-serif" font-size="37.5" font-weight="bold" lengthAdjust="spacing" textLength="340.625" x="281.25" y="1460.3638">[try block success]</text><polygon fill="#FFB86C" points="2045.3125,1553.5645,2076.5625,1566.0645,2045.3125,1578.5645" style="stroke:#FFB86C;stroke-width:3.125;"/><line style="stroke:#FFB86C;stroke-width:9.375;" x1="1385.9375" x2="2064.0625" y1="1566.0645" y2="1566.0645"/><text fill="#FF79C6" font-family="sans-serif" font-size="37.5" lengthAdjust="spacing" textLength="218.75" x="1414.0625" y="1545.3247">DeleteTrack(</text><text fill="#F8F8F2" font-family="sans-serif" font-size="37.5" lengthAdjust="spacing" textLength="100" x="1632.8125" y="1545.3247">Id : int</text><text fill="#FF79C6" font-family="sans-serif" font-size="37.5" lengthAdjust="spacing" textLength="12.5" x="1732.8125" y="1545.3247">)</text><polygon fill="#FFB86C" points="2765.625,1656.9824,2796.875,1669.4824,2765.625,1681.9824" style="stroke:#FFB86C;stroke-width:3.125;"/><line style="stroke:#FFB86C;stroke-width:9.375;" x1="2098.4375" x2="2784.375" y1="1669.4824" y2="1669.4824"/><text fill="#FF79C6" font-family="sans-serif" font-size="37.5" lengthAdjust="spacing" textLength="218.75" x="2126.5625" y="1648.7427">DeleteTrack(</text><text fill="#F8F8F2" font-family="sans-serif" font-size="37.5" lengthAdjust="spacing" textLength="100" x="2345.3125" y="1648.7427">Id : int</text><text fill="#FF79C6" font-family="sans-serif" font-size="37.5" lengthAdjust="spacing" textLength="12.5" x="2445.3125" y="1648.7427">)</text><polygon fill="#FFB86C" points="3476.5625,1760.4004,3507.8125,1772.9004,3476.5625,1785.4004" style="stroke:#FFB86C;stroke-width:3.125;"/><line style="stroke:#FFB86C;stroke-width:9.375;" x1="2818.75" x2="3495.3125" y1="1772.9004" y2="1772.9004"/><text fill="#FF79C6" font-family="sans-serif" font-size="37.5" lengthAdjust="spacing" textLength="218.75" x="2846.875" y="1752.1606">DeleteTrack(</text><text fill="#F8F8F2" font-family="sans-serif" font-size="37.5" lengthAdjust="spacing" textLength="100" x="3065.625" y="1752.1606">Id : int</text><text fill="#FF79C6" font-family="sans-serif" font-size="37.5" lengthAdjust="spacing" textLength="12.5" x="3165.625" y="1752.1606">)</text><polygon fill="#FFB86C" points="4021.875,1863.8184,4053.125,1876.3184,4021.875,1888.8184" style="stroke:#FFB86C;stroke-width:3.125;"/><line style="stroke:#FFB86C;stroke-width:9.375;" x1="3529.6875" x2="4040.625" y1="1876.3184" y2="1876.3184"/><text fill="#F1FA8C" font-family="sans-serif" font-size="37.5" lengthAdjust="spacing" textLength="237.5" x="3557.8125" y="1855.5786">Database call</text><polygon fill="#FFB86C" points="3579.6875,1967.2363,3548.4375,1979.7363,3579.6875,1992.2363" style="stroke:#FFB86C;stroke-width:3.125;"/><line style="stroke:#FFB86C;stroke-width:9.375;stroke-dasharray:2.0,2.0;" x1="3560.9375" x2="4071.875" y1="1979.7363" y2="1979.7363"/><text fill="#F1FA8C" font-family="sans-serif" font-size="37.5" lengthAdjust="spacing" textLength="237.5" x="3604.6875" y="1958.9966">Track Deleted</text><polygon fill="#FFB86C" points="2868.75,2070.6543,2837.5,2083.1543,2868.75,2095.6543" style="stroke:#FFB86C;stroke-width:3.125;"/><line style="stroke:#FFB86C;stroke-width:9.375;stroke-dasharray:2.0,2.0;" x1="2850" x2="3526.5625" y1="2083.1543" y2="2083.1543"/><text fill="#F1FA8C" font-family="sans-serif" font-size="37.5" lengthAdjust="spacing" textLength="237.5" x="2893.75" y="2062.4146">Track Deleted</text><polygon fill="#FFB86C" points="2148.4375,2174.0723,2117.1875,2186.5723,2148.4375,2199.0723" style="stroke:#FFB86C;stroke-width:3.125;"/><line style="stroke:#FFB86C;stroke-width:9.375;stroke-dasharray:2.0,2.0;" x1="2129.6875" x2="2815.625" y1="2186.5723" y2="2186.5723"/><text fill="#F1FA8C" font-family="sans-serif" font-size="37.5" lengthAdjust="spacing" textLength="237.5" x="2173.4375" y="2165.8325">Track Deleted</text><polygon fill="#FFB86C" points="1435.9375,2277.4902,1404.6875,2289.9902,1435.9375,2302.4902" style="stroke:#FFB86C;stroke-width:3.125;"/><line style="stroke:#FFB86C;stroke-width:9.375;stroke-dasharray:2.0,2.0;" x1="1417.1875" x2="2095.3125" y1="2289.9902" y2="2289.9902"/><text fill="#F1FA8C" font-family="sans-serif" font-size="37.5" lengthAdjust="spacing" textLength="237.5" x="1460.9375" y="2269.2505">Track Deleted</text><polygon fill="#FFB86C" points="682.8125,2380.9082,651.5625,2393.4082,682.8125,2405.9082" style="stroke:#FFB86C;stroke-width:3.125;"/><line style="stroke:#FFB86C;stroke-width:9.375;stroke-dasharray:2.0,2.0;" x1="664.0625" x2="1367.1875" y1="2393.4082" y2="2393.4082"/><text fill="#FF79C6" font-family="sans-serif" font-size="37.5" lengthAdjust="spacing" textLength="65.625" x="707.8125" y="2372.6685">OK(</text><text fill="#FF79C6" font-family="sans-serif" font-size="37.5" lengthAdjust="spacing" textLength="12.5" x="773.4375" y="2372.6685">)</text><polygon fill="#FFB86C" points="154.6875,2484.3262,123.4375,2496.8262,154.6875,2509.3262" style="stroke:#FFB86C;stroke-width:3.125;"/><line style="stroke:#FFB86C;stroke-width:9.375;stroke-dasharray:2.0,2.0;" x1="135.9375" x2="614.0625" y1="2496.8262" y2="2496.8262"/><text fill="#F1FA8C" font-family="sans-serif" font-size="37.5" lengthAdjust="spacing" textLength="237.5" x="179.6875" y="2476.0864">Track Deleted</text><line style="stroke:#FF5555;stroke-width:3.125;stroke-dasharray:2.0,2.0;" x1="31.25" x2="4206.25" y1="2524.9512" y2="2524.9512"/><polygon fill="#FFB86C" points="682.8125,2593.9941,651.5625,2606.4941,682.8125,2618.9941" style="stroke:#FFB86C;stroke-width:3.125;"/><line style="stroke:#FFB86C;stroke-width:9.375;stroke-dasharray:2.0,2.0;" x1="664.0625" x2="1382.8125" y1="2606.4941" y2="2606.4941"/><text fill="#FF79C6" font-family="sans-serif" font-size="37.5" lengthAdjust="spacing" textLength="215.625" x="707.8125" y="2585.7544">StatusCode(</text><text fill="#F8F8F2" font-family="sans-serif" font-size="37.5" lengthAdjust="spacing" textLength="65.625" x="923.4375" y="2585.7544">500</text><text fill="#FF79C6" font-family="sans-serif" font-size="37.5" lengthAdjust="spacing" textLength="12.5" x="989.0625" y="2585.7544">)</text><polygon fill="#FFB86C" points="154.6875,2697.4121,123.4375,2709.9121,154.6875,2722.4121" style="stroke:#FFB86C;stroke-width:3.125;"/><line style="stroke:#FFB86C;stroke-width:9.375;stroke-dasharray:2.0,2.0;" x1="135.9375" x2="629.6875" y1="2709.9121" y2="2709.9121"/><text fill="#F1FA8C" font-family="sans-serif" font-size="37.5" lengthAdjust="spacing" textLength="359.375" x="179.6875" y="2689.1724">No track was deleted</text><rect fill="none" height="393.8965" id="_legend" style="stroke:#FF5555;stroke-width:9.375;" width="509.375" x="1885.9375" y="209.8633"/><text fill="#F8F8F2" font-family="sans-serif" font-size="43.75" lengthAdjust="spacing" textLength="153.125" x="1914.0625" y="289.6545">Artefakt</text><text fill="#F8F8F2" font-family="sans-serif" font-size="43.75" lengthAdjust="spacing" textLength="100" x="2092.1875" y="289.6545">Navn</text><text fill="#F8F8F2" font-family="sans-serif" font-size="43.75" lengthAdjust="spacing" textLength="59.375" x="1914.0625" y="357.1838">UC</text><text fill="#F8F8F2" font-family="sans-serif" font-size="43.75" lengthAdjust="spacing" textLength="190.625" x="2092.1875" y="357.1838">Slet Bane</text><text fill="#F8F8F2" font-family="sans-serif" font-size="43.75" lengthAdjust="spacing" textLength="87.5" x="1914.0625" y="424.7131">SSD</text><text fill="#F8F8F2" font-family="sans-serif" font-size="43.75" lengthAdjust="spacing" textLength="190.625" x="2092.1875" y="424.7131">Slet Bane</text><text fill="#F8F8F2" font-family="sans-serif" font-size="43.75" lengthAdjust="spacing" textLength="65.625" x="1914.0625" y="492.2424">OC</text><text fill="#F8F8F2" font-family="sans-serif" font-size="43.75" lengthAdjust="spacing" textLength="175" x="2092.1875" y="492.2424">Sletbane</text><text fill="#F8F8F2" font-family="sans-serif" font-size="43.75" font-weight="bold" lengthAdjust="spacing" textLength="59.375" x="1914.0625" y="559.7717">SD</text><text fill="#F8F8F2" font-family="sans-serif" font-size="43.75" lengthAdjust="spacing" textLength="12.5" x="2079.6875" y="559.7717">&#160;</text><text fill="#F8F8F2" font-family="sans-serif" font-size="43.75" font-weight="bold" lengthAdjust="spacing" textLength="262.5" x="2092.1875" y="559.7717">DeleteTrack</text><text fill="#F8F8F2" font-family="sans-serif" font-size="43.75" lengthAdjust="spacing" textLength="12.5" x="2354.6875" y="559.7717">&#160;</text><line style="stroke:#F8F8F2;stroke-width:3.125;" x1="1907.8125" x2="2373.4375" y1="237.9883" y2="237.9883"/><line style="stroke:#F8F8F2;stroke-width:3.125;" x1="1907.8125" x2="2373.4375" y1="305.5176" y2="305.5176"/><line style="stroke:#F8F8F2;stroke-width:3.125;" x1="1907.8125" x2="2373.4375" y1="373.0469" y2="373.0469"/><line style="stroke:#F8F8F2;stroke-width:3.125;" x1="1907.8125" x2="2373.4375" y1="440.5762" y2="440.5762"/><line style="stroke:#F8F8F2;stroke-width:3.125;" x1="1907.8125" x2="2373.4375" y1="508.1055" y2="508.1055"/><line style="stroke:#F8F8F2;stroke-width:3.125;" x1="1907.8125" x2="2373.4375" y1="575.6348" y2="575.6348"/><line style="stroke:#F8F8F2;stroke-width:3.125;" x1="1907.8125" x2="1907.8125" y1="237.9883" y2="575.6348"/><line style="stroke:#F8F8F2;stroke-width:3.125;" x1="2073.4375" x2="2073.4375" y1="237.9883" y2="575.6348"/><line style="stroke:#F8F8F2;stroke-width:3.125;" x1="2373.4375" x2="2373.4375" y1="237.9883" y2="575.6348"/><!--SRC=[ZLN1Zfim4BtxAwOeXov2rLvwwIq9gmfLkucMJNl9nO59QiN1o1WsA_7nDOObDe4q5mJZyNjlPfxD6rCS8KIE2k5DqkH8E1umIq69dDHpgN1FZwg65rfbK9DwiwmXrjcme1dgxpWEhK2JiUeoTcs2xyUXxzVW-osB8V5zdTcmj6JaY_gB9wr3hvMSmbwA4uJYM9umKrGnaMtZ13Cg6SfjmoEt8LR8HTua_6RulWsN8Q694X8s1Kgo4sVmGd6Ov_ctFxZpI4wbOWdBQQR0sqGUq08saT6WSvty-JeQv1lDi1IPae9pb6Qt2LvYer0noeebM7XaVOsd5rcLu0Mionv5UiLS54pNzp6gpLhkuPhOA5P85HqeQa9DBNXM1i3wxhRgm8uMw96qUxDYPiUYvo9azen5GG_ujHb6e1iTW3Nzm3oZ57u0ozH3CpTMKMt0JGJMLhrfq6DmOM04OZWLaIjWUr2cIqNRO605P2NdPFQAgfIPnJZO7aHPHJbBLpbAuyEdSu9vynB0avH2FiS_7vgw2ULAatp0Zek6g4pqr0khcY6mC_79ibASBCnT-BIEozV3ztwuc-aJq8qQIxaS7Uh5BtTJ6B0-P3jkjkQKzMDniHSjcN5WGZbtS6sGIt3H0RhJle9jJr8hFdLX5xTqkh1JJRc1FYRQQlSKoTXqfrb6MkuwPufcshJ_8Hkta6NXw-C7LuohNm4yZ8gxN2q37SWBl0ixrl-MibYALDVo_V7nvd6xhS1x4TqLywwlmhHLuZc0xS-6_0C0]--></g></svg>