<?xml version="1.0" encoding="us-ascii" standalone="no"?><svg xmlns="http://www.w3.org/2000/svg" xmlns:xlink="http://www.w3.org/1999/xlink" contentStyleType="text/css" height="3271.875px" preserveAspectRatio="none" style="width:4071px;height:3271px;background:#282A36;" version="1.1" viewBox="0 0 4071 3271" width="4071.875px" zoomAndPan="magnify"><defs/><g><rect fill="#282A36" height="3271.875" style="stroke:none;stroke-width:3.125;" width="4071.875" x="0" y="0"/><text fill="#F8F8F2" font-family="sans-serif" font-size="62.5" font-weight="bold" lengthAdjust="spacing" textLength="571.875" x="1753.125" y="118.0054">SD:  ViewOneTrack</text><rect fill="#44475A" height="2475.7813" style="stroke:#44475A;stroke-width:1.5625;" width="350" x="410.9375" y="757.5684"/><text fill="#282A36" font-family="sans-serif" font-size="37.5" font-weight="bold" lengthAdjust="spacing" textLength="228.125" x="471.875" y="802.7466">DogApp.Web</text><rect fill="#44475A" height="2475.7813" style="stroke:#44475A;stroke-width:1.5625;" width="540.625" x="1053.125" y="757.5684"/><text fill="#282A36" font-family="sans-serif" font-size="37.5" font-weight="bold" lengthAdjust="spacing" textLength="203.125" x="1221.875" y="802.7466">DogApp.Api</text><rect fill="#44475A" height="2475.7813" style="stroke:#44475A;stroke-width:1.5625;" width="496.875" x="1787.5" y="757.5684"/><text fill="#282A36" font-family="sans-serif" font-size="37.5" font-weight="bold" lengthAdjust="spacing" textLength="303.125" x="1884.375" y="802.7466">DogApp.Services</text><rect fill="#44475A" height="2475.7813" style="stroke:#44475A;stroke-width:1.5625;" width="556.25" x="2478.125" y="757.5684"/><text fill="#282A36" font-family="sans-serif" font-size="37.5" font-weight="bold" lengthAdjust="spacing" textLength="371.875" x="2570.3125" y="802.7466">DogApp.Repositories</text><rect fill="#44475A" height="2475.7813" style="stroke:#44475A;stroke-width:1.5625;" width="478.125" x="3228.125" y="757.5684"/><text fill="#282A36" font-family="sans-serif" font-size="37.5" font-weight="bold" lengthAdjust="spacing" textLength="228.125" x="3353.125" y="802.7466">DogApp.Data</text><rect fill="#F8F8F2" height="2097.0703" style="stroke:#F8F8F2;stroke-width:3.125;" width="31.25" x="570.3125" y="1126.9043"/><rect fill="#F8F8F2" height="2175.4883" style="stroke:#F8F8F2;stroke-width:3.125;" width="31.25" x="1307.8125" y="1048.4863"/><rect fill="#F8F8F2" height="103.418" style="stroke:#F8F8F2;stroke-width:3.125;" width="31.25" x="2020.3125" y="1660.2051"/><rect fill="#F8F8F2" height="103.418" style="stroke:#F8F8F2;stroke-width:3.125;" width="31.25" x="2020.3125" y="2280.7129"/><rect fill="#F8F8F2" height="103.418" style="stroke:#F8F8F2;stroke-width:3.125;" width="31.25" x="2740.625" y="1763.623"/><rect fill="#F8F8F2" height="103.418" style="stroke:#F8F8F2;stroke-width:3.125;" width="31.25" x="2740.625" y="2177.2949"/><rect fill="#F8F8F2" height="103.418" style="stroke:#F8F8F2;stroke-width:3.125;" width="31.25" x="3451.5625" y="1867.041"/><rect fill="#F8F8F2" height="103.418" style="stroke:#F8F8F2;stroke-width:3.125;" width="31.25" x="3451.5625" y="2073.877"/><rect fill="#F8F8F2" height="103.418" style="stroke:#F8F8F2;stroke-width:3.125;" width="31.25" x="3903.125" y="1970.459"/><rect fill="none" height="182.1289" style="stroke:#FF5555;stroke-width:3.125;" width="1220.3125" x="392.1875" y="1277.1973"/><rect fill="none" height="1695.8984" style="stroke:#FF5555;stroke-width:3.125;" width="4018.75" x="31.25" y="1503.0762"/><rect fill="none" height="182.1289" style="stroke:#FF5555;stroke-width:3.125;" width="1220.3125" x="392.1875" y="2431.0059"/><line style="stroke:#F8F8F2;stroke-width:1.5625;stroke-dasharray:5.0,5.0;" x1="118.75" x2="118.75" y1="1017.2363" y2="3252.0996"/><line style="stroke:#F8F8F2;stroke-width:1.5625;stroke-dasharray:5.0,5.0;" x1="585.9375" x2="585.9375" y1="1017.2363" y2="3252.0996"/><line style="stroke:#F8F8F2;stroke-width:1.5625;stroke-dasharray:5.0,5.0;" x1="1321.875" x2="1321.875" y1="1017.2363" y2="3252.0996"/><line style="stroke:#F8F8F2;stroke-width:1.5625;stroke-dasharray:5.0,5.0;" x1="2034.375" x2="2034.375" y1="1017.2363" y2="3252.0996"/><line style="stroke:#F8F8F2;stroke-width:1.5625;stroke-dasharray:5.0,5.0;" x1="2756.25" x2="2756.25" y1="1017.2363" y2="3252.0996"/><line style="stroke:#F8F8F2;stroke-width:1.5625;stroke-dasharray:5.0,5.0;" x1="3465.625" x2="3465.625" y1="1017.2363" y2="3252.0996"/><line style="stroke:#F8F8F2;stroke-width:1.5625;stroke-dasharray:5.0,5.0;" x1="3918.75" x2="3918.75" y1="1017.2363" y2="3252.0996"/><text fill="#FFB86C" font-family="sans-serif" font-size="37.5" lengthAdjust="spacing" textLength="84.375" x="68.75" y="1002.7466">User</text><ellipse cx="120.3125" cy="788.8184" fill="#FFB86C" rx="25" ry="25" style="stroke:#FFB86C;stroke-width:9.375;"/><path d="M120.3125,813.8184 L120.3125,898.1934 M79.6875,838.8184 L160.9375,838.8184 M120.3125,898.1934 L79.6875,945.0684 M120.3125,898.1934 L160.9375,945.0684 " fill="none" style="stroke:#FFB86C;stroke-width:9.375;"/><rect fill="#FFB86C" height="103.418" style="stroke:#FFB86C;stroke-width:1.5625;" width="137.5" x="517.1875" y="910.6934"/><text fill="#000000" font-family="sans-serif" font-size="37.5" lengthAdjust="spacing" textLength="81.25" x="545.3125" y="977.7466">View</text><rect fill="#FFB86C" height="103.418" style="stroke:#FFB86C;stroke-width:1.5625;" width="328.125" x="1159.375" y="910.6934"/><text fill="#000000" font-family="sans-serif" font-size="37.5" lengthAdjust="spacing" textLength="271.875" x="1187.5" y="977.7466">Track Controller</text><rect fill="#FFB86C" height="103.418" style="stroke:#FFB86C;stroke-width:1.5625;" width="284.375" x="1893.75" y="910.6934"/><text fill="#000000" font-family="sans-serif" font-size="37.5" lengthAdjust="spacing" textLength="228.125" x="1921.875" y="977.7466">Track Service</text><rect fill="#FFB86C" height="103.418" style="stroke:#FFB86C;stroke-width:1.5625;" width="343.75" x="2584.375" y="910.6934"/><text fill="#000000" font-family="sans-serif" font-size="37.5" lengthAdjust="spacing" textLength="287.5" x="2612.5" y="977.7466">Track Repository</text><rect fill="#FFB86C" height="103.418" style="stroke:#FFB86C;stroke-width:1.5625;" width="265.625" x="3334.375" y="910.6934"/><text fill="#000000" font-family="sans-serif" font-size="37.5" lengthAdjust="spacing" textLength="209.375" x="3362.5" y="977.7466">DataContext</text><text fill="#000000" font-family="sans-serif" font-size="37.5" lengthAdjust="spacing" textLength="168.75" x="3825" y="1002.7466">Database</text><path d="M3862.5,845.0684 C3862.5,813.8184 3918.75,813.8184 3918.75,813.8184 C3918.75,813.8184 3975,813.8184 3975,845.0684 L3975,926.3184 C3975,957.5684 3918.75,957.5684 3918.75,957.5684 C3918.75,957.5684 3862.5,957.5684 3862.5,926.3184 L3862.5,845.0684 " fill="#FFB86C" style="stroke:#282A36;stroke-width:4.6875;"/><path d="M3862.5,845.0684 C3862.5,876.3184 3918.75,876.3184 3918.75,876.3184 C3918.75,876.3184 3975,876.3184 3975,845.0684 " fill="none" style="stroke:#282A36;stroke-width:4.6875;"/><rect fill="#F8F8F2" height="2097.0703" style="stroke:#F8F8F2;stroke-width:3.125;" width="31.25" x="570.3125" y="1126.9043"/><rect fill="#F8F8F2" height="2175.4883" style="stroke:#F8F8F2;stroke-width:3.125;" width="31.25" x="1307.8125" y="1048.4863"/><rect fill="#F8F8F2" height="103.418" style="stroke:#F8F8F2;stroke-width:3.125;" width="31.25" x="2020.3125" y="1660.2051"/><rect fill="#F8F8F2" height="103.418" style="stroke:#F8F8F2;stroke-width:3.125;" width="31.25" x="2020.3125" y="2280.7129"/><rect fill="#F8F8F2" height="103.418" style="stroke:#F8F8F2;stroke-width:3.125;" width="31.25" x="2740.625" y="1763.623"/><rect fill="#F8F8F2" height="103.418" style="stroke:#F8F8F2;stroke-width:3.125;" width="31.25" x="2740.625" y="2177.2949"/><rect fill="#F8F8F2" height="103.418" style="stroke:#F8F8F2;stroke-width:3.125;" width="31.25" x="3451.5625" y="1867.041"/><rect fill="#F8F8F2" height="103.418" style="stroke:#F8F8F2;stroke-width:3.125;" width="31.25" x="3451.5625" y="2073.877"/><rect fill="#F8F8F2" height="103.418" style="stroke:#F8F8F2;stroke-width:3.125;" width="31.25" x="3903.125" y="1970.459"/><polygon fill="#FFB86C" points="532.8125,1114.4043,564.0625,1126.9043,532.8125,1139.4043" style="stroke:#FFB86C;stroke-width:3.125;"/><line style="stroke:#FFB86C;stroke-width:9.375;" x1="120.3125" x2="551.5625" y1="1126.9043" y2="1126.9043"/><text fill="#FF79C6" font-family="sans-serif" font-size="37.5" lengthAdjust="spacing" textLength="165.625" x="148.4375" y="1106.1646">GetTrack(</text><text fill="#F8F8F2" font-family="sans-serif" font-size="37.5" lengthAdjust="spacing" textLength="200" x="314.0625" y="1106.1646">TrackID : int</text><text fill="#FF79C6" font-family="sans-serif" font-size="37.5" lengthAdjust="spacing" textLength="12.5" x="514.0625" y="1106.1646">)</text><polygon fill="#FFB86C" points="1270.3125,1217.8223,1301.5625,1230.3223,1270.3125,1242.8223" style="stroke:#FFB86C;stroke-width:3.125;"/><line style="stroke:#FFB86C;stroke-width:9.375;" x1="601.5625" x2="1289.0625" y1="1230.3223" y2="1230.3223"/><text fill="#FF79C6" font-family="sans-serif" font-size="37.5" lengthAdjust="spacing" textLength="237.5" x="629.6875" y="1209.5825">GetTrackById(</text><text fill="#F8F8F2" font-family="sans-serif" font-size="37.5" lengthAdjust="spacing" textLength="100" x="867.1875" y="1209.5825">Id : int</text><text fill="#FF79C6" font-family="sans-serif" font-size="37.5" lengthAdjust="spacing" textLength="12.5" x="967.1875" y="1209.5825">)</text><path d="M392.1875,1277.1973 L601.5625,1277.1973 L601.5625,1311.8652 L570.3125,1343.1152 L392.1875,1343.1152 L392.1875,1277.1973 " fill="#FF5555" style="stroke:#FF5555;stroke-width:4.6875;"/><rect fill="none" height="182.1289" style="stroke:#FF5555;stroke-width:3.125;" width="1220.3125" x="392.1875" y="1277.1973"/><text fill="#282A36" font-family="sans-serif" font-size="37.5" font-weight="bold" lengthAdjust="spacing" textLength="56.25" x="445.3125" y="1325.5005">opt</text><text fill="#FF5555" font-family="sans-serif" font-size="37.5" font-weight="bold" lengthAdjust="spacing" textLength="403.125" x="654.6875" y="1328.6255">[if track service is null]</text><polygon fill="#FFB86C" points="635.9375,1421.8262,604.6875,1434.3262,635.9375,1446.8262" style="stroke:#FFB86C;stroke-width:3.125;"/><line style="stroke:#FFB86C;stroke-width:9.375;stroke-dasharray:2.0,2.0;" x1="617.1875" x2="1304.6875" y1="1434.3262" y2="1434.3262"/><text fill="#FF79C6" font-family="sans-serif" font-size="37.5" lengthAdjust="spacing" textLength="456.25" x="660.9375" y="1413.5864">InvalidOperationException(</text><text fill="#F8F8F2" font-family="sans-serif" font-size="37.5" lengthAdjust="spacing" textLength="165.625" x="1117.1875" y="1413.5864">ErrorMSG</text><text fill="#FF79C6" font-family="sans-serif" font-size="37.5" lengthAdjust="spacing" textLength="12.5" x="1282.8125" y="1413.5864">)</text><path d="M31.25,1503.0762 L228.125,1503.0762 L228.125,1537.7441 L196.875,1568.9941 L31.25,1568.9941 L31.25,1503.0762 " fill="#FF5555" style="stroke:#FF5555;stroke-width:4.6875;"/><rect fill="none" height="1695.8984" style="stroke:#FF5555;stroke-width:3.125;" width="4018.75" x="31.25" y="1503.0762"/><text fill="#282A36" font-family="sans-serif" font-size="37.5" font-weight="bold" lengthAdjust="spacing" textLength="43.75" x="84.375" y="1551.3794">alt</text><text fill="#FF5555" font-family="sans-serif" font-size="37.5" font-weight="bold" lengthAdjust="spacing" textLength="356.25" x="281.25" y="1554.5044">[Try Block Success]</text><polygon fill="#FFB86C" points="1982.8125,1647.7051,2014.0625,1660.2051,1982.8125,1672.7051" style="stroke:#FFB86C;stroke-width:3.125;"/><line style="stroke:#FFB86C;stroke-width:9.375;" x1="1339.0625" x2="2001.5625" y1="1660.2051" y2="1660.2051"/><text fill="#FF79C6" font-family="sans-serif" font-size="37.5" lengthAdjust="spacing" textLength="237.5" x="1367.1875" y="1639.4653">GetTrackById(</text><text fill="#F8F8F2" font-family="sans-serif" font-size="37.5" lengthAdjust="spacing" textLength="31.25" x="1604.6875" y="1639.4653">id</text><text fill="#FF79C6" font-family="sans-serif" font-size="37.5" lengthAdjust="spacing" textLength="12.5" x="1635.9375" y="1639.4653">)</text><polygon fill="#FFB86C" points="2703.125,1751.123,2734.375,1763.623,2703.125,1776.123" style="stroke:#FFB86C;stroke-width:3.125;"/><line style="stroke:#FFB86C;stroke-width:9.375;" x1="2035.9375" x2="2721.875" y1="1763.623" y2="1763.623"/><text fill="#FF79C6" font-family="sans-serif" font-size="37.5" lengthAdjust="spacing" textLength="237.5" x="2064.0625" y="1742.8833">GetTrackById(</text><text fill="#F8F8F2" font-family="sans-serif" font-size="37.5" lengthAdjust="spacing" textLength="100" x="2301.5625" y="1742.8833">id : int</text><text fill="#FF79C6" font-family="sans-serif" font-size="37.5" lengthAdjust="spacing" textLength="12.5" x="2401.5625" y="1742.8833">)</text><polygon fill="#FFB86C" points="3414.0625,1854.541,3445.3125,1867.041,3414.0625,1879.541" style="stroke:#FFB86C;stroke-width:3.125;"/><line style="stroke:#FFB86C;stroke-width:9.375;" x1="2756.25" x2="3432.8125" y1="1867.041" y2="1867.041"/><text fill="#FF79C6" font-family="sans-serif" font-size="37.5" lengthAdjust="spacing" textLength="237.5" x="2784.375" y="1846.3013">GetTrackById(</text><text fill="#F8F8F2" font-family="sans-serif" font-size="37.5" lengthAdjust="spacing" textLength="100" x="3021.875" y="1846.3013">id : int</text><text fill="#FF79C6" font-family="sans-serif" font-size="37.5" lengthAdjust="spacing" textLength="12.5" x="3121.875" y="1846.3013">)</text><polygon fill="#FFB86C" points="3865.625,1957.959,3896.875,1970.459,3865.625,1982.959" style="stroke:#FFB86C;stroke-width:3.125;"/><line style="stroke:#FFB86C;stroke-width:9.375;" x1="3467.1875" x2="3884.375" y1="1970.459" y2="1970.459"/><text fill="#F1FA8C" font-family="sans-serif" font-size="37.5" lengthAdjust="spacing" textLength="246.875" x="3495.3125" y="1949.7192">Database Call</text><polygon fill="#FFB86C" points="3517.1875,2061.377,3485.9375,2073.877,3517.1875,2086.377" style="stroke:#FFB86C;stroke-width:3.125;"/><line style="stroke:#FFB86C;stroke-width:9.375;stroke-dasharray:2.0,2.0;" x1="3498.4375" x2="3915.625" y1="2073.877" y2="2073.877"/><text fill="#F1FA8C" font-family="sans-serif" font-size="37.5" lengthAdjust="spacing" textLength="331.25" x="3542.1875" y="2053.1372">return specific track</text><polygon fill="#FFB86C" points="2806.25,2164.7949,2775,2177.2949,2806.25,2189.7949" style="stroke:#FFB86C;stroke-width:3.125;"/><line style="stroke:#FFB86C;stroke-width:9.375;stroke-dasharray:2.0,2.0;" x1="2787.5" x2="3464.0625" y1="2177.2949" y2="2177.2949"/><text fill="#F1FA8C" font-family="sans-serif" font-size="37.5" lengthAdjust="spacing" textLength="331.25" x="2831.25" y="2156.5552">return specific track</text><polygon fill="#FFB86C" points="2085.9375,2268.2129,2054.6875,2280.7129,2085.9375,2293.2129" style="stroke:#FFB86C;stroke-width:3.125;"/><line style="stroke:#FFB86C;stroke-width:9.375;stroke-dasharray:2.0,2.0;" x1="2067.1875" x2="2753.125" y1="2280.7129" y2="2280.7129"/><text fill="#F1FA8C" font-family="sans-serif" font-size="37.5" lengthAdjust="spacing" textLength="331.25" x="2110.9375" y="2259.9731">return specific track</text><polygon fill="#FFB86C" points="1373.4375,2371.6309,1342.1875,2384.1309,1373.4375,2396.6309" style="stroke:#FFB86C;stroke-width:3.125;"/><line style="stroke:#FFB86C;stroke-width:9.375;stroke-dasharray:2.0,2.0;" x1="1354.6875" x2="2032.8125" y1="2384.1309" y2="2384.1309"/><text fill="#F1FA8C" font-family="sans-serif" font-size="37.5" lengthAdjust="spacing" textLength="331.25" x="1398.4375" y="2363.3911">return specific track</text><path d="M392.1875,2431.0059 L601.5625,2431.0059 L601.5625,2465.6738 L570.3125,2496.9238 L392.1875,2496.9238 L392.1875,2431.0059 " fill="#FF5555" style="stroke:#FF5555;stroke-width:4.6875;"/><rect fill="none" height="182.1289" style="stroke:#FF5555;stroke-width:3.125;" width="1220.3125" x="392.1875" y="2431.0059"/><text fill="#282A36" font-family="sans-serif" font-size="37.5" font-weight="bold" lengthAdjust="spacing" textLength="56.25" x="445.3125" y="2479.3091">opt</text><text fill="#FF5555" font-family="sans-serif" font-size="37.5" font-weight="bold" lengthAdjust="spacing" textLength="262.5" x="654.6875" y="2482.4341">[if track is null]</text><polygon fill="#FFB86C" points="635.9375,2575.6348,604.6875,2588.1348,635.9375,2600.6348" style="stroke:#FFB86C;stroke-width:3.125;"/><line style="stroke:#FFB86C;stroke-width:9.375;stroke-dasharray:2.0,2.0;" x1="617.1875" x2="1304.6875" y1="2588.1348" y2="2588.1348"/><text fill="#F1FA8C" font-family="sans-serif" font-size="37.5" lengthAdjust="spacing" textLength="168.75" x="660.9375" y="2567.395">NotFound</text><line style="stroke:#FFB86C;stroke-width:9.375;" x1="1339.0625" x2="1470.3125" y1="2713.4277" y2="2713.4277"/><line style="stroke:#FFB86C;stroke-width:9.375;" x1="1470.3125" x2="1470.3125" y1="2713.4277" y2="2754.0527"/><line style="stroke:#FFB86C;stroke-width:9.375;" x1="1342.1875" x2="1470.3125" y1="2754.0527" y2="2754.0527"/><polygon fill="#FFB86C" points="1373.4375,2741.5527,1342.1875,2754.0527,1373.4375,2766.5527" style="stroke:#FFB86C;stroke-width:3.125;"/><text fill="#F1FA8C" font-family="sans-serif" font-size="37.5" lengthAdjust="spacing" textLength="278.125" x="1367.1875" y="2692.688">Create TrackDto</text><polygon fill="#FFB86C" points="635.9375,2844.9707,604.6875,2857.4707,635.9375,2869.9707" style="stroke:#FFB86C;stroke-width:3.125;"/><line style="stroke:#FFB86C;stroke-width:9.375;stroke-dasharray:2.0,2.0;" x1="617.1875" x2="1304.6875" y1="2857.4707" y2="2857.4707"/><text fill="#FF79C6" font-family="sans-serif" font-size="37.5" lengthAdjust="spacing" textLength="65.625" x="660.9375" y="2836.731">OK(</text><text fill="#F8F8F2" font-family="sans-serif" font-size="37.5" lengthAdjust="spacing" textLength="153.125" x="726.5625" y="2836.731">TrackDto</text><text fill="#FF79C6" font-family="sans-serif" font-size="37.5" lengthAdjust="spacing" textLength="12.5" x="879.6875" y="2836.731">)</text><polygon fill="#FFB86C" points="154.6875,2948.3887,123.4375,2960.8887,154.6875,2973.3887" style="stroke:#FFB86C;stroke-width:3.125;"/><line style="stroke:#FFB86C;stroke-width:9.375;stroke-dasharray:2.0,2.0;" x1="135.9375" x2="567.1875" y1="2960.8887" y2="2960.8887"/><text fill="#F1FA8C" font-family="sans-serif" font-size="37.5" lengthAdjust="spacing" textLength="125" x="179.6875" y="2940.1489">A Track</text><line style="stroke:#FF5555;stroke-width:3.125;stroke-dasharray:2.0,2.0;" x1="31.25" x2="4050" y1="2989.0137" y2="2989.0137"/><polygon fill="#FFB86C" points="635.9375,3058.0566,604.6875,3070.5566,635.9375,3083.0566" style="stroke:#FFB86C;stroke-width:3.125;"/><line style="stroke:#FFB86C;stroke-width:9.375;stroke-dasharray:2.0,2.0;" x1="617.1875" x2="1304.6875" y1="3070.5566" y2="3070.5566"/><text fill="#FF79C6" font-family="sans-serif" font-size="37.5" lengthAdjust="spacing" textLength="215.625" x="660.9375" y="3049.8169">StatusCode(</text><text fill="#F8F8F2" font-family="sans-serif" font-size="37.5" lengthAdjust="spacing" textLength="65.625" x="876.5625" y="3049.8169">500</text><text fill="#FF79C6" font-family="sans-serif" font-size="37.5" lengthAdjust="spacing" textLength="12.5" x="942.1875" y="3049.8169">)</text><polygon fill="#FFB86C" points="154.6875,3161.4746,123.4375,3173.9746,154.6875,3186.4746" style="stroke:#FFB86C;stroke-width:3.125;"/><line style="stroke:#FFB86C;stroke-width:9.375;stroke-dasharray:2.0,2.0;" x1="135.9375" x2="567.1875" y1="3173.9746" y2="3173.9746"/><text fill="#F1FA8C" font-family="sans-serif" font-size="37.5" lengthAdjust="spacing" textLength="165.625" x="179.6875" y="3153.2349">ErrorMSG</text><rect fill="none" height="503.9551" id="_legend" style="stroke:#FF5555;stroke-width:9.375;" width="559.375" x="1759.375" y="209.8633"/><text fill="#F8F8F2" font-family="sans-serif" font-size="43.75" font-weight="bold" lengthAdjust="spacing" textLength="259.375" x="1781.25" y="277.1545">Sporbarhed</text><text fill="#F8F8F2" font-family="sans-serif" font-size="43.75" lengthAdjust="spacing" textLength="12.5" x="1781.25" y="332.1838">&#160;</text><text fill="#F8F8F2" font-family="sans-serif" font-size="43.75" lengthAdjust="spacing" textLength="153.125" x="1787.5" y="399.7131">Artefakt</text><text fill="#F8F8F2" font-family="sans-serif" font-size="43.75" lengthAdjust="spacing" textLength="100" x="1965.625" y="399.7131">Navn</text><text fill="#F8F8F2" font-family="sans-serif" font-size="43.75" lengthAdjust="spacing" textLength="59.375" x="1787.5" y="467.2424">UC</text><text fill="#F8F8F2" font-family="sans-serif" font-size="43.75" lengthAdjust="spacing" textLength="168.75" x="1965.625" y="467.2424">Se Bane</text><text fill="#F8F8F2" font-family="sans-serif" font-size="43.75" lengthAdjust="spacing" textLength="87.5" x="1787.5" y="534.7717">SSD</text><text fill="#F8F8F2" font-family="sans-serif" font-size="43.75" lengthAdjust="spacing" textLength="168.75" x="1965.625" y="534.7717">Se Bane</text><text fill="#F8F8F2" font-family="sans-serif" font-size="43.75" lengthAdjust="spacing" textLength="65.625" x="1787.5" y="602.301">OC</text><text fill="#F8F8F2" font-family="sans-serif" font-size="43.75" lengthAdjust="spacing" textLength="156.25" x="1965.625" y="602.301">SeBane</text><text fill="#F8F8F2" font-family="sans-serif" font-size="43.75" font-weight="bold" lengthAdjust="spacing" textLength="59.375" x="1787.5" y="669.8303">SD</text><text fill="#F8F8F2" font-family="sans-serif" font-size="43.75" lengthAdjust="spacing" textLength="12.5" x="1953.125" y="669.8303">&#160;</text><text fill="#F8F8F2" font-family="sans-serif" font-size="43.75" font-weight="bold" lengthAdjust="spacing" textLength="312.5" x="1965.625" y="669.8303">ViewOneTrack</text><text fill="#F8F8F2" font-family="sans-serif" font-size="43.75" lengthAdjust="spacing" textLength="12.5" x="2278.125" y="669.8303">&#160;</text><line style="stroke:#F8F8F2;stroke-width:3.125;" x1="1781.25" x2="2296.875" y1="348.0469" y2="348.0469"/><line style="stroke:#F8F8F2;stroke-width:3.125;" x1="1781.25" x2="2296.875" y1="415.5762" y2="415.5762"/><line style="stroke:#F8F8F2;stroke-width:3.125;" x1="1781.25" x2="2296.875" y1="483.1055" y2="483.1055"/><line style="stroke:#F8F8F2;stroke-width:3.125;" x1="1781.25" x2="2296.875" y1="550.6348" y2="550.6348"/><line style="stroke:#F8F8F2;stroke-width:3.125;" x1="1781.25" x2="2296.875" y1="618.1641" y2="618.1641"/><line style="stroke:#F8F8F2;stroke-width:3.125;" x1="1781.25" x2="2296.875" y1="685.6934" y2="685.6934"/><line style="stroke:#F8F8F2;stroke-width:3.125;" x1="1781.25" x2="1781.25" y1="348.0469" y2="685.6934"/><line style="stroke:#F8F8F2;stroke-width:3.125;" x1="1946.875" x2="1946.875" y1="348.0469" y2="685.6934"/><line style="stroke:#F8F8F2;stroke-width:3.125;" x1="2296.875" x2="2296.875" y1="348.0469" y2="685.6934"/><!--SRC=[ZPKzRzim48Pt_eghaQ4MX29BbsoEcGP6aRY8ccRnGaddX0X34YJb9e1_V4dAqPUPnfjql7lU-wBak1C81Rq0-CFnxrhYRyEgPo027r7Mu9GcMLPePKfcdh3ECaBs2-DmovxT7cxPJiAUxE-NUoWGBfb4_rOKj7iDf-juUZZqD9fbUyYoeM2MUSSWsEgIB-u9Nn2eFsi4WwrHBq3LS_E2qZ77bTmK5KfcE9fD09iDnHqAfOD306_eaXB2AgSCt5iqf5IlCAFgSQ7rjmSiPqGputZ5DPCEPY5a1ip2_IgcuRr74GlD9n5jdvPAEgE4G1EZex6t9L45cXslqCuW1JoSzhI38OcwGwqizoLoZqlHEeUt7XXiIHfbZaqemHJAmLSN0OFt3b5xMyaijjxXgNKj2I5dDsWjUyIlOGIvRsuEr-XY6dcRpOh21N2lDG_3uZlcqBl187ALJziAFUNoRLNdiAfRo9mexO1lmSNgRTiwu1Pa8mGvkqFN63aWJy3vIkwOuFLQeubRTlLQeGuFELmPeynDSJqFXVlD4iwdzGQNGeMfDPMVgErBc6RSrtDKot3Aqy9uFPymtzTXpEl2kmaVazvRL6EI21EXk2PZbPOxs87JHIAjCmtNwEoNOBoRoGXEorOjRjUI2J7Y3Y6ziJm0nwC-mffu35PZnRUyQXTcZ2__b-yO_r5tJb195J7e_qTYgO5_hfOOnNYfFf8RN14Owvye-gumkf_TlKp89gvz3hVA_L2DhDixEDwST9v3mz9WbmzrQfxu7Xm7hN_cmuXKfjsdRT5wpWb1OV4aVE7_PerTgjgtyllv-MSA_KU8n1Ry0m00]--></g></svg>