<?xml version="1.0" encoding="us-ascii" standalone="no"?><svg xmlns="http://www.w3.org/2000/svg" xmlns:xlink="http://www.w3.org/1999/xlink" contentStyleType="text/css" height="3443.75px" preserveAspectRatio="none" style="width:5640px;height:3443px;background:#282A36;" version="1.1" viewBox="0 0 5640 3443" width="5640.625px" zoomAndPan="magnify"><defs/><g><rect fill="#282A36" height="3443.75" style="stroke:none;stroke-width:3.125;" width="5640.625" x="0" y="0"/><text fill="#F8F8F2" font-family="sans-serif" font-size="62.5" font-weight="bold" lengthAdjust="spacing" textLength="381.25" x="2657.0313" y="118.0054">Create Track</text><rect fill="#44475A" height="2758.2031" style="stroke:#44475A;stroke-width:1.5625;" width="350" x="1523.4375" y="647.5098"/><text fill="#282A36" font-family="sans-serif" font-size="37.5" font-weight="bold" lengthAdjust="spacing" textLength="228.125" x="1584.375" y="692.688">DogApp.Web</text><rect fill="#44475A" height="2758.2031" style="stroke:#44475A;stroke-width:1.5625;" width="325" x="2376.5625" y="647.5098"/><text fill="#282A36" font-family="sans-serif" font-size="37.5" font-weight="bold" lengthAdjust="spacing" textLength="206.25" x="2435.9375" y="692.688">DogApp.API</text><rect fill="#44475A" height="2758.2031" style="stroke:#44475A;stroke-width:1.5625;" width="496.875" x="2895.3125" y="647.5098"/><text fill="#282A36" font-family="sans-serif" font-size="37.5" font-weight="bold" lengthAdjust="spacing" textLength="303.125" x="2992.1875" y="692.688">DogApp.Serivces</text><rect fill="#44475A" height="2758.2031" style="stroke:#44475A;stroke-width:1.5625;" width="556.25" x="3585.9375" y="647.5098"/><text fill="#282A36" font-family="sans-serif" font-size="37.5" font-weight="bold" lengthAdjust="spacing" textLength="371.875" x="3678.125" y="692.688">DogApp.Repositories</text><rect fill="#44475A" height="2758.2031" style="stroke:#44475A;stroke-width:1.5625;" width="846.875" x="4335.9375" y="647.5098"/><text fill="#282A36" font-family="sans-serif" font-size="37.5" font-weight="bold" lengthAdjust="spacing" textLength="228.125" x="4645.3125" y="692.688">DogApp.Data</text><rect fill="#44475A" height="2758.2031" style="stroke:#44475A;stroke-width:1.5625;" width="225" x="5376.5625" y="647.5098"/><text fill="#282A36" font-family="sans-serif" font-size="37.5" font-weight="bold" lengthAdjust="spacing" textLength="168.75" x="5404.6875" y="692.688">Database</text><rect fill="#F8F8F2" height="2363.5742" style="stroke:#F8F8F2;stroke-width:3.125;" width="31.25" x="1682.8125" y="1032.7637"/><rect fill="#F8F8F2" height="799.8047" style="stroke:#F8F8F2;stroke-width:3.125;" width="31.25" x="2523.4375" y="1136.1816"/><rect fill="#F8F8F2" height="376.1719" style="stroke:#F8F8F2;stroke-width:3.125;" width="31.25" x="2523.4375" y="2866.748"/><rect fill="#F8F8F2" height="103.418" style="stroke:#F8F8F2;stroke-width:3.125;" width="31.25" x="3128.125" y="1935.9863"/><rect fill="#F8F8F2" height="103.418" style="stroke:#F8F8F2;stroke-width:3.125;" width="31.25" x="3128.125" y="2763.3301"/><rect fill="#F8F8F2" height="310.2539" style="stroke:#F8F8F2;stroke-width:3.125;" width="31.25" x="3848.4375" y="2039.4043"/><rect fill="#F8F8F2" height="103.418" style="stroke:#F8F8F2;stroke-width:3.125;" width="31.25" x="3848.4375" y="2659.9121"/><rect fill="#F8F8F2" height="103.418" style="stroke:#F8F8F2;stroke-width:3.125;" width="31.25" x="4501.5625" y="2142.8223"/><rect fill="#F8F8F2" height="103.418" style="stroke:#F8F8F2;stroke-width:3.125;" width="31.25" x="4928.125" y="2349.6582"/><rect fill="#F8F8F2" height="103.418" style="stroke:#F8F8F2;stroke-width:3.125;" width="31.25" x="4928.125" y="2556.4941"/><rect fill="#F8F8F2" height="103.418" style="stroke:#F8F8F2;stroke-width:3.125;" width="31.25" x="5473.4375" y="2453.0762"/><rect fill="none" height="182.1289" style="stroke:#FF5555;stroke-width:3.125;" width="1215.625" x="1504.6875" y="1183.0566"/><rect fill="none" height="182.1289" style="stroke:#FF5555;stroke-width:3.125;" width="1215.625" x="1504.6875" y="1408.9355"/><rect fill="none" height="1592.4805" style="stroke:#FF5555;stroke-width:3.125;" width="5589.0625" x="31.25" y="1778.8574"/><line style="stroke:#F8F8F2;stroke-width:1.5625;stroke-dasharray:5.0,5.0;" x1="118.75" x2="118.75" y1="923.0957" y2="3424.4629"/><line style="stroke:#F8F8F2;stroke-width:1.5625;stroke-dasharray:5.0,5.0;" x1="1698.4375" x2="1698.4375" y1="923.0957" y2="3424.4629"/><line style="stroke:#F8F8F2;stroke-width:1.5625;stroke-dasharray:5.0,5.0;" x1="2539.0625" x2="2539.0625" y1="923.0957" y2="3424.4629"/><line style="stroke:#F8F8F2;stroke-width:1.5625;stroke-dasharray:5.0,5.0;" x1="3142.1875" x2="3142.1875" y1="923.0957" y2="3424.4629"/><line style="stroke:#F8F8F2;stroke-width:1.5625;stroke-dasharray:5.0,5.0;" x1="3864.0625" x2="3864.0625" y1="923.0957" y2="3424.4629"/><line style="stroke:#F8F8F2;stroke-width:1.5625;stroke-dasharray:5.0,5.0;" x1="4517.1875" x2="4517.1875" y1="923.0957" y2="3424.4629"/><line style="stroke:#F8F8F2;stroke-width:1.5625;stroke-dasharray:5.0,5.0;" x1="4942.1875" x2="4942.1875" y1="923.0957" y2="3424.4629"/><line style="stroke:#F8F8F2;stroke-width:1.5625;stroke-dasharray:5.0,5.0;" x1="5489.0625" x2="5489.0625" y1="923.0957" y2="3424.4629"/><text fill="#FFB86C" font-family="sans-serif" font-size="37.5" lengthAdjust="spacing" textLength="84.375" x="68.75" y="908.606">User</text><ellipse cx="120.3125" cy="694.6777" fill="#FFB86C" rx="25" ry="25" style="stroke:#FFB86C;stroke-width:9.375;"/><path d="M120.3125,719.6777 L120.3125,804.0527 M79.6875,744.6777 L160.9375,744.6777 M120.3125,804.0527 L79.6875,850.9277 M120.3125,804.0527 L160.9375,850.9277 " fill="none" style="stroke:#FFB86C;stroke-width:9.375;"/><rect fill="#FFB86C" height="103.418" style="stroke:#FFB86C;stroke-width:1.5625;" width="137.5" x="1629.6875" y="816.5527"/><text fill="#000000" font-family="sans-serif" font-size="37.5" lengthAdjust="spacing" textLength="81.25" x="1657.8125" y="883.606">View</text><rect fill="#FFB86C" height="103.418" style="stroke:#FFB86C;stroke-width:1.5625;" width="112.5" x="2482.8125" y="816.5527"/><text fill="#000000" font-family="sans-serif" font-size="37.5" lengthAdjust="spacing" textLength="56.25" x="2510.9375" y="883.606">API</text><rect fill="#FFB86C" height="103.418" style="stroke:#FFB86C;stroke-width:1.5625;" width="284.375" x="3001.5625" y="816.5527"/><text fill="#000000" font-family="sans-serif" font-size="37.5" lengthAdjust="spacing" textLength="228.125" x="3029.6875" y="883.606">Track Service</text><rect fill="#FFB86C" height="103.418" style="stroke:#FFB86C;stroke-width:1.5625;" width="343.75" x="3692.1875" y="816.5527"/><text fill="#000000" font-family="sans-serif" font-size="37.5" lengthAdjust="spacing" textLength="287.5" x="3720.3125" y="883.606">Track Repository</text><rect fill="#FFB86C" height="103.418" style="stroke:#FFB86C;stroke-width:1.5625;" width="150" x="4442.1875" y="816.5527"/><text fill="#000000" font-family="sans-serif" font-size="37.5" lengthAdjust="spacing" textLength="93.75" x="4470.3125" y="883.606">Track</text><rect fill="#FFB86C" height="103.418" style="stroke:#FFB86C;stroke-width:1.5625;" width="265.625" x="4810.9375" y="816.5527"/><text fill="#000000" font-family="sans-serif" font-size="37.5" lengthAdjust="spacing" textLength="209.375" x="4839.0625" y="883.606">DataContext</text><text fill="#000000" font-family="sans-serif" font-size="37.5" lengthAdjust="spacing" textLength="168.75" x="5395.3125" y="908.606">Database</text><path d="M5432.8125,750.9277 C5432.8125,719.6777 5489.0625,719.6777 5489.0625,719.6777 C5489.0625,719.6777 5545.3125,719.6777 5545.3125,750.9277 L5545.3125,832.1777 C5545.3125,863.4277 5489.0625,863.4277 5489.0625,863.4277 C5489.0625,863.4277 5432.8125,863.4277 5432.8125,832.1777 L5432.8125,750.9277 " fill="#FFB86C" style="stroke:#282A36;stroke-width:4.6875;"/><path d="M5432.8125,750.9277 C5432.8125,782.1777 5489.0625,782.1777 5489.0625,782.1777 C5489.0625,782.1777 5545.3125,782.1777 5545.3125,750.9277 " fill="none" style="stroke:#282A36;stroke-width:4.6875;"/><rect fill="#F8F8F2" height="2363.5742" style="stroke:#F8F8F2;stroke-width:3.125;" width="31.25" x="1682.8125" y="1032.7637"/><rect fill="#F8F8F2" height="799.8047" style="stroke:#F8F8F2;stroke-width:3.125;" width="31.25" x="2523.4375" y="1136.1816"/><rect fill="#F8F8F2" height="376.1719" style="stroke:#F8F8F2;stroke-width:3.125;" width="31.25" x="2523.4375" y="2866.748"/><rect fill="#F8F8F2" height="103.418" style="stroke:#F8F8F2;stroke-width:3.125;" width="31.25" x="3128.125" y="1935.9863"/><rect fill="#F8F8F2" height="103.418" style="stroke:#F8F8F2;stroke-width:3.125;" width="31.25" x="3128.125" y="2763.3301"/><rect fill="#F8F8F2" height="310.2539" style="stroke:#F8F8F2;stroke-width:3.125;" width="31.25" x="3848.4375" y="2039.4043"/><rect fill="#F8F8F2" height="103.418" style="stroke:#F8F8F2;stroke-width:3.125;" width="31.25" x="3848.4375" y="2659.9121"/><rect fill="#F8F8F2" height="103.418" style="stroke:#F8F8F2;stroke-width:3.125;" width="31.25" x="4501.5625" y="2142.8223"/><rect fill="#F8F8F2" height="103.418" style="stroke:#F8F8F2;stroke-width:3.125;" width="31.25" x="4928.125" y="2349.6582"/><rect fill="#F8F8F2" height="103.418" style="stroke:#F8F8F2;stroke-width:3.125;" width="31.25" x="4928.125" y="2556.4941"/><rect fill="#F8F8F2" height="103.418" style="stroke:#F8F8F2;stroke-width:3.125;" width="31.25" x="5473.4375" y="2453.0762"/><polygon fill="#FFB86C" points="1645.3125,1020.2637,1676.5625,1032.7637,1645.3125,1045.2637" style="stroke:#FFB86C;stroke-width:3.125;"/><line style="stroke:#FFB86C;stroke-width:9.375;" x1="120.3125" x2="1664.0625" y1="1032.7637" y2="1032.7637"/><text fill="#FF79C6" font-family="sans-serif" font-size="37.5" lengthAdjust="spacing" textLength="221.875" x="148.4375" y="1012.0239">CreateTrack(</text><text fill="#F8F8F2" font-family="sans-serif" font-size="37.5" lengthAdjust="spacing" textLength="1256.25" x="370.3125" y="1012.0239">Height : int; Width : int; Collection&lt;TrackItem&gt;TrackItems; Category : string</text><text fill="#FF79C6" font-family="sans-serif" font-size="37.5" lengthAdjust="spacing" textLength="12.5" x="1626.5625" y="1012.0239">)</text><polygon fill="#FFB86C" points="2485.9375,1123.6816,2517.1875,1136.1816,2485.9375,1148.6816" style="stroke:#FFB86C;stroke-width:3.125;"/><line style="stroke:#FFB86C;stroke-width:9.375;" x1="1714.0625" x2="2504.6875" y1="1136.1816" y2="1136.1816"/><text fill="#FF79C6" font-family="sans-serif" font-size="37.5" lengthAdjust="spacing" textLength="212.5" x="1742.1875" y="1115.4419">CreateTask(</text><text fill="#F8F8F2" font-family="sans-serif" font-size="37.5" lengthAdjust="spacing" textLength="153.125" x="1954.6875" y="1115.4419">TrackDto</text><text fill="#FF79C6" font-family="sans-serif" font-size="37.5" lengthAdjust="spacing" textLength="12.5" x="2107.8125" y="1115.4419">)</text><path d="M1504.6875,1183.0566 L1714.0625,1183.0566 L1714.0625,1217.7246 L1682.8125,1248.9746 L1504.6875,1248.9746 L1504.6875,1183.0566 " fill="#FF5555" style="stroke:#FF5555;stroke-width:4.6875;"/><rect fill="none" height="182.1289" style="stroke:#FF5555;stroke-width:3.125;" width="1215.625" x="1504.6875" y="1183.0566"/><text fill="#282A36" font-family="sans-serif" font-size="37.5" font-weight="bold" lengthAdjust="spacing" textLength="56.25" x="1557.8125" y="1231.3599">opt</text><text fill="#FF5555" font-family="sans-serif" font-size="37.5" font-weight="bold" lengthAdjust="spacing" textLength="384.375" x="1767.1875" y="1234.4849">[if Trackserice is null]</text><polygon fill="#FFB86C" points="1748.4375,1327.6855,1717.1875,1340.1855,1748.4375,1352.6855" style="stroke:#FFB86C;stroke-width:3.125;"/><line style="stroke:#FFB86C;stroke-width:9.375;stroke-dasharray:2.0,2.0;" x1="1729.6875" x2="2520.3125" y1="1340.1855" y2="1340.1855"/><text fill="#FF79C6" font-family="sans-serif" font-size="37.5" lengthAdjust="spacing" textLength="456.25" x="1773.4375" y="1319.4458">InvalidOperationException(</text><text fill="#F8F8F2" font-family="sans-serif" font-size="37.5" lengthAdjust="spacing" textLength="253.125" x="2229.6875" y="1319.4458">Error Message</text><text fill="#FF79C6" font-family="sans-serif" font-size="37.5" lengthAdjust="spacing" textLength="12.5" x="2482.8125" y="1319.4458">)</text><path d="M1504.6875,1408.9355 L1714.0625,1408.9355 L1714.0625,1443.6035 L1682.8125,1474.8535 L1504.6875,1474.8535 L1504.6875,1408.9355 " fill="#FF5555" style="stroke:#FF5555;stroke-width:4.6875;"/><rect fill="none" height="182.1289" style="stroke:#FF5555;stroke-width:3.125;" width="1215.625" x="1504.6875" y="1408.9355"/><text fill="#282A36" font-family="sans-serif" font-size="37.5" font-weight="bold" lengthAdjust="spacing" textLength="56.25" x="1557.8125" y="1457.2388">opt</text><text fill="#FF5555" font-family="sans-serif" font-size="37.5" font-weight="bold" lengthAdjust="spacing" textLength="331.25" x="1767.1875" y="1460.3638">[if TrackDto is null]</text><polygon fill="#FFB86C" points="1748.4375,1553.5645,1717.1875,1566.0645,1748.4375,1578.5645" style="stroke:#FFB86C;stroke-width:3.125;"/><line style="stroke:#FFB86C;stroke-width:9.375;stroke-dasharray:2.0,2.0;" x1="1729.6875" x2="2520.3125" y1="1566.0645" y2="1566.0645"/><text fill="#FF79C6" font-family="sans-serif" font-size="37.5" lengthAdjust="spacing" textLength="228.125" x="1773.4375" y="1545.3247">BadRequest(</text><text fill="#F8F8F2" font-family="sans-serif" font-size="37.5" lengthAdjust="spacing" textLength="253.125" x="2001.5625" y="1545.3247">Error Message</text><text fill="#FF79C6" font-family="sans-serif" font-size="37.5" lengthAdjust="spacing" textLength="12.5" x="2254.6875" y="1545.3247">)</text><line style="stroke:#FFB86C;stroke-width:9.375;" x1="2554.6875" x2="2685.9375" y1="1691.3574" y2="1691.3574"/><line style="stroke:#FFB86C;stroke-width:9.375;" x1="2685.9375" x2="2685.9375" y1="1691.3574" y2="1731.9824"/><line style="stroke:#FFB86C;stroke-width:9.375;" x1="2557.8125" x2="2685.9375" y1="1731.9824" y2="1731.9824"/><polygon fill="#FFB86C" points="2589.0625,1719.4824,2557.8125,1731.9824,2589.0625,1744.4824" style="stroke:#FFB86C;stroke-width:3.125;"/><text fill="#F1FA8C" font-family="sans-serif" font-size="37.5" lengthAdjust="spacing" textLength="390.625" x="2582.8125" y="1670.6177">Create TrackDto object</text><path d="M31.25,1778.8574 L228.125,1778.8574 L228.125,1813.5254 L196.875,1844.7754 L31.25,1844.7754 L31.25,1778.8574 " fill="#FF5555" style="stroke:#FF5555;stroke-width:4.6875;"/><rect fill="none" height="1592.4805" style="stroke:#FF5555;stroke-width:3.125;" width="5589.0625" x="31.25" y="1778.8574"/><text fill="#282A36" font-family="sans-serif" font-size="37.5" font-weight="bold" lengthAdjust="spacing" textLength="43.75" x="84.375" y="1827.1606">alt</text><text fill="#FF5555" font-family="sans-serif" font-size="37.5" font-weight="bold" lengthAdjust="spacing" textLength="390.625" x="281.25" y="1830.2856">[if Trackserice exists]</text><polygon fill="#FFB86C" points="3090.625,1923.4863,3121.875,1935.9863,3090.625,1948.4863" style="stroke:#FFB86C;stroke-width:3.125;"/><line style="stroke:#FFB86C;stroke-width:9.375;" x1="2539.0625" x2="3109.375" y1="1935.9863" y2="1935.9863"/><text fill="#FF79C6" font-family="sans-serif" font-size="37.5" lengthAdjust="spacing" textLength="221.875" x="2567.1875" y="1915.2466">CreateTrack(</text><text fill="#F8F8F2" font-family="sans-serif" font-size="37.5" lengthAdjust="spacing" textLength="81.25" x="2789.0625" y="1915.2466">track</text><text fill="#FF79C6" font-family="sans-serif" font-size="37.5" lengthAdjust="spacing" textLength="12.5" x="2870.3125" y="1915.2466">)</text><polygon fill="#FFB86C" points="3810.9375,2026.9043,3842.1875,2039.4043,3810.9375,2051.9043" style="stroke:#FFB86C;stroke-width:3.125;"/><line style="stroke:#FFB86C;stroke-width:9.375;" x1="3143.75" x2="3829.6875" y1="2039.4043" y2="2039.4043"/><text fill="#FF79C6" font-family="sans-serif" font-size="37.5" lengthAdjust="spacing" textLength="178.125" x="3171.875" y="2018.6646">AddAsync(</text><text fill="#F8F8F2" font-family="sans-serif" font-size="37.5" lengthAdjust="spacing" textLength="81.25" x="3350" y="2018.6646">track</text><text fill="#FF79C6" font-family="sans-serif" font-size="37.5" lengthAdjust="spacing" textLength="12.5" x="3431.25" y="2018.6646">)</text><polygon fill="#FFB86C" points="4464.0625,2130.3223,4495.3125,2142.8223,4464.0625,2155.3223" style="stroke:#FFB86C;stroke-width:3.125;"/><line style="stroke:#FFB86C;stroke-width:9.375;" x1="3879.6875" x2="4482.8125" y1="2142.8223" y2="2142.8223"/><text fill="#F1FA8C" font-family="sans-serif" font-size="37.5" lengthAdjust="spacing" textLength="359.375" x="3907.8125" y="2122.0825">Creates Track Object</text><polygon fill="#FFB86C" points="3914.0625,2233.7402,3882.8125,2246.2402,3914.0625,2258.7402" style="stroke:#FFB86C;stroke-width:3.125;"/><line style="stroke:#FFB86C;stroke-width:9.375;stroke-dasharray:2.0,2.0;" x1="3895.3125" x2="4514.0625" y1="2246.2402" y2="2246.2402"/><text fill="#F1FA8C" font-family="sans-serif" font-size="37.5" lengthAdjust="spacing" textLength="321.875" x="3939.0625" y="2225.5005">return Track Object</text><polygon fill="#FFB86C" points="4890.625,2337.1582,4921.875,2349.6582,4890.625,2362.1582" style="stroke:#FFB86C;stroke-width:3.125;"/><line style="stroke:#FFB86C;stroke-width:9.375;" x1="3864.0625" x2="4909.375" y1="2349.6582" y2="2349.6582"/><text fill="#F1FA8C" font-family="sans-serif" font-size="37.5" lengthAdjust="spacing" textLength="237.5" x="3892.1875" y="2328.9185">Database call</text><polygon fill="#FFB86C" points="5435.9375,2440.5762,5467.1875,2453.0762,5435.9375,2465.5762" style="stroke:#FFB86C;stroke-width:3.125;"/><line style="stroke:#FFB86C;stroke-width:9.375;" x1="4943.75" x2="5454.6875" y1="2453.0762" y2="2453.0762"/><text fill="#F1FA8C" font-family="sans-serif" font-size="37.5" lengthAdjust="spacing" textLength="209.375" x="4971.875" y="2432.3364">DbSet Track</text><polygon fill="#FFB86C" points="4993.75,2543.9941,4962.5,2556.4941,4993.75,2568.9941" style="stroke:#FFB86C;stroke-width:3.125;"/><line style="stroke:#FFB86C;stroke-width:9.375;stroke-dasharray:2.0,2.0;" x1="4975" x2="5485.9375" y1="2556.4941" y2="2556.4941"/><text fill="#F1FA8C" font-family="sans-serif" font-size="37.5" lengthAdjust="spacing" textLength="240.625" x="5018.75" y="2535.7544">Track Created</text><polygon fill="#FFB86C" points="3914.0625,2647.4121,3882.8125,2659.9121,3914.0625,2672.4121" style="stroke:#FFB86C;stroke-width:3.125;"/><line style="stroke:#FFB86C;stroke-width:9.375;stroke-dasharray:2.0,2.0;" x1="3895.3125" x2="4940.625" y1="2659.9121" y2="2659.9121"/><text fill="#F1FA8C" font-family="sans-serif" font-size="37.5" lengthAdjust="spacing" textLength="240.625" x="3939.0625" y="2639.1724">Track Created</text><polygon fill="#FFB86C" points="3193.75,2750.8301,3162.5,2763.3301,3193.75,2775.8301" style="stroke:#FFB86C;stroke-width:3.125;"/><line style="stroke:#FFB86C;stroke-width:9.375;stroke-dasharray:2.0,2.0;" x1="3175" x2="3860.9375" y1="2763.3301" y2="2763.3301"/><text fill="#F1FA8C" font-family="sans-serif" font-size="37.5" lengthAdjust="spacing" textLength="240.625" x="3218.75" y="2742.5903">Track Created</text><polygon fill="#FFB86C" points="2589.0625,2854.248,2557.8125,2866.748,2589.0625,2879.248" style="stroke:#FFB86C;stroke-width:3.125;"/><line style="stroke:#FFB86C;stroke-width:9.375;stroke-dasharray:2.0,2.0;" x1="2570.3125" x2="3140.625" y1="2866.748" y2="2866.748"/><text fill="#F1FA8C" font-family="sans-serif" font-size="37.5" lengthAdjust="spacing" textLength="240.625" x="2614.0625" y="2846.0083">Track Created</text><polygon fill="#FFB86C" points="1748.4375,2957.666,1717.1875,2970.166,1748.4375,2982.666" style="stroke:#FFB86C;stroke-width:3.125;"/><line style="stroke:#FFB86C;stroke-width:9.375;stroke-dasharray:2.0,2.0;" x1="1729.6875" x2="2520.3125" y1="2970.166" y2="2970.166"/><text fill="#FF79C6" font-family="sans-serif" font-size="37.5" lengthAdjust="spacing" textLength="59.375" x="1773.4375" y="2949.4263">Ok(</text><text fill="#F8F8F2" font-family="sans-serif" font-size="37.5" lengthAdjust="spacing" textLength="228.125" x="1832.8125" y="2949.4263">Bane oprettet</text><text fill="#FF79C6" font-family="sans-serif" font-size="37.5" lengthAdjust="spacing" textLength="12.5" x="2060.9375" y="2949.4263">)</text><polygon fill="#FFB86C" points="154.6875,3061.084,123.4375,3073.584,154.6875,3086.084" style="stroke:#FFB86C;stroke-width:3.125;"/><line style="stroke:#FFB86C;stroke-width:9.375;stroke-dasharray:2.0,2.0;" x1="135.9375" x2="1679.6875" y1="3073.584" y2="3073.584"/><text fill="#F1FA8C" font-family="sans-serif" font-size="37.5" lengthAdjust="spacing" textLength="459.375" x="179.6875" y="3052.8442">Bane oprettet successfully.</text><line style="stroke:#FF5555;stroke-width:3.125;stroke-dasharray:2.0,2.0;" x1="31.25" x2="5620.3125" y1="3101.709" y2="3101.709"/><text fill="#FF5555" font-family="sans-serif" font-size="37.5" font-weight="bold" lengthAdjust="spacing" textLength="400" x="53.125" y="3146.8872">[if trackService is Null]</text><polygon fill="#FFB86C" points="1748.4375,3230.4199,1717.1875,3242.9199,1748.4375,3255.4199" style="stroke:#FFB86C;stroke-width:3.125;"/><line style="stroke:#FFB86C;stroke-width:9.375;stroke-dasharray:2.0,2.0;" x1="1729.6875" x2="2535.9375" y1="3242.9199" y2="3242.9199"/><text fill="#FF79C6" font-family="sans-serif" font-size="37.5" lengthAdjust="spacing" textLength="206.25" x="1773.4375" y="3222.1802">Statuscode(</text><text fill="#F8F8F2" font-family="sans-serif" font-size="37.5" lengthAdjust="spacing" textLength="65.625" x="1979.6875" y="3222.1802">500</text><text fill="#FF79C6" font-family="sans-serif" font-size="37.5" lengthAdjust="spacing" textLength="12.5" x="2045.3125" y="3222.1802">)</text><polygon fill="#FFB86C" points="154.6875,3333.8379,123.4375,3346.3379,154.6875,3358.8379" style="stroke:#FFB86C;stroke-width:3.125;"/><line style="stroke:#FFB86C;stroke-width:9.375;stroke-dasharray:2.0,2.0;" x1="135.9375" x2="1679.6875" y1="3346.3379" y2="3346.3379"/><text fill="#F1FA8C" font-family="sans-serif" font-size="37.5" lengthAdjust="spacing" textLength="359.375" x="179.6875" y="3325.5981">No track was created</text><rect fill="none" height="393.8965" id="_legend" style="stroke:#FF5555;stroke-width:9.375;" width="528.125" x="2583.5938" y="209.8633"/><text fill="#F8F8F2" font-family="sans-serif" font-size="43.75" lengthAdjust="spacing" textLength="153.125" x="2611.7188" y="289.6545">Artefakt</text><text fill="#F8F8F2" font-family="sans-serif" font-size="43.75" lengthAdjust="spacing" textLength="100" x="2789.8438" y="289.6545">Navn</text><text fill="#F8F8F2" font-family="sans-serif" font-size="43.75" lengthAdjust="spacing" textLength="59.375" x="2611.7188" y="357.1838">UC</text><text fill="#F8F8F2" font-family="sans-serif" font-size="43.75" lengthAdjust="spacing" textLength="281.25" x="2789.8438" y="357.1838">Opretter Bane</text><text fill="#F8F8F2" font-family="sans-serif" font-size="43.75" lengthAdjust="spacing" textLength="87.5" x="2611.7188" y="424.7131">SSD</text><text fill="#F8F8F2" font-family="sans-serif" font-size="43.75" lengthAdjust="spacing" textLength="281.25" x="2789.8438" y="424.7131">Opretter Bane</text><text fill="#F8F8F2" font-family="sans-serif" font-size="43.75" lengthAdjust="spacing" textLength="65.625" x="2611.7188" y="492.2424">OC</text><text fill="#F8F8F2" font-family="sans-serif" font-size="43.75" lengthAdjust="spacing" textLength="281.25" x="2789.8438" y="492.2424">Opretter Bane</text><text fill="#F8F8F2" font-family="sans-serif" font-size="43.75" font-weight="bold" lengthAdjust="spacing" textLength="59.375" x="2611.7188" y="559.7717">SD</text><text fill="#F8F8F2" font-family="sans-serif" font-size="43.75" lengthAdjust="spacing" textLength="12.5" x="2777.3438" y="559.7717">&#160;</text><text fill="#F8F8F2" font-family="sans-serif" font-size="43.75" font-weight="bold" lengthAdjust="spacing" textLength="278.125" x="2789.8438" y="559.7717">Create Track</text><text fill="#F8F8F2" font-family="sans-serif" font-size="43.75" lengthAdjust="spacing" textLength="12.5" x="3067.9688" y="559.7717">&#160;</text><line style="stroke:#F8F8F2;stroke-width:3.125;" x1="2605.4688" x2="3089.8438" y1="237.9883" y2="237.9883"/><line style="stroke:#F8F8F2;stroke-width:3.125;" x1="2605.4688" x2="3089.8438" y1="305.5176" y2="305.5176"/><line style="stroke:#F8F8F2;stroke-width:3.125;" x1="2605.4688" x2="3089.8438" y1="373.0469" y2="373.0469"/><line style="stroke:#F8F8F2;stroke-width:3.125;" x1="2605.4688" x2="3089.8438" y1="440.5762" y2="440.5762"/><line style="stroke:#F8F8F2;stroke-width:3.125;" x1="2605.4688" x2="3089.8438" y1="508.1055" y2="508.1055"/><line style="stroke:#F8F8F2;stroke-width:3.125;" x1="2605.4688" x2="3089.8438" y1="575.6348" y2="575.6348"/><line style="stroke:#F8F8F2;stroke-width:3.125;" x1="2605.4688" x2="2605.4688" y1="237.9883" y2="575.6348"/><line style="stroke:#F8F8F2;stroke-width:3.125;" x1="2771.0938" x2="2771.0938" y1="237.9883" y2="575.6348"/><line style="stroke:#F8F8F2;stroke-width:3.125;" x1="3089.8438" x2="3089.8438" y1="237.9883" y2="575.6348"/><!--SRC=[XLKxRzim4DxrAwv6XaOGWYnTsgA0OWMeXyP1v3IB5uewEwnbKILFZWFun_SeoNf5IO40eSdlSRm7HOeoXBb1GGWh8-JEot2BUGga2-yK6iADsD49xiGXXvDtUfoVO5aO9483Do97telZQBJfaCi9fE_7aU-VmFVxbhxFUETPMtkVw1dt216VbPc0ZT5xYFIkt6DEWfJErx74N1Y5Pks4pJh20sQwS83V2b_MqJpoX2HjuD6YyH9zX5cajs5HN3rXClCAOKX9LOYSOEOOCn0M7XTL58mUCCBxnOZXTXmXB2O9CHfra6X7hEgkm8S79R7Yh-ma_m4BRHL7hzxHQ06ljOoPb8a4YIbwmt6r7Xmw_5pdX4Ug894SoV9v8YpElBHPzVOgGj8Il8jVQAtOucTNW81J6pHTLXa7y1FLzfdWAwYSli6JIkdv_6Ekimobg_Ft2hmWtFzeLvO1BBFbopF1ab7vzj8LMnrSGt4DEsis3OlMM5ZshNGYqZqALr4N16fJ7tAyN1zG5l8ooxoB1wJIv3rD9xd83o9JwR90KtNaxL5YuHO1t1h3VTVWBrr61lBi_H_j6v4-uDyIBKsANTndGhKSH-Zks5dev0_da6-PlRaP7fKbswN9qLTsL1zo_owz5FjfQjUh7jrHLrpYC4r3-vhBAIxZkxKPNS6H6zSwXAOxOTdSeSzr-mr_cBoUYgaEHYBzQAhUVnj598DpFuCKMJOYTM7mP0p9ZfdmNunKgm-e3E_MoMJqjK0JSfs5TAYHJDY_oG3BVAGX9wemqh11cyX9ZNuQN1TCQ70_rJtnheOT3D_q52ntGVqfqVKtX4iuPLOzBsxG1rYmfUG7s6vuobwlU6uoBYcFGTMPpGlifl3k_IcC-LDJMgbJ3E3BzVLu53wCvKxNJl32hw8yPy1pu_iF]--></g></svg>