<?xml version="1.0" encoding="us-ascii" standalone="no"?><svg xmlns="http://www.w3.org/2000/svg" xmlns:xlink="http://www.w3.org/1999/xlink" contentStyleType="text/css" height="1484.375px" preserveAspectRatio="none" style="width:1062px;height:1484px;background:#282A36;" version="1.1" viewBox="0 0 1062 1484" width="1062.5px" zoomAndPan="magnify"><defs/><g><rect fill="#282A36" height="1484.375" style="stroke:none;stroke-width:3.125;" width="1062.5" x="0" y="0"/><text fill="#F8F8F2" font-family="sans-serif" font-size="62.5" font-weight="bold" lengthAdjust="spacing" textLength="521.875" x="248.4375" y="102.3804">UseCase Diagram</text><!--cluster use_cases--><g id="cluster_use_cases"><rect fill="#282A36" height="1287.5" style="stroke:#FF5555;stroke-width:6.25;" width="584.375" x="459.375" y="178.6133"/><text fill="#F8F8F2" font-family="sans-serif" font-size="50" font-weight="bold" lengthAdjust="spacing" textLength="256.25" x="623.4375" y="243.0176">use_cases</text></g><g id="elem_UC1"><ellipse cx="751.0835" cy="366.1174" fill="#F1F1F1" rx="210.4585" ry="51.5666" style="stroke:#181818;stroke-width:1.5625;"/><text fill="#000000" font-family="sans-serif" font-size="37.5" lengthAdjust="spacing" textLength="234.375" x="633.896" y="375.2116">Opretter bane</text></g><g id="elem_UC2"><ellipse cx="752.2864" cy="569.0706" fill="#F1F1F1" rx="242.9114" ry="56.0823" style="stroke:#181818;stroke-width:1.5625;"/><text fill="#000000" font-family="sans-serif" font-size="37.5" lengthAdjust="spacing" textLength="309.375" x="597.5989" y="578.1648">Se en enkelt bane</text></g><g id="elem_UC3"><ellipse cx="751.3976" cy="772.3674" fill="#F1F1F1" rx="179.5226" ry="51.5666" style="stroke:#181818;stroke-width:1.5625;"/><text fill="#000000" font-family="sans-serif" font-size="37.5" lengthAdjust="spacing" textLength="190.625" x="656.0851" y="781.4616">Deler bane</text></g><g id="elem_UC4"><ellipse cx="750.9074" cy="969.2424" fill="#F1F1F1" rx="161.8449" ry="51.5666" style="stroke:#181818;stroke-width:1.5625;"/><text fill="#000000" font-family="sans-serif" font-size="37.5" lengthAdjust="spacing" textLength="165.625" x="668.0949" y="978.3366">Slet Bane</text></g><g id="elem_UC5"><ellipse cx="751.7307" cy="1166.1174" fill="#F1F1F1" rx="212.6682" ry="51.5666" style="stroke:#181818;stroke-width:1.5625;"/><text fill="#000000" font-family="sans-serif" font-size="37.5" lengthAdjust="spacing" textLength="237.5" x="632.9807" y="1175.2116">Opdater Bane</text></g><g id="elem_UC6"><ellipse cx="751.9988" cy="1362.9924" fill="#F1F1F1" rx="208.2488" ry="51.5666" style="stroke:#181818;stroke-width:1.5625;"/><text fill="#000000" font-family="sans-serif" font-size="37.5" lengthAdjust="spacing" textLength="231.25" x="636.3738" y="1372.0866">Se Alle Baner</text></g><!--entity Lene--><g id="elem_Lene"><ellipse cx="103.125" cy="798.9258" fill="#FFB86C" rx="50" ry="50" style="stroke:#FFB86C;stroke-width:9.375;"/><path d="M103.125,861.4258 C115.625,861.4258 125,861.4258 137.5,848.9258 C162.5,848.9258 187.5,873.9258 187.5,898.9258 L187.5,911.4258 C187.5,923.9258 175,936.4258 162.5,936.4258 L43.75,936.4258 C31.25,936.4258 18.75,923.9258 18.75,911.4258 L18.75,898.9258 C18.75,873.9258 43.75,848.9258 68.75,848.9258 C81.25,861.4258 90.625,861.4258 103.125,861.4258 " fill="#FFB86C" style="stroke:#FFB86C;stroke-width:9.375;"/><text fill="#FFB86C" font-family="sans-serif" font-size="37.5" lengthAdjust="spacing" textLength="87.5" x="59.375" y="990.979">Lene</text></g><!--link Lene to UC1--><g id="link_Lene_UC1"><path d="M184.6563,738.9883 C243.1875,650.082 330.7188,536.9883 434.375,466.1133 C479.4688,435.2695 516.6716,418.822 568.0779,403.6657 " fill="none" id="Lene-to-UC1" style="stroke:#8BE9FD;stroke-width:9.375;"/><polygon fill="#8BE9FD" points="586.0625,398.3633,555.5506,394.3272,571.0753,402.782,562.6205,418.3067,586.0625,398.3633" style="stroke:#8BE9FD;stroke-width:9.375;"/></g><!--link Lene to UC2--><g id="link_Lene_UC2"><path d="M197.8438,808.6445 C261.9688,766.0508 350.7813,710.9258 434.375,672.3633 C484.9062,649.0508 524.3777,634.2515 576.0964,617.8452 " fill="none" id="Lene-to-UC2" style="stroke:#8BE9FD;stroke-width:9.375;"/><polygon fill="#8BE9FD" points="593.9688,612.1758,563.3806,608.7651,579.0752,616.9003,570.9399,632.5949,593.9688,612.1758" style="stroke:#8BE9FD;stroke-width:9.375;"/></g><!--link Lene to UC3--><g id="link_Lene_UC3"><path d="M196.9063,858.2383 C299.5938,842.2695 450.1923,818.8127 574.1298,799.5002 " fill="none" id="Lene-to-UC3" style="stroke:#8BE9FD;stroke-width:9.375;"/><polygon fill="#8BE9FD" points="592.6563,796.6133,562.942,788.5926,577.2176,799.019,566.7912,813.2945,592.6563,796.6133" style="stroke:#8BE9FD;stroke-width:9.375;"/></g><!--link Lene to UC4--><g id="link_Lene_UC4"><path d="M196.9063,886.0508 C302.6875,901.9883 460.4908,925.818 585.272,944.6305 " fill="none" id="Lene-to-UC4" style="stroke:#8BE9FD;stroke-width:9.375;"/><polygon fill="#8BE9FD" points="603.8125,947.4258,577.8653,930.8726,588.3621,945.0964,574.1383,955.5932,603.8125,947.4258" style="stroke:#8BE9FD;stroke-width:9.375;"/></g><!--link Lene to UC5--><g id="link_Lene_UC5"><path d="M198,934.1445 C262.2188,975.4258 351.0313,1028.832 434.375,1066.1133 C488.9688,1090.5508 533.3617,1106.2598 588.0492,1122.7598 " fill="none" id="Lene-to-UC5" style="stroke:#8BE9FD;stroke-width:9.375;"/><polygon fill="#8BE9FD" points="606,1128.1758,582.6845,1108.0846,591.041,1123.6624,575.4632,1132.019,606,1128.1758" style="stroke:#8BE9FD;stroke-width:9.375;"/></g><!--link Lene to UC6--><g id="link_Lene_UC6"><path d="M188.9688,1005.207 C247.9375,1089.8945 334.3125,1195.957 434.375,1262.9883 C480.25,1293.707 518.1645,1310.21 570.0395,1325.4287 " fill="none" id="Lene-to-UC6" style="stroke:#8BE9FD;stroke-width:9.375;"/><polygon fill="#8BE9FD" points="588.0313,1330.707,564.5625,1310.7951,573.0381,1326.3085,557.5248,1334.7841,588.0313,1330.707" style="stroke:#8BE9FD;stroke-width:9.375;"/></g><!--SRC=[PP1DQyCm38Rl-XLQxpsiNyV16Xy7EsJTAJ2qL6rD73lOoieO- - -Jms1kPepDWn_9h_rYnJ4U4bUK68sbSwGUu4ukt2j7QaT7U8gXHnEwiMSl93RufcxPKxGScprvNGr_i0j35bujNnjJ6KYTzGDfGwHMGgpbK- -YAwVGCpW-2Kh0QCyNmQEDtER6CAdun5xLDEsGZyYVjNXC_DPgqlG5g4Cn4owUXyWY7F5TmonouQ6wnrkdPcIlisCdfRUQUORTRQCrpZiv5jp_2Pjvc2FbB8Mn_HVbqUbpfg_xLNRm3J0zUxbyoF5BM9MmBc5JmhQ47G3y0000]--></g></svg>